<svg xmlns="http://www.w3.org/2000/svg" xmlns:xlink="http://www.w3.org/1999/xlink" width="494" zoomAndPan="magnify" viewBox="0 0 370.5 194.249992" height="259" preserveAspectRatio="xMidYMid meet" version="1.0"><defs><g/><clipPath id="1fdb4ce552"><path d="M 17 0.269531 L 119 0.269531 L 119 106 L 17 106 Z M 17 0.269531 " clip-rule="nonzero"/></clipPath><clipPath id="813f2cbeca"><path d="M 97 180 L 140 180 L 140 193.023438 L 97 193.023438 Z M 97 180 " clip-rule="nonzero"/></clipPath><clipPath id="82f62ae80a"><path d="M 0.613281 85 L 44 85 L 44 164 L 0.613281 164 Z M 0.613281 85 " clip-rule="nonzero"/></clipPath><clipPath id="86a7561a20"><path d="M 133 16 L 158.257812 16 L 158.257812 35 L 133 35 Z M 133 16 " clip-rule="nonzero"/></clipPath><clipPath id="5f632427f7"><path d="M 79.363281 30.984375 L 302 30.984375 L 302 57.132812 L 79.363281 57.132812 Z M 79.363281 30.984375 " clip-rule="nonzero"/></clipPath><clipPath id="1e32ae0c3f"><path d="M 276 151 L 290 151 L 290 158.855469 L 276 158.855469 Z M 276 151 " clip-rule="nonzero"/></clipPath><clipPath id="63be2fc621"><path d="M 284 151 L 298 151 L 298 158.855469 L 284 158.855469 Z M 284 151 " clip-rule="nonzero"/></clipPath><clipPath id="24a8184199"><path d="M 292 151 L 306 151 L 306 158.855469 L 292 158.855469 Z M 292 151 " clip-rule="nonzero"/></clipPath><clipPath id="7e3abf8c7b"><path d="M 299 151 L 313 151 L 313 158.855469 L 299 158.855469 Z M 299 151 " clip-rule="nonzero"/></clipPath><clipPath id="d8c5f9175e"><path d="M 307 151 L 320.992188 151 L 320.992188 158.855469 L 307 158.855469 Z M 307 151 " clip-rule="nonzero"/></clipPath><clipPath id="af8733e394"><path d="M 105.820312 141.671875 L 111 141.671875 L 111 147 L 105.820312 147 Z M 105.820312 141.671875 " clip-rule="nonzero"/></clipPath><clipPath id="a887e0eed2"><path d="M 251.277344 55 L 299 55 L 299 69 L 251.277344 69 Z M 251.277344 55 " clip-rule="nonzero"/></clipPath><clipPath id="68169c4b8e"><path d="M 251.277344 56 L 341 56 L 341 77 L 251.277344 77 Z M 251.277344 56 " clip-rule="nonzero"/></clipPath><clipPath id="1e8cf62732"><path d="M 298 53.9375 L 302 53.9375 L 302 58 L 298 58 Z M 298 53.9375 " clip-rule="nonzero"/></clipPath><clipPath id="e0475accb1"><path d="M 338 54 L 342.425781 54 L 342.425781 59 L 338 59 Z M 338 54 " clip-rule="nonzero"/></clipPath><clipPath id="8d42231889"><path d="M 320 87 L 325 87 L 325 91.292969 L 320 91.292969 Z M 320 87 " clip-rule="nonzero"/></clipPath><clipPath id="043c95b5e2"><path d="M 251.277344 70 L 314 70 L 314 81 L 251.277344 81 Z M 251.277344 70 " clip-rule="nonzero"/></clipPath><clipPath id="f56869fde6"><path d="M 251.277344 80 L 321 80 L 321 90 L 251.277344 90 Z M 251.277344 80 " clip-rule="nonzero"/></clipPath><clipPath id="f4c76c9740"><path d="M 3 9 L 55.515625 9 L 55.515625 79 L 3 79 Z M 3 9 " clip-rule="nonzero"/></clipPath><clipPath id="5fffc77760"><rect x="0" width="56" y="0" height="103"/></clipPath><clipPath id="f193c069c9"><path d="M 127 40 L 341 40 L 341 193.503906 L 127 193.503906 Z M 127 40 " clip-rule="nonzero"/></clipPath><clipPath id="283ead6a49"><path d="M 0.464844 0 L 195 0 L 195 164 L 0.464844 164 Z M 0.464844 0 " clip-rule="nonzero"/></clipPath><clipPath id="c1507f2d27"><rect x="0" width="214" y="0" height="22"/></clipPath><clipPath id="73d5283143"><path d="M 0.101562 25 L 53 25 L 53 94 L 0.101562 94 Z M 0.101562 25 " clip-rule="nonzero"/></clipPath><clipPath id="b5741276cc"><rect x="0" width="56" y="0" height="103"/></clipPath><clipPath id="3bd67888df"><rect x="0" width="57" y="0" height="111"/></clipPath><clipPath id="0923f47484"><path d="M 291.535156 84 L 333 84 L 333 96 L 291.535156 96 Z M 291.535156 84 " clip-rule="nonzero"/></clipPath><clipPath id="b7a29c50b8"><path d="M 291.535156 85 L 369 85 L 369 104 L 291.535156 104 Z M 291.535156 85 " clip-rule="nonzero"/></clipPath><clipPath id="a66cc2c4bc"><path d="M 331 83.46875 L 335 83.46875 L 335 87 L 331 87 Z M 331 83.46875 " clip-rule="nonzero"/></clipPath><clipPath id="9501431bf9"><path d="M 366 84 L 369.234375 84 L 369.234375 88 L 366 88 Z M 366 84 " clip-rule="nonzero"/></clipPath><clipPath id="d296ff4126"><path d="M 350 112 L 355 112 L 355 115.597656 L 350 115.597656 Z M 350 112 " clip-rule="nonzero"/></clipPath><clipPath id="7029299185"><path d="M 291.535156 97 L 346 97 L 346 107 L 291.535156 107 Z M 291.535156 97 " clip-rule="nonzero"/></clipPath><clipPath id="eec14c5471"><path d="M 291.535156 106 L 351 106 L 351 115 L 291.535156 115 Z M 291.535156 106 " clip-rule="nonzero"/></clipPath></defs><g clip-path="url(#1fdb4ce552)"><path fill="#deb56a" d="M 30.503906 43.433594 L 30.644531 45 C 30.695312 45.519531 30.742188 46.03125 30.816406 46.554688 C 30.957031 47.597656 31.109375 48.625 31.269531 49.636719 L 31.523438 51.140625 C 31.609375 51.636719 31.726562 52.148438 31.828125 52.644531 L 30.949219 54.019531 L 30.511719 54.703125 C 30.359375 54.933594 30.21875 55.164062 30.085938 55.398438 L 28.464844 58.222656 C 27.957031 59.183594 27.472656 60.152344 26.972656 61.121094 C 26.851562 61.363281 26.71875 61.601562 26.605469 61.847656 L 26.269531 62.589844 L 25.601562 64.074219 C 23.851562 68.046875 22.429688 72.164062 21.34375 76.371094 C 20.277344 80.578125 19.59375 84.882812 19.226562 89.207031 L 19.105469 90.832031 L 19.042969 91.644531 C 19.027344 91.914062 19.027344 92.183594 19.015625 92.457031 L 18.9375 95.710938 L 19.019531 98.96875 L 19.042969 99.78125 L 19.105469 100.59375 L 19.171875 101.453125 C 18.347656 101.757812 17.761719 102.546875 17.761719 103.472656 C 17.761719 104.664062 18.730469 105.628906 19.917969 105.628906 C 21.105469 105.628906 22.074219 104.660156 22.074219 103.472656 C 22.074219 102.390625 21.277344 101.496094 20.238281 101.34375 C 19.828125 95.578125 20.042969 89.769531 20.886719 84.054688 C 21.800781 78.082031 23.425781 72.222656 25.6875 66.621094 C 27.929688 61.011719 30.90625 55.703125 34.410156 50.785156 L 35.066406 49.859375 C 35.175781 49.707031 35.28125 49.550781 35.398438 49.398438 L 35.746094 48.953125 L 37.148438 47.171875 C 37.601562 46.570312 38.105469 46.003906 38.597656 45.433594 L 40.082031 43.71875 L 41.644531 42.078125 C 42.167969 41.53125 42.679688 40.976562 43.238281 40.464844 L 44.875 38.898438 L 45.195312 38.59375 C 45.503906 38.765625 45.859375 38.863281 46.238281 38.863281 C 47.429688 38.863281 48.394531 37.898438 48.394531 36.707031 C 48.394531 35.519531 47.425781 34.554688 46.238281 34.554688 C 45.046875 34.554688 44.082031 35.519531 44.082031 36.707031 C 44.082031 37.136719 44.207031 37.53125 44.421875 37.867188 C 40.027344 41.867188 36.132812 46.398438 32.746094 51.277344 C 32.589844 50.410156 32.445312 49.53125 32.304688 48.636719 C 32.167969 47.746094 32.03125 46.839844 31.949219 45.945312 C 31.855469 45.050781 31.769531 44.136719 31.695312 43.21875 C 31.621094 42.296875 31.546875 41.359375 31.523438 40.445312 C 34.503906 36.855469 37.824219 33.554688 41.359375 30.515625 C 44.902344 27.480469 48.679688 24.714844 52.660156 22.277344 C 56.65625 19.863281 60.84375 17.765625 65.167969 16.011719 L 66.800781 15.367188 C 67.34375 15.15625 67.886719 14.933594 68.441406 14.757812 L 71.761719 13.636719 L 75.128906 12.675781 C 75.410156 12.597656 75.691406 12.511719 75.972656 12.445312 L 76.828125 12.246094 L 78.53125 11.851562 C 81.039062 8.308594 83.917969 4.929688 87.128906 1.648438 C 87.714844 1.566406 88.304688 1.535156 88.898438 1.484375 L 90.671875 1.351562 L 92.441406 1.226562 L 94.214844 1.175781 L 95.988281 1.132812 L 96.871094 1.113281 C 97.167969 1.105469 97.464844 1.101562 97.757812 1.113281 L 101.300781 1.207031 C 101.597656 1.21875 101.894531 1.21875 102.1875 1.238281 L 103.074219 1.300781 L 104.84375 1.429688 L 106.613281 1.566406 C 107.203125 1.628906 107.789062 1.707031 108.378906 1.777344 L 110.140625 1.996094 C 110.726562 2.074219 111.320312 2.136719 111.898438 2.246094 L 114.347656 2.675781 C 114.429688 3.792969 115.359375 4.671875 116.496094 4.671875 C 117.6875 4.671875 118.652344 3.707031 118.652344 2.515625 C 118.652344 1.328125 117.683594 0.363281 116.496094 0.363281 C 115.625 0.363281 114.878906 0.878906 114.539062 1.621094 L 111.980469 1.171875 C 111.375 1.058594 110.765625 1 110.15625 0.917969 L 108.328125 0.6875 C 107.722656 0.621094 107.113281 0.527344 106.503906 0.480469 L 104.667969 0.339844 C 103.445312 0.253906 102.226562 0.128906 101.003906 0.121094 L 97.332031 0.0273438 L 93.664062 0.113281 C 92.441406 0.121094 91.21875 0.238281 89.996094 0.324219 C 88.773438 0.417969 87.546875 0.488281 86.332031 0.660156 C 84.71875 2.324219 83.183594 3.945312 81.746094 5.699219 C 81.027344 6.5625 80.328125 7.421875 79.644531 8.28125 C 78.96875 9.152344 78.320312 10.058594 77.6875 10.941406 L 75.960938 11.339844 C 75.382812 11.46875 74.820312 11.652344 74.25 11.808594 L 72.542969 12.289062 C 71.972656 12.453125 71.40625 12.609375 70.847656 12.808594 L 67.484375 13.945312 L 64.183594 15.242188 C 59.816406 17.058594 55.59375 19.21875 51.570312 21.695312 C 47.535156 24.160156 43.746094 27.011719 40.183594 30.109375 C 36.625 33.21875 33.304688 36.59375 30.285156 40.230469 C 30.335938 41.308594 30.417969 42.382812 30.503906 43.433594 Z M 30.503906 43.433594 " fill-opacity="1" fill-rule="nonzero"/></g><path fill="#deb56a" d="M 21.269531 55.671875 C 21.429688 55.707031 21.59375 55.730469 21.765625 55.730469 C 22.957031 55.730469 23.921875 54.761719 23.921875 53.574219 C 23.921875 52.382812 22.953125 51.417969 21.765625 51.417969 C 20.574219 51.417969 19.609375 52.386719 19.609375 53.574219 C 19.609375 54.207031 19.882812 54.777344 20.320312 55.171875 C 15.703125 63.945312 12.613281 73.519531 11.195312 83.328125 C 10.449219 88.386719 10.203125 93.503906 10.375 98.601562 C 10.539062 103.476562 11.101562 108.347656 12.066406 113.140625 C 11.285156 113.464844 10.734375 114.234375 10.734375 115.132812 C 10.734375 116.324219 11.703125 117.289062 12.890625 117.289062 C 14.082031 117.289062 15.046875 116.320312 15.046875 115.132812 C 15.046875 114.023438 14.207031 113.109375 13.128906 112.992188 C 12.171875 108.234375 11.605469 103.40625 11.445312 98.566406 C 11.277344 93.53125 11.519531 88.476562 12.257812 83.480469 C 13.65625 73.792969 16.710938 64.335938 21.269531 55.671875 Z M 21.269531 55.671875 " fill-opacity="1" fill-rule="nonzero"/><path fill="#deb56a" d="M 116.335938 180.699219 C 116.703125 181.367188 117.410156 181.816406 118.222656 181.816406 C 119.414062 181.816406 120.378906 180.851562 120.378906 179.660156 C 120.378906 178.46875 119.414062 177.503906 118.222656 177.503906 C 117.035156 177.503906 116.066406 178.46875 116.066406 179.660156 C 112.902344 180.363281 109.695312 180.894531 106.46875 181.242188 C 102.886719 181.609375 99.285156 181.773438 95.6875 181.6875 C 94.667969 182.375 93.621094 183.085938 92.550781 183.75 C 91.480469 184.394531 90.386719 185.03125 89.265625 185.667969 C 88.144531 186.320312 87.007812 186.886719 85.84375 187.464844 L 84.078125 188.328125 L 83.179688 188.753906 C 82.878906 188.898438 82.578125 189.019531 82.277344 189.152344 C 80.285156 188.789062 78.261719 188.464844 76.246094 187.960938 C 75.742188 187.84375 75.234375 187.722656 74.726562 187.605469 C 74.21875 187.484375 73.707031 187.375 73.203125 187.222656 C 72.195312 186.933594 71.175781 186.644531 70.15625 186.351562 C 66.089844 185.097656 61.96875 183.621094 57.90625 181.710938 C 57.394531 181.476562 56.882812 181.246094 56.367188 181.011719 C 55.863281 180.753906 55.359375 180.496094 54.851562 180.242188 C 54.34375 179.984375 53.835938 179.722656 53.324219 179.460938 C 52.816406 179.195312 52.296875 178.949219 51.804688 178.648438 C 50.804688 178.074219 49.796875 177.496094 48.78125 176.910156 C 48.269531 176.628906 47.78125 176.300781 47.28125 175.988281 C 46.785156 175.667969 46.289062 175.351562 45.789062 175.027344 C 45.289062 174.703125 44.78125 174.390625 44.289062 174.054688 C 43.800781 173.707031 43.3125 173.363281 42.820312 173.015625 C 41.84375 172.308594 40.835938 171.632812 39.882812 170.863281 C 38.921875 170.105469 37.945312 169.355469 36.984375 168.566406 C 36.300781 167.980469 35.609375 167.382812 34.917969 166.785156 C 35.125 166.453125 35.246094 166.066406 35.246094 165.644531 C 35.246094 164.453125 34.28125 163.488281 33.089844 163.488281 C 31.902344 163.488281 30.9375 164.457031 30.9375 165.644531 C 30.9375 166.835938 31.902344 167.800781 33.089844 167.800781 C 33.472656 167.800781 33.832031 167.699219 34.136719 167.527344 C 34.867188 168.160156 35.59375 168.785156 36.316406 169.410156 C 37.292969 170.210938 38.289062 170.972656 39.265625 171.742188 C 39.511719 171.933594 39.753906 172.125 40 172.316406 C 40.242188 172.503906 40.503906 172.679688 40.75 172.859375 C 41.25 173.21875 41.753906 173.574219 42.25 173.929688 C 42.75 174.28125 43.25 174.632812 43.75 174.988281 C 44.253906 175.324219 44.769531 175.648438 45.273438 175.976562 C 45.78125 176.300781 46.289062 176.625 46.792969 176.949219 C 47.296875 177.269531 47.796875 177.59375 48.320312 177.886719 C 49.355469 178.480469 50.378906 179.066406 51.394531 179.652344 C 52.421875 180.222656 53.46875 180.734375 54.496094 181.265625 C 55.011719 181.527344 55.519531 181.796875 56.039062 182.042969 C 56.5625 182.28125 57.085938 182.519531 57.601562 182.753906 C 65.894531 186.589844 74.28125 188.929688 82.394531 190.265625 L 82.683594 190.316406 C 83.90625 189.761719 85.105469 189.183594 86.277344 188.605469 C 86.863281 188.3125 87.445312 188.03125 88.019531 187.730469 L 89.730469 186.78125 C 90.859375 186.136719 91.960938 185.515625 93.039062 184.847656 C 94.117188 184.160156 95.171875 183.464844 96.203125 182.773438 C 99.753906 182.832031 103.3125 182.652344 106.847656 182.277344 C 110.035156 181.9375 113.203125 181.398438 116.335938 180.699219 Z M 116.335938 180.699219 " fill-opacity="1" fill-rule="nonzero"/><path fill="#deb56a" d="M 69.035156 22.589844 L 67.542969 23.179688 L 66.792969 23.476562 L 66.0625 23.808594 C 65.089844 24.25 64.109375 24.679688 63.140625 25.140625 L 60.285156 26.605469 C 60.042969 26.71875 59.8125 26.855469 59.578125 26.988281 L 58.882812 27.390625 L 57.976562 27.910156 C 57.589844 27.546875 57.070312 27.324219 56.496094 27.324219 C 55.304688 27.324219 54.34375 28.289062 54.34375 29.480469 C 54.34375 30.671875 55.308594 31.632812 56.496094 31.632812 C 57.691406 31.632812 58.652344 30.667969 58.652344 29.480469 C 58.652344 29.246094 58.617188 29.027344 58.550781 28.820312 L 59.410156 28.324219 L 60.09375 27.929688 C 60.324219 27.796875 60.554688 27.667969 60.789062 27.550781 L 63.609375 26.105469 C 64.5625 25.652344 65.53125 25.230469 66.488281 24.792969 L 67.210938 24.46875 L 67.945312 24.175781 L 69.417969 23.59375 C 73.359375 22.078125 77.414062 20.859375 81.546875 20 C 85.6875 19.160156 89.890625 18.652344 94.109375 18.460938 L 97.273438 18.382812 L 100.441406 18.457031 L 101.234375 18.476562 L 103.601562 18.652344 C 103.832031 18.671875 104.058594 18.683594 104.285156 18.703125 C 104.394531 19.789062 105.3125 20.640625 106.429688 20.640625 C 107.621094 20.640625 108.585938 19.671875 108.585938 18.484375 C 108.585938 17.292969 107.617188 16.328125 106.429688 16.328125 C 105.542969 16.328125 104.777344 16.867188 104.445312 17.636719 C 104.195312 17.617188 103.9375 17.601562 103.6875 17.582031 L 102.085938 17.460938 L 101.285156 17.40625 L 100.484375 17.382812 L 97.273438 17.308594 L 94.0625 17.386719 C 89.785156 17.578125 85.523438 18.097656 81.328125 18.945312 C 77.144531 19.816406 73.03125 21.054688 69.035156 22.589844 Z M 69.035156 22.589844 " fill-opacity="1" fill-rule="nonzero"/><path fill="#deb56a" d="M 38.035156 87.363281 C 38.597656 83.339844 39.550781 79.371094 40.925781 75.550781 C 40.957031 75.554688 40.992188 75.558594 41.019531 75.558594 C 42.214844 75.558594 43.175781 74.589844 43.175781 73.402344 C 43.175781 72.210938 42.210938 71.246094 41.019531 71.246094 C 39.828125 71.246094 38.867188 72.214844 38.867188 73.402344 C 38.867188 74.179688 39.28125 74.859375 39.898438 75.242188 C 37.164062 82.886719 36.03125 91.101562 36.492188 99.265625 C 35.636719 99.550781 35.011719 100.359375 35.011719 101.316406 C 35.011719 102.507812 35.980469 103.46875 37.167969 103.46875 C 38.359375 103.46875 39.324219 102.503906 39.324219 101.316406 C 39.324219 100.257812 38.566406 99.382812 37.5625 99.195312 C 37.34375 95.246094 37.496094 91.261719 38.035156 87.363281 Z M 38.035156 87.363281 " fill-opacity="1" fill-rule="nonzero"/><path fill="#deb56a" d="M 27.777344 94.363281 L 27.746094 95.523438 C 27.734375 95.910156 27.761719 96.296875 27.765625 96.683594 L 27.824219 99.007812 C 27.824219 99.394531 27.871094 99.777344 27.898438 100.164062 L 27.984375 101.324219 C 28.0625 102.871094 28.308594 104.398438 28.492188 105.933594 C 28.53125 106.320312 28.609375 106.699219 28.675781 107.078125 L 28.878906 108.21875 C 29.023438 108.976562 29.128906 109.746094 29.324219 110.496094 L 29.839844 112.753906 C 29.917969 113.128906 30.035156 113.5 30.140625 113.871094 L 30.457031 114.984375 C 30.839844 116.484375 31.386719 117.929688 31.867188 119.398438 C 32.121094 120.125 32.425781 120.839844 32.703125 121.558594 L 33.125 122.636719 C 33.261719 123 33.4375 123.34375 33.59375 123.699219 L 34.546875 125.8125 C 34.886719 126.503906 35.25 127.1875 35.597656 127.878906 L 35.691406 128.058594 C 36.710938 128.515625 37.785156 128.90625 38.832031 129.28125 C 39.882812 129.65625 40.894531 130.023438 41.972656 130.320312 C 43.03125 130.625 44.058594 130.921875 45.097656 131.179688 C 46.15625 131.421875 47.199219 131.640625 48.222656 131.839844 C 52.183594 137.191406 57.011719 141.914062 62.460938 145.738281 C 62.378906 145.964844 62.332031 146.207031 62.332031 146.464844 C 62.332031 147.65625 63.300781 148.617188 64.488281 148.617188 C 65.679688 148.617188 66.644531 147.652344 66.644531 146.464844 C 66.644531 145.273438 65.679688 144.308594 64.488281 144.308594 C 63.941406 144.308594 63.441406 144.515625 63.0625 144.851562 C 52.105469 137.167969 43.738281 125.757812 39.964844 112.960938 C 40.617188 112.589844 41.050781 111.890625 41.050781 111.089844 C 41.050781 109.898438 40.085938 108.933594 38.898438 108.933594 C 37.703125 108.933594 36.742188 109.898438 36.742188 111.089844 C 36.742188 112.28125 37.707031 113.246094 38.898438 113.246094 C 38.90625 113.246094 38.917969 113.242188 38.929688 113.242188 C 40.753906 119.433594 43.65625 125.304688 47.347656 130.613281 C 46.894531 130.519531 46.433594 130.425781 45.980469 130.324219 L 44.636719 129.976562 C 43.738281 129.734375 42.816406 129.484375 41.898438 129.203125 C 41.007812 128.910156 40.101562 128.601562 39.183594 128.273438 C 38.730469 128.105469 38.253906 127.949219 37.808594 127.761719 L 36.460938 127.203125 C 35.027344 124.523438 33.878906 121.707031 32.820312 118.867188 L 32.089844 116.714844 L 31.910156 116.175781 C 31.851562 115.992188 31.804688 115.8125 31.753906 115.628906 L 31.445312 114.53125 L 30.976562 112.890625 L 30.851562 112.335938 L 30.339844 110.121094 L 30.207031 109.566406 L 30.109375 109.003906 L 29.914062 107.886719 L 29.714844 106.765625 L 29.609375 106.207031 L 29.539062 105.640625 L 29.253906 103.382812 L 29.179688 102.820312 C 29.160156 102.632812 29.148438 102.441406 29.136719 102.25 L 29.054688 101.113281 C 28.773438 98.085938 28.816406 95.035156 28.929688 91.996094 C 29.589844 80.074219 33.367188 68.371094 39.914062 58.382812 C 40.113281 58.441406 40.320312 58.476562 40.539062 58.476562 C 41.734375 58.476562 42.695312 57.507812 42.695312 56.320312 C 42.695312 55.128906 41.730469 54.164062 40.539062 54.164062 C 39.347656 54.164062 38.386719 55.132812 38.386719 56.320312 C 38.386719 56.902344 38.617188 57.433594 38.996094 57.824219 C 32.339844 67.988281 28.515625 79.90625 27.847656 92.039062 C 27.8125 92.816406 27.800781 93.589844 27.777344 94.363281 Z M 27.777344 94.363281 " fill-opacity="1" fill-rule="nonzero"/><g clip-path="url(#813f2cbeca)"><path fill="#deb56a" d="M 136.984375 180.023438 C 135.792969 180.023438 134.828125 180.988281 134.828125 182.175781 C 134.828125 182.339844 134.847656 182.496094 134.878906 182.644531 C 131.507812 184.082031 128.386719 185.1875 125.410156 186.109375 C 124.59375 186.347656 123.796875 186.609375 123 186.820312 C 122.199219 187.035156 121.410156 187.242188 120.625 187.453125 C 119.839844 187.65625 119.054688 187.824219 118.273438 188.007812 C 117.882812 188.097656 117.492188 188.183594 117.101562 188.273438 L 115.921875 188.503906 C 111.601562 189.359375 107.1875 189.957031 102.128906 190.234375 C 101.859375 189.34375 101.039062 188.695312 100.0625 188.695312 C 98.871094 188.695312 97.90625 189.660156 97.90625 190.847656 C 97.90625 192.039062 98.867188 193.003906 100.058594 193.003906 C 101.09375 193.003906 101.957031 192.273438 102.167969 191.300781 C 108.265625 190.964844 113.4375 190.207031 118.628906 189.023438 C 119.316406 188.867188 120.003906 188.710938 120.695312 188.539062 C 121.382812 188.359375 122.074219 188.175781 122.773438 187.988281 C 123.125 187.894531 123.472656 187.800781 123.824219 187.703125 C 124.175781 187.597656 124.527344 187.492188 124.882812 187.386719 C 125.589844 187.167969 126.304688 186.957031 127.03125 186.726562 C 129.667969 185.863281 132.417969 184.851562 135.371094 183.597656 C 135.765625 184.042969 136.339844 184.332031 136.984375 184.332031 C 138.175781 184.332031 139.140625 183.363281 139.140625 182.175781 C 139.136719 180.984375 138.175781 180.023438 136.984375 180.023438 Z M 136.984375 180.023438 " fill-opacity="1" fill-rule="nonzero"/></g><path fill="#deb56a" d="M 65.921875 164.65625 C 64.730469 164.65625 63.765625 165.625 63.765625 166.8125 C 63.765625 168.003906 64.734375 168.96875 65.921875 168.96875 C 66.578125 168.96875 67.164062 168.671875 67.5625 168.210938 C 67.589844 168.222656 67.617188 168.234375 67.640625 168.246094 L 68.921875 168.757812 L 70.203125 169.265625 C 70.628906 169.4375 71.070312 169.570312 71.503906 169.726562 L 74.109375 170.617188 L 76.761719 171.382812 C 77.203125 171.5 77.636719 171.652344 78.085938 171.746094 L 79.429688 172.066406 L 80.769531 172.382812 L 81.441406 172.539062 C 81.667969 172.59375 81.894531 172.625 82.121094 172.671875 L 84.835938 173.164062 C 85.0625 173.203125 85.289062 173.25 85.511719 173.285156 L 86.195312 173.371094 L 87.5625 173.554688 L 89.222656 172.660156 C 89.769531 172.355469 90.3125 172.015625 90.847656 171.695312 L 92.429688 170.714844 C 92.949219 170.382812 93.464844 170.074219 93.972656 169.710938 C 94.988281 169.007812 95.972656 168.296875 96.929688 167.59375 C 97.410156 167.25 97.878906 166.859375 98.34375 166.488281 L 99.714844 165.371094 C 103.445312 165.25 107.15625 164.816406 110.808594 164.105469 C 114.082031 163.460938 117.316406 162.597656 120.464844 161.484375 C 120.859375 161.949219 121.449219 162.242188 122.105469 162.242188 C 123.296875 162.242188 124.257812 161.277344 124.257812 160.085938 C 124.257812 158.894531 123.292969 157.933594 122.105469 157.933594 C 120.914062 157.933594 119.949219 158.898438 119.949219 160.085938 C 119.949219 160.230469 119.960938 160.375 119.988281 160.511719 C 119.941406 160.527344 119.898438 160.539062 119.851562 160.558594 L 118.527344 161.011719 L 117.191406 161.417969 C 116.746094 161.550781 116.304688 161.699219 115.851562 161.8125 C 114.949219 162.046875 114.054688 162.3125 113.144531 162.503906 L 111.78125 162.820312 L 110.410156 163.089844 C 106.75 163.796875 103.03125 164.214844 99.292969 164.304688 C 97.511719 165.835938 95.617188 167.210938 93.609375 168.632812 C 92.605469 169.285156 91.578125 169.941406 90.515625 170.59375 L 89.71875 171.085938 C 89.449219 171.246094 89.179688 171.386719 88.910156 171.539062 L 87.265625 172.4375 C 85.5 172.246094 83.757812 171.871094 82.011719 171.5625 C 81.140625 171.382812 80.28125 171.160156 79.414062 170.964844 L 78.117188 170.660156 C 77.6875 170.546875 77.261719 170.414062 76.835938 170.296875 L 74.277344 169.554688 L 71.757812 168.691406 C 71.339844 168.539062 70.914062 168.414062 70.503906 168.246094 L 69.265625 167.75 L 68.035156 167.257812 C 68.0625 167.121094 68.082031 166.976562 68.082031 166.824219 C 68.078125 165.625 67.113281 164.65625 65.921875 164.65625 Z M 65.921875 164.65625 " fill-opacity="1" fill-rule="nonzero"/><path fill="#deb56a" d="M 23.207031 111.3125 C 23.207031 110.121094 22.238281 109.160156 21.050781 109.160156 C 19.863281 109.160156 18.894531 110.125 18.894531 111.3125 C 18.894531 112.476562 19.820312 113.425781 20.976562 113.464844 C 22.902344 121.765625 26.226562 129.726562 30.703125 136.96875 C 31.320312 137.914062 31.910156 138.875 32.542969 139.808594 L 34.511719 142.566406 L 36.601562 145.226562 C 36.941406 145.679688 37.328125 146.089844 37.695312 146.519531 L 38.804688 147.796875 C 41.8125 151.160156 45.105469 154.269531 48.640625 157.078125 C 50.882812 162.523438 53.886719 167.929688 57.660156 173.09375 L 57.777344 173.246094 L 59.019531 173.882812 L 59.640625 174.199219 L 62.824219 175.644531 L 63.464844 175.929688 L 64.113281 176.1875 L 65.414062 176.707031 L 66.714844 177.21875 L 67.367188 177.476562 C 67.585938 177.554688 67.808594 177.628906 68.027344 177.707031 C 69.792969 178.304688 71.550781 178.9375 73.355469 179.414062 L 74.703125 179.796875 C 75.152344 179.921875 75.597656 180.0625 76.054688 180.160156 L 77.820312 180.570312 C 77.835938 181.746094 78.792969 182.695312 79.972656 182.695312 C 81.164062 182.695312 82.128906 181.730469 82.128906 180.542969 C 82.128906 179.351562 81.164062 178.386719 79.972656 178.386719 C 79.148438 178.386719 78.433594 178.851562 78.070312 179.527344 C 71.339844 177.957031 64.773438 175.636719 58.625 172.476562 C 54.839844 167.316406 51.832031 161.910156 49.59375 156.460938 L 48.378906 155.503906 C 47.976562 155.183594 47.597656 154.835938 47.203125 154.503906 L 46.03125 153.492188 L 45.445312 152.984375 C 45.253906 152.808594 45.070312 152.628906 44.886719 152.453125 L 42.644531 150.320312 L 40.507812 148.082031 C 37.71875 145.039062 35.164062 141.785156 32.871094 138.351562 C 36.949219 139.824219 40.953125 140.9375 44.972656 141.582031 C 50.367188 147.742188 56.835938 152.964844 64.015625 156.894531 C 70.964844 160.683594 78.554688 163.261719 86.367188 164.523438 C 86.511719 165.574219 87.414062 166.382812 88.5 166.382812 C 89.691406 166.382812 90.65625 165.414062 90.65625 164.226562 C 90.65625 163.035156 89.691406 162.070312 88.5 162.070312 C 87.582031 162.070312 86.796875 162.644531 86.488281 163.457031 C 78.78125 162.207031 71.296875 159.65625 64.445312 155.90625 C 57.347656 152.015625 50.96875 146.828125 45.65625 140.726562 L 45.523438 140.574219 C 41.019531 139.824219 36.390625 138.574219 31.839844 136.742188 C 27.3125 129.519531 23.957031 121.550781 22.027344 113.238281 C 22.726562 112.878906 23.207031 112.15625 23.207031 111.3125 Z M 23.207031 111.3125 " fill-opacity="1" fill-rule="nonzero"/><g clip-path="url(#82f62ae80a)"><path fill="#deb56a" d="M 1.914062 89.566406 C 1.234375 99.644531 2.226562 109.824219 4.707031 119.664062 C 6.035156 124.734375 7.769531 129.703125 9.886719 134.492188 L 10.699219 136.285156 L 11.105469 137.179688 L 11.546875 138.054688 C 12.144531 139.222656 12.730469 140.390625 13.351562 141.546875 L 15.308594 144.953125 L 15.554688 145.378906 L 15.816406 145.792969 L 16.34375 146.621094 L 16.644531 147.082031 C 16.21875 147.476562 15.953125 148.035156 15.953125 148.660156 C 15.953125 149.851562 16.921875 150.816406 18.109375 150.816406 C 19.296875 150.816406 20.265625 149.847656 20.265625 148.660156 C 20.265625 147.46875 19.296875 146.503906 18.109375 146.503906 C 17.929688 146.503906 17.757812 146.53125 17.59375 146.570312 L 16.664062 145.117188 C 16.128906 144.253906 15.636719 143.363281 15.125 142.488281 L 14.371094 141.167969 C 14.113281 140.730469 13.894531 140.269531 13.660156 139.824219 L 12.273438 137.113281 C 10.539062 133.441406 8.929688 129.703125 7.675781 125.835938 C 8.492188 126.277344 9.300781 126.710938 10.109375 127.125 L 10.714844 127.4375 L 11.335938 127.738281 L 12.578125 128.320312 C 13.402344 128.703125 14.226562 129.070312 15.042969 129.425781 L 16.265625 129.949219 C 16.679688 130.113281 17.101562 130.277344 17.519531 130.4375 C 22.492188 141.800781 29.867188 152.105469 39.097656 160.371094 C 38.953125 160.660156 38.871094 160.988281 38.871094 161.332031 C 38.871094 162.523438 39.839844 163.488281 41.027344 163.488281 C 42.21875 163.488281 43.183594 162.519531 43.183594 161.332031 C 43.183594 160.140625 42.214844 159.175781 41.027344 159.175781 C 40.566406 159.175781 40.136719 159.324219 39.789062 159.570312 L 39.75 159.539062 C 39.445312 159.28125 39.167969 158.996094 38.878906 158.722656 L 37.148438 157.078125 C 36.5625 156.539062 36.027344 155.953125 35.472656 155.378906 L 33.832031 153.652344 C 33.300781 153.058594 32.78125 152.453125 32.261719 151.855469 L 31.480469 150.953125 C 31.21875 150.652344 30.957031 150.351562 30.714844 150.035156 L 29.242188 148.160156 L 28.503906 147.222656 L 27.8125 146.253906 C 24.074219 141.101562 20.894531 135.546875 18.363281 129.699219 L 18.226562 129.394531 C 16.367188 128.652344 14.507812 127.832031 12.617188 126.953125 C 10.777344 126.050781 8.9375 125.074219 7.070312 124.03125 C 5.285156 118.316406 4.050781 112.429688 3.386719 106.492188 C 2.757812 100.894531 2.632812 95.269531 2.988281 89.660156 C 4.003906 89.488281 4.78125 88.605469 4.78125 87.539062 C 4.78125 86.347656 3.8125 85.382812 2.625 85.382812 C 1.433594 85.382812 0.46875 86.347656 0.46875 87.539062 C 0.46875 88.472656 1.070312 89.273438 1.914062 89.566406 Z M 1.914062 89.566406 " fill-opacity="1" fill-rule="nonzero"/></g><path fill="#deb56a" d="M 8.921875 62.4375 C 10.113281 62.4375 11.078125 61.46875 11.078125 60.28125 C 11.078125 59.628906 10.785156 59.046875 10.328125 58.648438 C 15.164062 47.238281 22.324219 36.859375 31.148438 28.210938 C 31.464844 28.398438 31.835938 28.507812 32.234375 28.507812 C 33.425781 28.507812 34.386719 27.539062 34.386719 26.351562 C 34.386719 25.160156 33.421875 24.195312 32.234375 24.195312 C 31.042969 24.195312 30.078125 25.164062 30.078125 26.351562 C 30.078125 26.757812 30.191406 27.132812 30.386719 27.457031 C 21.480469 36.1875 14.257812 46.65625 9.367188 58.171875 C 9.222656 58.140625 9.078125 58.125 8.925781 58.125 C 7.730469 58.125 6.769531 59.09375 6.769531 60.28125 C 6.765625 61.46875 7.730469 62.4375 8.921875 62.4375 Z M 8.921875 62.4375 " fill-opacity="1" fill-rule="nonzero"/><path fill="#deb56a" d="M 47.242188 17.03125 C 48.433594 17.03125 49.394531 16.0625 49.394531 14.875 C 49.394531 14.65625 49.363281 14.453125 49.304688 14.253906 L 50.964844 13.292969 L 52.261719 12.550781 L 53.589844 11.859375 L 56.25 10.496094 C 57.152344 10.074219 58.066406 9.664062 58.972656 9.253906 L 60.335938 8.636719 C 60.792969 8.4375 61.261719 8.261719 61.722656 8.070312 L 64.503906 6.972656 C 65.4375 6.621094 66.390625 6.316406 67.332031 5.988281 C 67.964844 5.777344 68.59375 5.558594 69.230469 5.355469 C 69.609375 5.972656 70.289062 6.386719 71.066406 6.386719 C 72.257812 6.386719 73.222656 5.417969 73.222656 4.230469 C 73.222656 3.039062 72.253906 2.074219 71.066406 2.074219 C 69.878906 2.074219 68.910156 3.042969 68.910156 4.230469 C 68.910156 4.265625 68.914062 4.296875 68.917969 4.332031 C 68.273438 4.535156 67.628906 4.757812 66.988281 4.972656 C 66.035156 5.300781 65.070312 5.609375 64.128906 5.964844 L 61.3125 7.082031 C 60.84375 7.269531 60.371094 7.445312 59.910156 7.648438 L 58.527344 8.273438 C 57.609375 8.6875 56.691406 9.105469 55.777344 9.53125 L 53.085938 10.910156 L 51.738281 11.609375 L 50.429688 12.359375 L 48.742188 13.339844 C 48.355469 12.957031 47.820312 12.722656 47.234375 12.722656 C 46.042969 12.722656 45.078125 13.6875 45.078125 14.875 C 45.085938 16.0625 46.046875 17.03125 47.242188 17.03125 Z M 47.242188 17.03125 " fill-opacity="1" fill-rule="nonzero"/><path fill="#deb56a" d="M 130.730469 8.6875 C 131.417969 8.6875 132.027344 8.363281 132.421875 7.863281 L 133.105469 8.125 L 134.628906 8.78125 L 136.148438 9.441406 C 136.652344 9.667969 137.164062 9.875 137.65625 10.125 L 140.628906 11.589844 C 141.128906 11.828125 141.609375 12.097656 142.09375 12.359375 L 143.542969 13.160156 L 144.992188 13.964844 C 145.464844 14.242188 145.933594 14.535156 146.40625 14.824219 L 147.816406 15.691406 C 148.28125 15.984375 148.761719 16.261719 149.210938 16.578125 L 151.953125 18.441406 C 152.414062 18.746094 152.851562 19.078125 153.292969 19.410156 L 153.480469 19.546875 C 153.339844 19.835938 153.257812 20.152344 153.257812 20.492188 C 153.257812 21.683594 154.226562 22.644531 155.414062 22.644531 C 156.605469 22.644531 157.570312 21.679688 157.570312 20.492188 C 157.570312 19.300781 156.605469 18.335938 155.414062 18.335938 C 154.953125 18.335938 154.527344 18.480469 154.175781 18.730469 L 153.925781 18.539062 C 153.480469 18.207031 153.035156 17.867188 152.566406 17.558594 L 149.800781 15.675781 C 149.34375 15.355469 148.855469 15.078125 148.386719 14.78125 L 146.957031 13.902344 C 146.480469 13.609375 146.007812 13.316406 145.527344 13.03125 L 144.0625 12.21875 L 142.597656 11.410156 C 142.109375 11.140625 141.617188 10.867188 141.117188 10.628906 L 138.109375 9.148438 C 137.609375 8.894531 137.089844 8.683594 136.582031 8.457031 L 135.042969 7.785156 L 133.503906 7.121094 L 132.851562 6.871094 C 132.871094 6.757812 132.882812 6.640625 132.882812 6.523438 C 132.882812 5.332031 131.917969 4.367188 130.726562 4.367188 C 129.535156 4.367188 128.574219 5.332031 128.574219 6.523438 C 128.574219 7.71875 129.539062 8.6875 130.730469 8.6875 Z M 130.730469 8.6875 " fill-opacity="1" fill-rule="nonzero"/><g clip-path="url(#86a7561a20)"><path fill="#deb56a" d="M 154.996094 30.542969 C 154.769531 30.335938 154.546875 30.132812 154.316406 29.933594 L 153.257812 29.050781 C 152.546875 28.464844 151.847656 27.867188 151.125 27.296875 L 148.917969 25.628906 C 148.546875 25.355469 148.191406 25.066406 147.808594 24.808594 L 146.667969 24.027344 C 143.960938 22.117188 141.097656 20.433594 138.179688 18.859375 C 138.222656 18.691406 138.246094 18.515625 138.246094 18.335938 C 138.246094 17.144531 137.28125 16.179688 136.089844 16.179688 C 134.898438 16.179688 133.9375 17.144531 133.9375 18.335938 C 133.9375 19.527344 134.902344 20.492188 136.089844 20.492188 C 136.714844 20.492188 137.273438 20.222656 137.667969 19.804688 C 140.550781 21.359375 143.378906 23.023438 146.058594 24.914062 L 147.183594 25.683594 C 147.558594 25.9375 147.914062 26.226562 148.28125 26.496094 L 150.457031 28.140625 C 151.167969 28.707031 151.863281 29.296875 152.5625 29.871094 L 153.613281 30.746094 C 153.824219 30.929688 154.027344 31.117188 154.238281 31.304688 C 154.050781 31.625 153.941406 31.996094 153.941406 32.390625 C 153.941406 33.582031 154.910156 34.546875 156.097656 34.546875 C 157.289062 34.546875 158.257812 33.582031 158.257812 32.390625 C 158.257812 31.199219 157.289062 30.238281 156.101562 30.238281 C 155.695312 30.238281 155.320312 30.347656 154.996094 30.542969 Z M 154.996094 30.542969 " fill-opacity="1" fill-rule="nonzero"/></g><path fill="#deb56a" d="M 145.40625 37.136719 C 146.597656 37.136719 147.558594 36.167969 147.558594 34.980469 C 147.558594 33.789062 146.59375 32.824219 145.40625 32.824219 C 145.03125 32.824219 144.675781 32.921875 144.371094 33.089844 C 136.648438 27.25 127.832031 22.855469 118.5 20.230469 C 117.839844 18.5625 117.132812 16.835938 116.335938 15.210938 C 115.941406 14.386719 115.535156 13.554688 115.109375 12.722656 C 114.683594 11.894531 114.25 11.042969 113.789062 10.242188 C 107.425781 9.050781 100.953125 8.550781 94.503906 8.742188 C 94.257812 7.824219 93.421875 7.148438 92.421875 7.148438 C 91.230469 7.148438 90.265625 8.113281 90.265625 9.300781 C 90.265625 10.492188 91.234375 11.457031 92.421875 11.457031 C 93.4375 11.457031 94.285156 10.757812 94.515625 9.820312 C 100.648438 9.628906 106.800781 10.078125 112.855469 11.171875 C 113.777344 12.773438 114.617188 14.453125 115.40625 16.101562 C 115.796875 16.925781 116.175781 17.75 116.539062 18.566406 C 116.898438 19.40625 117.242188 20.25 117.570312 21.085938 C 126.949219 23.632812 135.820312 28 143.582031 33.835938 C 143.375 34.167969 143.253906 34.558594 143.253906 34.976562 C 143.25 36.167969 144.214844 37.136719 145.40625 37.136719 Z M 145.40625 37.136719 " fill-opacity="1" fill-rule="nonzero"/><path fill="#deb56a" d="M 145.742188 44.3125 C 145.347656 44.3125 144.976562 44.421875 144.660156 44.609375 C 138.925781 39.324219 132.320312 35.003906 125.183594 31.898438 C 121.460938 30.277344 117.601562 28.980469 113.65625 28.03125 C 112.664062 27.820312 111.675781 27.574219 110.679688 27.382812 L 107.675781 26.867188 L 104.652344 26.496094 L 104.273438 26.449219 L 103.894531 26.421875 L 103.132812 26.363281 L 102.820312 26.34375 C 102.625 25.355469 101.753906 24.609375 100.707031 24.609375 C 99.515625 24.609375 98.554688 25.574219 98.554688 26.765625 C 98.554688 27.957031 99.519531 28.921875 100.707031 28.921875 C 101.671875 28.921875 102.488281 28.285156 102.765625 27.414062 L 103.042969 27.433594 L 104.167969 27.515625 L 104.542969 27.5625 L 107.519531 27.925781 L 110.472656 28.433594 C 111.453125 28.621094 112.425781 28.863281 113.402344 29.074219 C 117.289062 30.007812 121.085938 31.28125 124.75 32.878906 C 131.765625 35.933594 138.257812 40.175781 143.894531 45.363281 C 143.699219 45.6875 143.585938 46.0625 143.585938 46.46875 C 143.585938 47.660156 144.550781 48.625 145.742188 48.625 C 146.933594 48.625 147.894531 47.65625 147.894531 46.46875 C 147.894531 45.28125 146.933594 44.3125 145.742188 44.3125 Z M 145.742188 44.3125 " fill-opacity="1" fill-rule="nonzero"/><path fill="#deb56a" d="M 47.921875 45.5625 C 46.730469 45.5625 45.765625 46.527344 45.765625 47.714844 C 45.765625 48.90625 46.730469 49.871094 47.921875 49.871094 C 49.113281 49.871094 50.078125 48.90625 50.078125 47.714844 C 50.078125 47.265625 49.9375 46.847656 49.703125 46.503906 C 54.972656 41.40625 61.0625 37.175781 67.640625 33.957031 C 71.0625 32.328125 74.609375 30.976562 78.25 29.917969 C 80.058594 29.363281 81.914062 28.960938 83.761719 28.546875 L 86.5625 28.046875 L 86.914062 27.984375 L 87.265625 27.941406 L 87.96875 27.851562 L 89.382812 27.671875 C 93.667969 30.078125 97.507812 32.871094 100.835938 35.929688 L 103.128906 36.101562 C 103.886719 36.175781 104.644531 36.289062 105.402344 36.375 C 106.164062 36.449219 106.914062 36.601562 107.664062 36.726562 C 108.417969 36.859375 109.171875 36.96875 109.910156 37.160156 C 112.898438 37.765625 115.820312 38.667969 118.667969 39.75 C 124.085938 41.777344 129.164062 44.6875 133.785156 48.195312 C 133.53125 48.550781 133.378906 48.980469 133.378906 49.449219 C 133.378906 50.640625 134.347656 51.605469 135.535156 51.605469 C 136.726562 51.605469 137.691406 50.636719 137.691406 49.449219 C 137.691406 48.257812 136.726562 47.292969 135.535156 47.292969 C 135.214844 47.292969 134.90625 47.367188 134.628906 47.492188 C 132.371094 45.761719 130 44.175781 127.535156 42.753906 L 125.515625 41.636719 L 123.441406 40.613281 C 123.101562 40.433594 122.75 40.285156 122.394531 40.132812 L 121.335938 39.671875 C 120.980469 39.519531 120.632812 39.355469 120.277344 39.210938 L 119.195312 38.804688 C 117.769531 38.21875 116.296875 37.777344 114.835938 37.292969 L 112.609375 36.683594 C 112.425781 36.632812 112.242188 36.574219 112.050781 36.535156 L 111.488281 36.410156 L 110.359375 36.160156 L 109.234375 35.910156 L 108.097656 35.714844 L 106.957031 35.515625 L 106.386719 35.410156 L 105.8125 35.34375 L 103.515625 35.054688 L 101.207031 34.882812 C 97.835938 31.800781 93.945312 28.988281 89.609375 26.558594 L 86.71875 26.925781 L 83.855469 27.441406 C 83.375 27.511719 82.90625 27.632812 82.433594 27.738281 L 81.019531 28.066406 L 79.953125 28.3125 L 79.605469 28.410156 L 78.203125 28.8125 C 74.476562 29.882812 70.832031 31.238281 67.332031 32.917969 C 60.5625 36.199219 54.292969 40.542969 48.886719 45.792969 C 48.601562 45.648438 48.269531 45.5625 47.921875 45.5625 Z M 47.921875 45.5625 " fill-opacity="1" fill-rule="nonzero"/><path fill="#deb56a" d="M 44.082031 63.484375 C 44.082031 64.675781 45.050781 65.640625 46.238281 65.640625 C 47.429688 65.640625 48.394531 64.671875 48.394531 63.484375 C 48.394531 62.921875 48.175781 62.414062 47.828125 62.03125 C 51.773438 56.257812 56.734375 51.171875 62.410156 47.085938 C 65.34375 44.96875 68.46875 43.117188 71.730469 41.566406 C 72.558594 41.203125 73.371094 40.816406 74.199219 40.457031 C 75.039062 40.132812 75.878906 39.800781 76.714844 39.464844 L 79.28125 38.597656 C 79.492188 38.515625 79.710938 38.460938 79.925781 38.398438 L 80.578125 38.214844 L 81.207031 38.035156 C 81.546875 38.773438 82.296875 39.285156 83.164062 39.285156 C 84.355469 39.285156 85.316406 38.320312 85.316406 37.128906 C 85.316406 35.9375 84.351562 34.976562 83.164062 34.976562 C 82.023438 34.976562 81.09375 35.859375 81.011719 36.976562 L 80.28125 37.1875 L 79.617188 37.371094 C 79.394531 37.433594 79.171875 37.492188 78.957031 37.574219 L 76.347656 38.457031 C 75.492188 38.796875 74.640625 39.136719 73.78125 39.464844 C 72.9375 39.832031 72.109375 40.226562 71.265625 40.59375 C 67.945312 42.175781 64.765625 44.058594 61.777344 46.210938 C 55.996094 50.375 50.941406 55.558594 46.921875 61.441406 C 46.707031 61.371094 46.476562 61.328125 46.234375 61.328125 C 45.050781 61.324219 44.082031 62.292969 44.082031 63.484375 Z M 44.082031 63.484375 " fill-opacity="1" fill-rule="nonzero"/><path fill="#deb56a" d="M 138.636719 159.503906 C 137.445312 159.503906 136.480469 160.472656 136.480469 161.660156 C 136.480469 161.894531 136.519531 162.117188 136.585938 162.328125 C 128.234375 167.28125 118.9375 170.636719 109.339844 172.148438 C 108.96875 171.496094 108.269531 171.054688 107.464844 171.054688 C 106.273438 171.054688 105.308594 172.019531 105.308594 173.207031 C 105.308594 174.402344 106.273438 175.363281 107.464844 175.363281 C 108.652344 175.363281 109.617188 174.398438 109.617188 173.207031 C 109.617188 173.203125 109.617188 173.199219 109.617188 173.1875 C 119.324219 171.648438 128.722656 168.246094 137.167969 163.230469 C 137.550781 163.59375 138.070312 163.816406 138.636719 163.816406 C 139.832031 163.816406 140.792969 162.847656 140.792969 161.660156 C 140.792969 160.472656 139.828125 159.503906 138.636719 159.503906 Z M 138.636719 159.503906 " fill-opacity="1" fill-rule="nonzero"/><path fill="#deb56a" d="M 126.453125 150.777344 C 127.644531 150.777344 128.609375 149.8125 128.609375 148.621094 C 128.609375 147.429688 127.640625 146.464844 126.453125 146.464844 C 125.261719 146.464844 124.296875 147.433594 124.296875 148.621094 C 124.296875 148.828125 124.328125 149.023438 124.382812 149.210938 C 117.160156 152.886719 109.210938 155.027344 101.097656 155.519531 L 99.496094 155.605469 L 97.886719 155.628906 C 97.351562 155.65625 96.8125 155.617188 96.277344 155.609375 L 94.667969 155.570312 L 94.265625 155.558594 L 93.867188 155.527344 L 93.066406 155.464844 L 91.46875 155.347656 C 91.199219 155.335938 90.9375 155.289062 90.671875 155.257812 L 89.878906 155.15625 L 88.289062 154.957031 C 84.617188 154.402344 81.011719 153.492188 77.515625 152.261719 C 77.535156 152.144531 77.550781 152.023438 77.550781 151.902344 C 77.550781 150.710938 76.582031 149.746094 75.394531 149.746094 C 74.203125 149.746094 73.238281 150.714844 73.238281 151.902344 C 73.238281 153.09375 74.203125 154.058594 75.394531 154.058594 C 76.078125 154.058594 76.683594 153.742188 77.078125 153.242188 C 80.664062 154.511719 84.363281 155.449219 88.132812 156.019531 L 89.75 156.21875 L 90.554688 156.324219 C 90.824219 156.355469 91.09375 156.40625 91.367188 156.414062 L 92.996094 156.535156 L 93.808594 156.597656 L 94.214844 156.632812 L 94.621094 156.640625 L 96.257812 156.679688 C 96.804688 156.691406 97.351562 156.722656 97.894531 156.703125 L 99.53125 156.675781 L 101.160156 156.589844 C 109.4375 156.085938 117.554688 153.894531 124.921875 150.136719 C 125.316406 150.53125 125.855469 150.777344 126.453125 150.777344 Z M 126.453125 150.777344 " fill-opacity="1" fill-rule="nonzero"/><g clip-path="url(#5f632427f7)"><path fill="#deb56a" d="M 301.207031 38.988281 L 293.664062 38.988281 C 293.398438 38.988281 293.179688 39.203125 293.179688 39.46875 L 293.179688 42.890625 L 224.425781 42.890625 L 212.636719 31.078125 C 212.613281 31.054688 212.566406 31.007812 212.519531 31.007812 C 212.46875 30.984375 212.421875 30.984375 212.375 30.984375 L 185.734375 30.984375 C 185.636719 30.984375 185.542969 31.03125 185.46875 31.078125 L 161.722656 54.847656 L 83.519531 54.847656 L 83.519531 53.5 C 83.519531 53.304688 83.351562 53.136719 83.160156 53.136719 L 79.738281 53.136719 C 79.542969 53.136719 79.375 53.304688 79.375 53.5 L 79.375 56.921875 C 79.375 57.117188 79.542969 57.285156 79.738281 57.285156 L 83.160156 57.285156 C 83.351562 57.285156 83.519531 57.117188 83.519531 56.921875 L 83.519531 55.574219 L 161.867188 55.574219 C 161.964844 55.574219 162.0625 55.523438 162.132812 55.476562 L 185.878906 31.707031 L 193.328125 31.707031 L 204.492188 42.867188 L 185.734375 42.867188 C 185.636719 42.867188 185.542969 42.917969 185.46875 42.964844 L 174.910156 53.523438 C 174.910156 53.523438 174.886719 53.523438 174.886719 53.523438 L 172.71875 53.523438 C 172.523438 53.523438 172.355469 53.691406 172.355469 53.886719 L 172.355469 56.054688 C 172.355469 56.246094 172.523438 56.417969 172.71875 56.417969 L 174.886719 56.417969 C 175.078125 56.417969 175.25 56.246094 175.25 56.054688 L 175.25 54.222656 L 185.878906 43.589844 L 293.179688 43.589844 L 293.179688 47.015625 C 293.179688 47.28125 293.398438 47.496094 293.664062 47.496094 L 301.207031 47.496094 C 301.472656 47.496094 301.691406 47.28125 301.691406 47.015625 L 301.691406 39.46875 C 301.691406 39.203125 301.472656 38.988281 301.207031 38.988281 Z M 82.796875 56.5625 L 80.097656 56.5625 L 80.097656 53.859375 L 82.796875 53.859375 Z M 205.527344 42.867188 L 194.339844 31.707031 L 198.054688 31.707031 L 209.214844 42.867188 Z M 210.25 42.867188 L 199.066406 31.707031 L 202.777344 31.707031 L 213.941406 42.867188 Z M 214.976562 42.867188 L 203.792969 31.707031 L 207.503906 31.707031 L 218.664062 42.867188 Z M 219.703125 42.867188 L 208.515625 31.707031 L 212.230469 31.707031 L 223.390625 42.867188 Z M 219.703125 42.867188 " fill-opacity="1" fill-rule="nonzero"/></g><path fill="#cc0000" d="M 281.289062 155.859375 L 178.117188 155.859375 L 167.089844 144.832031 L 110.234375 144.832031 L 110.234375 143.605469 L 167.578125 143.605469 L 178.605469 154.636719 L 281.289062 154.636719 Z M 281.289062 155.859375 " fill-opacity="1" fill-rule="nonzero"/><g clip-path="url(#1e32ae0c3f)"><path fill="#cc0000" d="M 276.632812 151.449219 L 283.738281 158.554688 L 289.621094 158.554688 L 282.269531 151.449219 Z M 276.632812 151.449219 " fill-opacity="1" fill-rule="nonzero"/></g><g clip-path="url(#63be2fc621)"><path fill="#cc0000" d="M 284.230469 151.449219 L 291.582031 158.554688 L 297.464844 158.554688 L 290.113281 151.449219 Z M 284.230469 151.449219 " fill-opacity="1" fill-rule="nonzero"/></g><g clip-path="url(#24a8184199)"><path fill="#cc0000" d="M 292.074219 151.449219 L 299.425781 158.554688 L 305.0625 158.554688 L 297.953125 151.449219 Z M 292.074219 151.449219 " fill-opacity="1" fill-rule="nonzero"/></g><g clip-path="url(#7e3abf8c7b)"><path fill="#cc0000" d="M 299.914062 151.449219 L 307.023438 158.554688 L 312.902344 158.554688 L 305.550781 151.449219 Z M 299.914062 151.449219 " fill-opacity="1" fill-rule="nonzero"/></g><g clip-path="url(#d8c5f9175e)"><path fill="#cc0000" d="M 307.511719 151.449219 L 314.863281 158.554688 L 320.746094 158.554688 L 313.394531 151.449219 Z M 307.511719 151.449219 " fill-opacity="1" fill-rule="nonzero"/></g><g clip-path="url(#af8733e394)"><path fill="#cc0000" d="M 110.722656 144.34375 C 110.722656 144.667969 110.660156 144.980469 110.535156 145.28125 C 110.410156 145.582031 110.234375 145.84375 110.003906 146.074219 C 109.773438 146.304688 109.511719 146.480469 109.210938 146.605469 C 108.910156 146.730469 108.597656 146.792969 108.273438 146.792969 C 107.945312 146.792969 107.632812 146.730469 107.335938 146.605469 C 107.035156 146.480469 106.769531 146.304688 106.539062 146.074219 C 106.308594 145.84375 106.132812 145.582031 106.007812 145.28125 C 105.882812 144.980469 105.820312 144.667969 105.820312 144.34375 C 105.820312 144.015625 105.882812 143.703125 106.007812 143.40625 C 106.132812 143.105469 106.308594 142.839844 106.539062 142.609375 C 106.769531 142.378906 107.035156 142.203125 107.335938 142.078125 C 107.632812 141.953125 107.945312 141.890625 108.273438 141.890625 C 108.597656 141.890625 108.910156 141.953125 109.210938 142.078125 C 109.511719 142.203125 109.773438 142.378906 110.003906 142.609375 C 110.234375 142.839844 110.410156 143.105469 110.535156 143.40625 C 110.660156 143.703125 110.722656 144.015625 110.722656 144.34375 Z M 110.722656 144.34375 " fill-opacity="1" fill-rule="nonzero"/></g><g clip-path="url(#a887e0eed2)"><path fill="#deb56a" d="M 267.1875 68.367188 L 251.28125 68.367188 L 251.28125 67.570312 L 266.855469 67.570312 L 279.011719 55.410156 L 298.472656 55.410156 L 298.472656 56.210938 L 279.34375 56.210938 Z M 267.1875 68.367188 " fill-opacity="1" fill-rule="nonzero"/></g><g clip-path="url(#68169c4b8e)"><path fill="#deb56a" d="M 320.625 76.804688 L 314.636719 76.804688 L 301.605469 63.773438 L 291.570312 63.773438 L 287.417969 67.925781 L 272.21875 67.925781 L 267.1875 72.917969 L 251.28125 72.917969 L 251.28125 72.117188 L 266.855469 72.117188 L 271.886719 67.125 L 287.085938 67.125 L 291.238281 62.972656 L 301.9375 62.972656 L 314.96875 76.003906 L 320.292969 76.003906 L 339.988281 56.308594 L 340.550781 56.875 Z M 320.625 76.804688 " fill-opacity="1" fill-rule="nonzero"/></g><g clip-path="url(#1e8cf62732)"><path fill="#deb56a" d="M 301.777344 55.828125 C 301.777344 56.078125 301.726562 56.320312 301.632812 56.550781 C 301.535156 56.78125 301.398438 56.988281 301.222656 57.164062 C 301.046875 57.339844 300.84375 57.476562 300.609375 57.574219 C 300.378906 57.667969 300.140625 57.714844 299.890625 57.714844 C 299.640625 57.714844 299.398438 57.667969 299.167969 57.574219 C 298.9375 57.476562 298.734375 57.339844 298.554688 57.164062 C 298.378906 56.988281 298.242188 56.78125 298.148438 56.550781 C 298.050781 56.320312 298.003906 56.078125 298.003906 55.828125 C 298.003906 55.578125 298.050781 55.339844 298.148438 55.109375 C 298.242188 54.878906 298.378906 54.671875 298.554688 54.496094 C 298.734375 54.320312 298.9375 54.183594 299.167969 54.085938 C 299.398438 53.992188 299.640625 53.945312 299.890625 53.945312 C 300.140625 53.945312 300.378906 53.992188 300.609375 54.085938 C 300.84375 54.183594 301.046875 54.320312 301.222656 54.496094 C 301.398438 54.671875 301.535156 54.878906 301.632812 55.109375 C 301.726562 55.339844 301.777344 55.578125 301.777344 55.828125 Z M 301.777344 55.828125 " fill-opacity="1" fill-rule="nonzero"/></g><g clip-path="url(#e0475accb1)"><path fill="#deb56a" d="M 342.144531 56.589844 C 342.144531 56.839844 342.097656 57.078125 342.003906 57.308594 C 341.90625 57.539062 341.769531 57.746094 341.59375 57.921875 C 341.417969 58.097656 341.210938 58.234375 340.980469 58.332031 C 340.75 58.425781 340.511719 58.472656 340.257812 58.472656 C 340.007812 58.472656 339.769531 58.425781 339.539062 58.332031 C 339.308594 58.234375 339.101562 58.097656 338.925781 57.921875 C 338.75 57.746094 338.613281 57.539062 338.515625 57.308594 C 338.421875 57.078125 338.375 56.839844 338.375 56.589844 C 338.375 56.335938 338.421875 56.097656 338.515625 55.867188 C 338.613281 55.636719 338.75 55.429688 338.925781 55.253906 C 339.101562 55.078125 339.308594 54.941406 339.539062 54.84375 C 339.769531 54.75 340.007812 54.703125 340.257812 54.703125 C 340.511719 54.703125 340.75 54.75 340.980469 54.84375 C 341.210938 54.941406 341.417969 55.078125 341.59375 55.253906 C 341.769531 55.429688 341.90625 55.636719 342.003906 55.867188 C 342.097656 56.097656 342.144531 56.335938 342.144531 56.589844 Z M 342.144531 56.589844 " fill-opacity="1" fill-rule="nonzero"/></g><path fill="#deb56a" d="M 315.6875 80.429688 C 315.6875 80.679688 315.640625 80.921875 315.542969 81.152344 C 315.449219 81.382812 315.3125 81.589844 315.136719 81.765625 C 314.957031 81.941406 314.753906 82.078125 314.523438 82.171875 C 314.292969 82.269531 314.050781 82.316406 313.800781 82.316406 C 313.550781 82.316406 313.308594 82.269531 313.078125 82.171875 C 312.847656 82.078125 312.644531 81.941406 312.46875 81.765625 C 312.289062 81.589844 312.152344 81.382812 312.058594 81.152344 C 311.960938 80.921875 311.914062 80.679688 311.914062 80.429688 C 311.914062 80.179688 311.960938 79.941406 312.058594 79.710938 C 312.152344 79.476562 312.289062 79.273438 312.46875 79.097656 C 312.644531 78.921875 312.847656 78.785156 313.078125 78.6875 C 313.308594 78.59375 313.550781 78.546875 313.800781 78.546875 C 314.050781 78.546875 314.292969 78.59375 314.523438 78.6875 C 314.753906 78.785156 314.957031 78.921875 315.136719 79.097656 C 315.3125 79.273438 315.449219 79.476562 315.542969 79.710938 C 315.640625 79.941406 315.6875 80.179688 315.6875 80.429688 Z M 315.6875 80.429688 " fill-opacity="1" fill-rule="nonzero"/><g clip-path="url(#8d42231889)"><path fill="#deb56a" d="M 324.214844 89.378906 C 324.214844 89.628906 324.167969 89.867188 324.074219 90.097656 C 323.976562 90.332031 323.839844 90.535156 323.664062 90.710938 C 323.488281 90.886719 323.28125 91.023438 323.050781 91.121094 C 322.820312 91.214844 322.578125 91.261719 322.328125 91.261719 C 322.078125 91.261719 321.839844 91.214844 321.609375 91.121094 C 321.375 91.023438 321.171875 90.886719 320.996094 90.710938 C 320.820312 90.535156 320.683594 90.332031 320.585938 90.097656 C 320.492188 89.867188 320.445312 89.628906 320.445312 89.378906 C 320.445312 89.128906 320.492188 88.886719 320.585938 88.65625 C 320.683594 88.425781 320.820312 88.21875 320.996094 88.042969 C 321.171875 87.867188 321.375 87.730469 321.609375 87.632812 C 321.839844 87.539062 322.078125 87.492188 322.328125 87.492188 C 322.578125 87.492188 322.820312 87.539062 323.050781 87.632812 C 323.28125 87.730469 323.488281 87.867188 323.664062 88.042969 C 323.839844 88.21875 323.976562 88.425781 324.074219 88.65625 C 324.167969 88.886719 324.214844 89.128906 324.214844 89.378906 Z M 324.214844 89.378906 " fill-opacity="1" fill-rule="nonzero"/></g><g clip-path="url(#043c95b5e2)"><path fill="#deb56a" d="M 313.804688 80.839844 L 289.597656 80.839844 L 280.207031 71.449219 L 275.328125 71.449219 L 269.546875 77.230469 L 251.296875 77.230469 L 251.296875 76.429688 L 269.214844 76.429688 L 274.996094 70.648438 L 280.539062 70.648438 L 289.929688 80.039062 L 313.804688 80.039062 Z M 313.804688 80.839844 " fill-opacity="1" fill-rule="nonzero"/></g><g clip-path="url(#f56869fde6)"><path fill="#deb56a" d="M 320.457031 89.777344 L 305.871094 89.777344 L 299.710938 83.617188 L 294.015625 83.617188 L 290.300781 87.332031 L 278.445312 87.332031 L 272.378906 81.265625 L 251.28125 81.265625 L 251.28125 80.46875 L 272.710938 80.46875 L 278.777344 86.53125 L 289.96875 86.53125 L 293.683594 82.816406 L 300.042969 82.816406 L 306.199219 88.976562 L 320.457031 88.976562 Z M 320.457031 89.777344 " fill-opacity="1" fill-rule="nonzero"/></g><g transform="matrix(1, 0, 0, 1, 108, 57)"><g clip-path="url(#5fffc77760)"><g clip-path="url(#f4c76c9740)"><g fill="#cc0000" fill-opacity="1"><g transform="translate(55.435878, 9.857184)"><g><path d="M -12.109375 68.203125 C -15.398438 68.203125 -18.890625 67.972656 -22.578125 67.515625 C -26.273438 67.054688 -29.859375 66.175781 -33.328125 64.875 C -36.796875 63.570312 -39.9375 61.664062 -42.75 59.15625 C -45.5625 56.65625 -47.804688 53.375 -49.484375 49.3125 C -51.160156 45.25 -52 40.175781 -52 34.09375 C -52 28.238281 -51.175781 23.304688 -49.53125 19.296875 C -47.882812 15.296875 -45.664062 12.03125 -42.875 9.5 C -40.09375 6.976562 -36.953125 5.019531 -33.453125 3.625 C -29.960938 2.226562 -26.382812 1.273438 -22.71875 0.765625 C -19.050781 0.253906 -15.515625 0 -12.109375 0 L -0.9375 0 C -0.3125 0 0 0.253906 0 0.765625 L 0 27.53125 L -13.046875 27.53125 L -13.046875 12.53125 C -14.691406 12.476562 -16.625 12.519531 -18.84375 12.65625 C -21.0625 12.800781 -23.332031 13.226562 -25.65625 13.9375 C -27.988281 14.644531 -30.160156 15.765625 -32.171875 17.296875 C -34.191406 18.835938 -35.8125 20.972656 -37.03125 23.703125 C -38.257812 26.429688 -38.875 29.894531 -38.875 34.09375 C -38.875 39.5 -37.75 43.832031 -35.5 47.09375 C -33.257812 50.363281 -30.191406 52.691406 -26.296875 54.078125 C -22.398438 55.472656 -17.984375 56.03125 -13.046875 55.75 L -13.046875 40.671875 L 0 40.671875 L 0 67.4375 C 0 67.945312 -0.3125 68.203125 -0.9375 68.203125 Z M -12.109375 68.203125 "/></g></g></g></g></g></g><path stroke-linecap="butt" transform="matrix(0.747115, 0, 0, 0.747115, 216.427149, 66.5902)" fill="none" stroke-linejoin="miter" d="M -0.00183077 10.498237 L 46.646339 10.498237 " stroke="#deb56a" stroke-width="21" stroke-opacity="1" stroke-miterlimit="4"/><path stroke-linecap="butt" transform="matrix(0.747111, 0.0025549, -0.0025549, 0.747111, 216.453983, 93.911593)" fill="none" stroke-linejoin="miter" d="M -0.00183381 10.502087 L 63.477059 10.499376 " stroke="#deb56a" stroke-width="21" stroke-opacity="1" stroke-miterlimit="4"/><g clip-path="url(#f193c069c9)"><path stroke-linecap="butt" transform="matrix(0.747115, -0.000917435, 0.000917435, 0.747115, 216.417533, 121.557232)" fill="none" stroke-linejoin="miter" d="M -0.00185472 10.500543 L 46.646351 10.500313 " stroke="#deb56a" stroke-width="21" stroke-opacity="1" stroke-miterlimit="4"/></g><g clip-path="url(#283ead6a49)"><path stroke-linecap="butt" transform="matrix(0.747087, 0.00654668, -0.00654668, 0.747087, 64.939995, 66.595584)" fill="none" stroke-linejoin="miter" d="M -0.000198564 10.501892 L 54.81168 10.502614 " stroke="#cc0000" stroke-width="21" stroke-opacity="1" stroke-miterlimit="4"/></g><path stroke-linecap="butt" transform="matrix(0.747115, 0, 0, 0.747115, 64.871253, 94.073718)" fill="none" stroke-linejoin="miter" d="M -0.000212941 10.499384 L 66.380101 10.499384 " stroke="#cc0000" stroke-width="21" stroke-opacity="1" stroke-miterlimit="4"/><path stroke-linecap="butt" transform="matrix(0.747115, 0, 0, 0.747115, 64.871253, 121.87836)" fill="none" stroke-linejoin="miter" d="M -0.000212941 10.499445 L 54.809557 10.499445 " stroke="#cc0000" stroke-width="21" stroke-opacity="1" stroke-miterlimit="4"/><g transform="matrix(1, 0, 0, 1, 138, 162)"><g clip-path="url(#c1507f2d27)"><g fill="#deb56a" fill-opacity="1"><g transform="translate(2.052053, 16.963877)"><g><path d="M 9.0625 -13.09375 L 12.171875 -9.984375 L 6.578125 -9.984375 L 6.578125 -0.046875 L 4.09375 -0.046875 L 4.09375 -9.984375 L 1.609375 -9.984375 L -0.875 -12.453125 L -0.875 -12.484375 L 9.0625 -12.484375 Z M 9.0625 -13.09375 "/></g></g></g><g fill="#deb56a" fill-opacity="1"><g transform="translate(14.414762, 16.963877)"><g><path d="M 9.5625 -13.09375 L 9.5625 -12.484375 L 0.875 -12.484375 L 0.875 -12.453125 L 3.359375 -9.984375 L 12.671875 -9.984375 Z M 3.359375 -9.984375 L 0.875 -9.984375 L 0.875 -0.046875 L 12.0625 -0.046875 L 12.0625 -2.53125 L 3.359375 -2.53125 L 3.359375 -5.015625 L 12.0625 -5.015625 L 12.0625 -7.5 L 3.359375 -7.5 Z M 3.359375 -9.984375 "/></g></g></g><g fill="#deb56a" fill-opacity="1"><g transform="translate(27.620794, 16.963877)"><g><path d="M 10.8125 -13.09375 L 10.8125 -12.484375 L 0.875 -12.484375 L 0.875 -12.453125 L 3.359375 -9.984375 L 10.8125 -9.984375 L 10.8125 -0.046875 L 13.296875 -0.046875 L 13.296875 -9.984375 L 13.90625 -9.984375 Z M 3.359375 -9.984375 L 0.875 -9.984375 L 0.875 -0.046875 L 3.359375 -0.046875 Z M 3.359375 -9.984375 "/></g></g></g><g fill="#deb56a" fill-opacity="1"><g transform="translate(42.405806, 16.963877)"><g><path d="M 9.5625 -13.09375 L 9.5625 -12.484375 L 0.875 -12.484375 L 0.875 -12.453125 L 3.359375 -9.984375 L 12.671875 -9.984375 Z M 3.359375 -9.984375 L 0.875 -9.984375 L 0.875 -0.046875 L 12.0625 -0.046875 L 12.0625 -2.53125 L 3.359375 -2.53125 L 3.359375 -5.015625 L 12.0625 -5.015625 L 12.0625 -7.5 L 3.359375 -7.5 Z M 3.359375 -9.984375 "/></g></g></g><g fill="#deb56a" fill-opacity="1"><g transform="translate(55.611838, 16.963877)"><g><path d="M 9.0625 -13.09375 L 12.171875 -9.984375 L 6.578125 -9.984375 L 6.578125 -0.046875 L 4.09375 -0.046875 L 4.09375 -9.984375 L 1.609375 -9.984375 L -0.875 -12.453125 L -0.875 -12.484375 L 9.0625 -12.484375 Z M 9.0625 -13.09375 "/></g></g></g><g fill="#cc0000" fill-opacity="1"><g transform="translate(67.977576, 16.963877)"><g/></g></g><g fill="#cc0000" fill-opacity="1"><g transform="translate(73.934648, 16.963877)"><g><path d="M 0.875 -13.09375 L 3.984375 -9.984375 L 3.359375 -9.984375 L 3.359375 -0.046875 L 0.875 -0.046875 L 0.875 -9.984375 L 2.359375 -9.984375 L 0.875 -11.46875 Z M 0.875 -13.09375 "/></g></g></g><g fill="#cc0000" fill-opacity="1"><g transform="translate(78.779251, 16.963877)"><g><path d="M 10.8125 -13.09375 L 10.8125 -12.484375 L 0.875 -12.484375 L 0.875 -12.453125 L 3.359375 -9.984375 L 10.8125 -9.984375 L 10.8125 -0.046875 L 13.296875 -0.046875 L 13.296875 -9.984375 L 13.90625 -9.984375 Z M 3.359375 -9.984375 L 0.875 -9.984375 L 0.875 -0.046875 L 3.359375 -0.046875 Z M 3.359375 -9.984375 "/></g></g></g><g fill="#cc0000" fill-opacity="1"><g transform="translate(93.564263, 16.963877)"><g/></g></g><g fill="#cc0000" fill-opacity="1"><g transform="translate(99.521335, 16.963877)"><g><path d="M 9.5625 -13.09375 L 9.5625 -12.484375 L 0.875 -12.484375 L 0.875 -12.453125 L 3.359375 -9.984375 L 12.671875 -9.984375 Z M 3.359375 -9.984375 L 0.875 -9.984375 L 0.875 -0.046875 L 12.0625 -0.046875 L 12.0625 -2.53125 L 3.359375 -2.53125 L 3.359375 -5.015625 L 12.0625 -5.015625 L 12.0625 -7.5 L 3.359375 -7.5 Z M 3.359375 -9.984375 "/></g></g></g><g fill="#cc0000" fill-opacity="1"><g transform="translate(112.727367, 16.963877)"><g><path d="M 9.671875 -13.09375 L 9.671875 -7.71875 L 6.640625 -3.21875 L 2.859375 -8.484375 L 2.84375 -9.984375 L 0.359375 -9.984375 L 0.359375 -7.875 L 5.90625 -0.046875 L 7.265625 -0.046875 L 12.171875 -7.25 L 12.15625 -9.984375 L 12.78125 -9.984375 Z M 0.359375 -12.484375 L 0.359375 -12.453125 L 2.84375 -9.984375 L 2.84375 -12.484375 Z M 0.359375 -12.484375 "/></g></g></g><g fill="#cc0000" fill-opacity="1"><g transform="translate(125.825744, 16.963877)"><g><path d="M 10.8125 -13.09375 L 13.90625 -9.984375 L 13.296875 -9.984375 L 13.296875 -0.046875 L 0.875 -0.046875 L 0.875 -9.984375 L 3.359375 -9.984375 L 3.359375 -2.53125 L 10.8125 -2.53125 L 10.8125 -9.984375 L 3.359375 -9.984375 L 0.875 -12.453125 L 0.875 -12.484375 L 10.8125 -12.484375 Z M 10.8125 -13.09375 "/></g></g></g><g fill="#cc0000" fill-opacity="1"><g transform="translate(140.610755, 16.963877)"><g><path d="M 3.359375 -13.09375 L 3.359375 -12.484375 L 0.875 -12.484375 L 0.875 -12.453125 L 3.359375 -9.984375 L 6.46875 -9.984375 Z M 3.359375 -9.984375 L 0.875 -9.984375 L 0.875 -0.046875 L 10.96875 -0.046875 L 10.96875 -2.53125 L 3.359375 -2.53125 Z M 3.359375 -9.984375 "/></g></g></g><g fill="#cc0000" fill-opacity="1"><g transform="translate(151.914833, 16.963877)"><g><path d="M 10.8125 -13.09375 L 10.8125 -2.53125 L 3.359375 -2.53125 L 3.359375 -9.984375 L 0.875 -9.984375 L 0.875 -0.046875 L 13.296875 -0.046875 L 13.296875 -9.984375 L 13.90625 -9.984375 Z M 3.359375 -9.984375 L 3.359375 -12.484375 L 0.875 -12.484375 L 0.875 -12.453125 Z M 3.359375 -9.984375 "/></g></g></g><g fill="#cc0000" fill-opacity="1"><g transform="translate(166.699845, 16.963877)"><g><path d="M 9.0625 -13.09375 L 12.171875 -9.984375 L 6.578125 -9.984375 L 6.578125 -0.046875 L 4.09375 -0.046875 L 4.09375 -9.984375 L 1.609375 -9.984375 L -0.875 -12.453125 L -0.875 -12.484375 L 9.0625 -12.484375 Z M 9.0625 -13.09375 "/></g></g></g><g fill="#cc0000" fill-opacity="1"><g transform="translate(179.062554, 16.963877)"><g><path d="M 0.875 -13.09375 L 3.984375 -9.984375 L 3.359375 -9.984375 L 3.359375 -0.046875 L 0.875 -0.046875 L 0.875 -9.984375 L 2.359375 -9.984375 L 0.875 -11.46875 Z M 0.875 -13.09375 "/></g></g></g><g fill="#cc0000" fill-opacity="1"><g transform="translate(183.907158, 16.963877)"><g><path d="M 10.8125 -13.09375 L 13.90625 -9.984375 L 13.296875 -9.984375 L 13.296875 -0.046875 L 0.875 -0.046875 L 0.875 -9.984375 L 3.359375 -9.984375 L 3.359375 -2.53125 L 10.8125 -2.53125 L 10.8125 -9.984375 L 3.359375 -9.984375 L 0.875 -12.453125 L 0.875 -12.484375 L 10.8125 -12.484375 Z M 10.8125 -13.09375 "/></g></g></g><g fill="#cc0000" fill-opacity="1"><g transform="translate(198.692169, 16.963877)"><g><path d="M 10.8125 -13.09375 L 10.8125 -12.484375 L 0.875 -12.484375 L 0.875 -12.453125 L 3.359375 -9.984375 L 10.8125 -9.984375 L 10.8125 -0.046875 L 13.296875 -0.046875 L 13.296875 -9.984375 L 13.90625 -9.984375 Z M 3.359375 -9.984375 L 0.875 -9.984375 L 0.875 -0.046875 L 3.359375 -0.046875 Z M 3.359375 -9.984375 "/></g></g></g></g></g><g transform="matrix(1, 0, 0, 1, 167, 40)"><g clip-path="url(#b5741276cc)"><g clip-path="url(#73d5283143)"><g fill="#deb56a" fill-opacity="1"><g transform="translate(0.229794, 93.691564)"><g><path d="M 12.109375 -68.1875 C 15.398438 -68.1875 18.890625 -67.957031 22.578125 -67.5 C 26.273438 -67.050781 29.859375 -66.171875 33.328125 -64.859375 C 36.796875 -63.554688 39.9375 -61.65625 42.75 -59.15625 C 45.5625 -56.65625 47.804688 -53.375 49.484375 -49.3125 C 51.160156 -45.25 52 -40.175781 52 -34.09375 C 52 -28.238281 51.171875 -23.304688 49.515625 -19.296875 C 47.867188 -15.296875 45.65625 -12.03125 42.875 -9.5 C 40.09375 -6.96875 36.953125 -5.003906 33.453125 -3.609375 C 29.960938 -2.222656 26.382812 -1.273438 22.71875 -0.765625 C 19.050781 -0.253906 15.515625 0 12.109375 0 L 0.9375 0 C 0.3125 0 0 -0.253906 0 -0.765625 L 0 -27.53125 L 13.046875 -27.53125 L 13.046875 -12.53125 C 14.691406 -12.46875 16.617188 -12.507812 18.828125 -12.65625 C 21.046875 -12.800781 23.320312 -13.226562 25.65625 -13.9375 C 27.988281 -14.644531 30.160156 -15.765625 32.171875 -17.296875 C 34.191406 -18.835938 35.8125 -20.96875 37.03125 -23.6875 C 38.25 -26.414062 38.859375 -29.882812 38.859375 -34.09375 C 38.859375 -39.488281 37.738281 -43.820312 35.5 -47.09375 C 33.257812 -50.363281 30.191406 -52.691406 26.296875 -54.078125 C 22.398438 -55.472656 17.984375 -56.03125 13.046875 -55.75 L 13.046875 -40.65625 L 0 -40.65625 L 0 -67.421875 C 0 -67.929688 0.3125 -68.1875 0.9375 -68.1875 Z M 12.109375 -68.1875 "/></g></g></g></g></g></g><g transform="matrix(1, 0, 0, 1, 260, 53)"><g clip-path="url(#3bd67888df)"><g fill="#cc0000" fill-opacity="1"><g transform="translate(55.452164, 10.202768)"><g><path d="M -38.078125 59.4375 L -52.140625 59.4375 L -29.3125 0.453125 C -29.1875 0.148438 -28.910156 0 -28.484375 0 C -28.054688 0 -27.753906 0.148438 -27.578125 0.453125 L -0.09375 71.953125 C 0.03125 72.253906 0.0195312 72.507812 -0.125 72.71875 C -0.28125 72.9375 -0.539062 73.046875 -0.90625 73.046875 L -13.328125 73.046875 C -13.878906 73.046875 -14.1875 72.863281 -14.25 72.5 L -28.484375 32.6875 Z M -38.078125 59.4375 "/></g></g></g></g></g><g clip-path="url(#0923f47484)"><path fill="#cc0000" d="M 305.183594 95.847656 L 291.539062 95.847656 L 291.539062 95.160156 L 304.898438 95.160156 L 315.328125 84.730469 L 332.019531 84.730469 L 332.019531 85.417969 L 315.613281 85.417969 Z M 305.183594 95.847656 " fill-opacity="1" fill-rule="nonzero"/></g><g clip-path="url(#b7a29c50b8)"><path fill="#cc0000" d="M 351.019531 103.082031 L 345.882812 103.082031 L 334.707031 91.90625 L 326.097656 91.90625 L 322.535156 95.464844 L 309.496094 95.464844 L 305.183594 99.75 L 291.539062 99.75 L 291.539062 99.0625 L 304.898438 99.0625 L 309.214844 94.777344 L 322.253906 94.777344 L 325.8125 91.21875 L 334.992188 91.21875 L 346.167969 102.394531 L 350.734375 102.394531 L 367.628906 85.503906 L 368.113281 85.988281 Z M 351.019531 103.082031 " fill-opacity="1" fill-rule="nonzero"/></g><g clip-path="url(#a66cc2c4bc)"><path fill="#cc0000" d="M 334.851562 85.089844 C 334.851562 85.304688 334.8125 85.511719 334.730469 85.710938 C 334.648438 85.90625 334.53125 86.082031 334.378906 86.234375 C 334.226562 86.386719 334.050781 86.503906 333.855469 86.585938 C 333.65625 86.667969 333.449219 86.707031 333.234375 86.707031 C 333.019531 86.707031 332.8125 86.667969 332.617188 86.585938 C 332.417969 86.503906 332.242188 86.386719 332.089844 86.234375 C 331.9375 86.082031 331.820312 85.90625 331.738281 85.710938 C 331.65625 85.511719 331.617188 85.304688 331.617188 85.089844 C 331.617188 84.875 331.65625 84.667969 331.738281 84.472656 C 331.820312 84.273438 331.9375 84.097656 332.089844 83.945312 C 332.242188 83.796875 332.417969 83.679688 332.617188 83.597656 C 332.8125 83.515625 333.019531 83.472656 333.234375 83.472656 C 333.449219 83.472656 333.65625 83.515625 333.855469 83.597656 C 334.050781 83.679688 334.226562 83.796875 334.378906 83.945312 C 334.53125 84.097656 334.648438 84.273438 334.730469 84.472656 C 334.8125 84.667969 334.851562 84.875 334.851562 85.089844 Z M 334.851562 85.089844 " fill-opacity="1" fill-rule="nonzero"/></g><g clip-path="url(#9501431bf9)"><path fill="#cc0000" d="M 369.480469 85.742188 C 369.480469 85.957031 369.441406 86.160156 369.359375 86.359375 C 369.277344 86.558594 369.160156 86.734375 369.007812 86.886719 C 368.855469 87.035156 368.679688 87.152344 368.484375 87.234375 C 368.285156 87.316406 368.078125 87.359375 367.863281 87.359375 C 367.648438 87.359375 367.441406 87.316406 367.246094 87.234375 C 367.046875 87.152344 366.871094 87.035156 366.71875 86.886719 C 366.566406 86.734375 366.449219 86.558594 366.367188 86.359375 C 366.285156 86.160156 366.246094 85.957031 366.246094 85.742188 C 366.246094 85.527344 366.285156 85.320312 366.367188 85.121094 C 366.449219 84.921875 366.566406 84.75 366.71875 84.597656 C 366.871094 84.445312 367.046875 84.328125 367.246094 84.246094 C 367.441406 84.164062 367.648438 84.125 367.863281 84.125 C 368.078125 84.125 368.285156 84.164062 368.484375 84.246094 C 368.679688 84.328125 368.855469 84.445312 369.007812 84.597656 C 369.160156 84.75 369.277344 84.921875 369.359375 85.121094 C 369.441406 85.320312 369.480469 85.527344 369.480469 85.742188 Z M 369.480469 85.742188 " fill-opacity="1" fill-rule="nonzero"/></g><path fill="#cc0000" d="M 346.785156 106.195312 C 346.785156 106.40625 346.746094 106.613281 346.664062 106.8125 C 346.582031 107.011719 346.464844 107.1875 346.3125 107.335938 C 346.160156 107.488281 345.984375 107.605469 345.785156 107.6875 C 345.589844 107.769531 345.382812 107.8125 345.167969 107.8125 C 344.953125 107.8125 344.746094 107.769531 344.546875 107.6875 C 344.351562 107.605469 344.175781 107.488281 344.023438 107.335938 C 343.871094 107.1875 343.753906 107.011719 343.671875 106.8125 C 343.589844 106.613281 343.550781 106.40625 343.550781 106.195312 C 343.550781 105.980469 343.589844 105.773438 343.671875 105.574219 C 343.753906 105.375 343.871094 105.199219 344.023438 105.050781 C 344.175781 104.898438 344.351562 104.78125 344.546875 104.699219 C 344.746094 104.617188 344.953125 104.574219 345.167969 104.574219 C 345.382812 104.574219 345.589844 104.617188 345.785156 104.699219 C 345.984375 104.78125 346.160156 104.898438 346.3125 105.050781 C 346.464844 105.199219 346.582031 105.375 346.664062 105.574219 C 346.746094 105.773438 346.785156 105.980469 346.785156 106.195312 Z M 346.785156 106.195312 " fill-opacity="1" fill-rule="nonzero"/><g clip-path="url(#d296ff4126)"><path fill="#cc0000" d="M 354.101562 113.867188 C 354.101562 114.082031 354.058594 114.289062 353.976562 114.488281 C 353.894531 114.683594 353.777344 114.859375 353.628906 115.011719 C 353.476562 115.164062 353.300781 115.28125 353.101562 115.363281 C 352.90625 115.445312 352.699219 115.484375 352.484375 115.484375 C 352.269531 115.484375 352.0625 115.445312 351.863281 115.363281 C 351.667969 115.28125 351.492188 115.164062 351.339844 115.011719 C 351.1875 114.859375 351.070312 114.683594 350.988281 114.488281 C 350.90625 114.289062 350.867188 114.082031 350.867188 113.867188 C 350.867188 113.652344 350.90625 113.445312 350.988281 113.246094 C 351.070312 113.050781 351.1875 112.875 351.339844 112.722656 C 351.492188 112.570312 351.667969 112.453125 351.863281 112.371094 C 352.0625 112.289062 352.269531 112.25 352.484375 112.25 C 352.699219 112.25 352.90625 112.289062 353.101562 112.371094 C 353.300781 112.453125 353.476562 112.570312 353.628906 112.722656 C 353.777344 112.875 353.894531 113.050781 353.976562 113.246094 C 354.058594 113.445312 354.101562 113.652344 354.101562 113.867188 Z M 354.101562 113.867188 " fill-opacity="1" fill-rule="nonzero"/></g><g clip-path="url(#7029299185)"><path fill="#cc0000" d="M 345.171875 106.542969 L 324.40625 106.542969 L 316.351562 98.488281 L 312.164062 98.488281 L 307.207031 103.449219 L 291.554688 103.449219 L 291.554688 102.761719 L 306.921875 102.761719 L 311.878906 97.800781 L 316.636719 97.800781 L 324.691406 105.859375 L 345.171875 105.859375 Z M 345.171875 106.542969 " fill-opacity="1" fill-rule="nonzero"/></g><g clip-path="url(#eec14c5471)"><path fill="#cc0000" d="M 350.878906 114.210938 L 338.363281 114.210938 L 333.082031 108.925781 L 328.195312 108.925781 L 325.007812 112.113281 L 314.839844 112.113281 L 309.636719 106.910156 L 291.539062 106.910156 L 291.539062 106.222656 L 309.921875 106.222656 L 315.125 111.425781 L 324.722656 111.425781 L 327.910156 108.238281 L 333.363281 108.238281 L 338.648438 113.523438 L 350.878906 113.523438 Z M 350.878906 114.210938 " fill-opacity="1" fill-rule="nonzero"/></g></svg>