<svg xmlns="http://www.w3.org/2000/svg" xmlns:xlink="http://www.w3.org/1999/xlink" width="606" zoomAndPan="magnify" viewBox="0 0 454.5 219" height="292" preserveAspectRatio="xMidYMid meet" version="1.0"><defs><g/><clipPath id="8997c4f9cc"><path d="M 0 0.121094 L 447 0.121094 L 447 218.878906 L 0 218.878906 Z M 0 0.121094 " clip-rule="nonzero"/></clipPath><clipPath id="3424b6733e"><path d="M 19 0.425781 L 134 0.425781 L 134 120 L 19 120 Z M 19 0.425781 " clip-rule="nonzero"/></clipPath><clipPath id="daa9b6cc90"><path d="M 110 203 L 157 203 L 157 218.574219 L 110 218.574219 Z M 110 203 " clip-rule="nonzero"/></clipPath><clipPath id="4b39944986"><path d="M 0.171875 96 L 49 96 L 49 186 L 0.171875 186 Z M 0.171875 96 " clip-rule="nonzero"/></clipPath><clipPath id="a53f3ac514"><path d="M 151 18 L 178.582031 18 L 178.582031 40 L 151 40 Z M 151 18 " clip-rule="nonzero"/></clipPath><clipPath id="17b9c17f6d"><path d="M 80.59375 35.546875 L 332.566406 35.546875 L 332.566406 65.140625 L 80.59375 65.140625 Z M 80.59375 35.546875 " clip-rule="nonzero"/></clipPath><clipPath id="80d6c47f4c"><path d="M 302 165 L 318 165 L 318 173.972656 L 302 173.972656 Z M 302 165 " clip-rule="nonzero"/></clipPath><clipPath id="59c75655ae"><path d="M 311 165 L 326 165 L 326 173.972656 L 311 173.972656 Z M 311 165 " clip-rule="nonzero"/></clipPath><clipPath id="0e5da281ca"><path d="M 319 165 L 335 165 L 335 173.972656 L 319 173.972656 Z M 319 165 " clip-rule="nonzero"/></clipPath><clipPath id="e9330f670f"><path d="M 328 165 L 344 165 L 344 173.972656 L 328 173.972656 Z M 328 165 " clip-rule="nonzero"/></clipPath><clipPath id="0287fda6be"><path d="M 337 165 L 352.605469 165 L 352.605469 173.972656 L 337 173.972656 Z M 337 165 " clip-rule="nonzero"/></clipPath><clipPath id="4d2507c406"><path d="M 109.089844 154.523438 L 115 154.523438 L 115 161 L 109.089844 161 Z M 109.089844 154.523438 " clip-rule="nonzero"/></clipPath><clipPath id="9121ab100b"><path d="M 4 10 L 63.527344 10 L 63.527344 89 L 4 89 Z M 4 10 " clip-rule="nonzero"/></clipPath><clipPath id="ea9432a7c1"><rect x="0" width="64" y="0" height="117"/></clipPath><clipPath id="1625d7c423"><path d="M 133 40 L 375 40 L 375 218.761719 L 133 218.761719 Z M 133 40 " clip-rule="nonzero"/></clipPath><clipPath id="65e6cae090"><path d="M 0 0.121094 L 210 0.121094 L 210 180 L 0 180 Z M 0 0.121094 " clip-rule="nonzero"/></clipPath><clipPath id="e81e49bb23"><path d="M 0.363281 28 L 60 28 L 60 106 L 0.363281 106 Z M 0.363281 28 " clip-rule="nonzero"/></clipPath><clipPath id="7733c1f12a"><rect x="0" width="64" y="0" height="116"/></clipPath><clipPath id="edf77869e1"><rect x="0" width="65" y="0" height="125"/></clipPath><clipPath id="4d51a81b33"><rect x="0" width="447" y="0" height="219"/></clipPath></defs><g clip-path="url(#8997c4f9cc)"><g transform="matrix(1, 0, 0, 1, 0, 0.000000000000037068)"><g clip-path="url(#4d51a81b33)"><g clip-path="url(#3424b6733e)"><path fill="#deb56a" d="M 33.996094 49.273438 L 34.15625 51.046875 C 34.214844 51.636719 34.265625 52.214844 34.351562 52.808594 C 34.507812 53.988281 34.683594 55.148438 34.863281 56.292969 L 35.148438 58 C 35.25 58.5625 35.378906 59.140625 35.496094 59.703125 L 34.503906 61.253906 L 34.007812 62.03125 C 33.835938 62.289062 33.675781 62.550781 33.523438 62.816406 L 31.6875 66.015625 C 31.113281 67.097656 30.566406 68.199219 30 69.292969 C 29.863281 69.566406 29.714844 69.835938 29.585938 70.117188 L 29.207031 70.957031 L 28.449219 72.632812 C 26.472656 77.132812 24.859375 81.792969 23.632812 86.550781 C 22.421875 91.316406 21.648438 96.183594 21.234375 101.078125 L 21.097656 102.917969 L 21.027344 103.835938 C 21.011719 104.144531 21.007812 104.449219 21 104.757812 L 20.90625 108.441406 L 21 112.125 L 21.027344 113.046875 L 21.097656 113.964844 L 21.171875 114.9375 C 20.242188 115.285156 19.578125 116.175781 19.578125 117.222656 C 19.578125 118.574219 20.671875 119.664062 22.015625 119.664062 C 23.363281 119.664062 24.457031 118.570312 24.457031 117.222656 C 24.457031 116 23.554688 114.988281 22.382812 114.8125 C 21.917969 108.289062 22.160156 101.71875 23.113281 95.25 C 24.148438 88.488281 25.988281 81.855469 28.546875 75.519531 C 31.082031 69.171875 34.453125 63.164062 38.417969 57.597656 L 39.160156 56.550781 C 39.285156 56.375 39.40625 56.195312 39.535156 56.027344 L 39.929688 55.523438 L 41.515625 53.507812 C 42.03125 52.824219 42.601562 52.1875 43.160156 51.539062 L 44.839844 49.597656 L 46.609375 47.742188 C 47.199219 47.121094 47.777344 46.492188 48.410156 45.914062 L 50.265625 44.144531 L 50.625 43.800781 C 50.972656 43.992188 51.375 44.105469 51.804688 44.105469 C 53.152344 44.105469 54.242188 43.011719 54.242188 41.664062 C 54.242188 40.320312 53.148438 39.226562 51.804688 39.226562 C 50.457031 39.226562 49.363281 40.320312 49.363281 41.664062 C 49.363281 42.148438 49.507812 42.59375 49.75 42.976562 C 44.777344 47.503906 40.367188 52.632812 36.535156 58.152344 C 36.355469 57.171875 36.195312 56.175781 36.035156 55.167969 C 35.878906 54.15625 35.730469 53.128906 35.632812 52.121094 C 35.527344 51.105469 35.429688 50.074219 35.34375 49.03125 C 35.261719 47.988281 35.179688 46.929688 35.148438 45.894531 C 38.527344 41.832031 42.28125 38.09375 46.285156 34.65625 C 50.292969 31.21875 54.566406 28.089844 59.070312 25.332031 C 63.59375 22.601562 68.332031 20.226562 73.230469 18.238281 L 75.074219 17.511719 C 75.691406 17.273438 76.304688 17.023438 76.933594 16.820312 L 80.691406 15.550781 L 84.503906 14.46875 C 84.820312 14.378906 85.136719 14.28125 85.457031 14.203125 L 86.421875 13.980469 L 88.355469 13.535156 C 91.191406 9.523438 94.449219 5.699219 98.082031 1.988281 C 98.746094 1.894531 99.414062 1.859375 100.085938 1.800781 L 102.089844 1.652344 L 104.097656 1.507812 L 106.101562 1.449219 L 108.105469 1.402344 L 109.109375 1.382812 C 109.441406 1.371094 109.78125 1.367188 110.113281 1.382812 L 114.125 1.484375 C 114.457031 1.496094 114.792969 1.496094 115.125 1.519531 L 116.128906 1.59375 L 118.132812 1.738281 L 120.132812 1.894531 C 120.800781 1.964844 121.464844 2.050781 122.128906 2.132812 L 124.125 2.378906 C 124.789062 2.46875 125.460938 2.539062 126.117188 2.664062 L 128.886719 3.148438 C 128.980469 4.410156 130.03125 5.40625 131.320312 5.40625 C 132.667969 5.40625 133.757812 4.3125 133.757812 2.96875 C 133.757812 1.625 132.664062 0.53125 131.320312 0.53125 C 130.335938 0.53125 129.488281 1.113281 129.101562 1.953125 L 126.207031 1.445312 C 125.523438 1.316406 124.832031 1.253906 124.144531 1.15625 L 122.078125 0.898438 C 121.386719 0.820312 120.699219 0.71875 120.007812 0.664062 L 117.933594 0.503906 C 116.550781 0.410156 115.167969 0.269531 113.785156 0.257812 L 109.632812 0.152344 L 105.480469 0.246094 C 104.09375 0.257812 102.710938 0.386719 101.328125 0.484375 C 99.945312 0.59375 98.558594 0.675781 97.179688 0.867188 C 95.355469 2.75 93.617188 4.585938 91.992188 6.570312 C 91.175781 7.546875 90.382812 8.519531 89.613281 9.492188 C 88.847656 10.476562 88.113281 11.503906 87.398438 12.503906 L 85.441406 12.957031 C 84.789062 13.101562 84.152344 13.308594 83.507812 13.484375 L 81.578125 14.03125 C 80.933594 14.210938 80.289062 14.390625 79.65625 14.613281 L 75.851562 15.902344 L 72.113281 17.371094 C 67.171875 19.425781 62.394531 21.871094 57.839844 24.675781 C 53.273438 27.460938 48.984375 30.691406 44.953125 34.195312 C 40.925781 37.714844 37.167969 41.535156 33.75 45.652344 C 33.808594 46.871094 33.902344 48.085938 33.996094 49.273438 Z M 33.996094 49.273438 " fill-opacity="1" fill-rule="nonzero"/></g><path fill="#deb56a" d="M 23.546875 63.125 C 23.726562 63.167969 23.914062 63.191406 24.105469 63.191406 C 25.457031 63.191406 26.546875 62.097656 26.546875 60.753906 C 26.546875 59.402344 25.453125 58.3125 24.105469 58.3125 C 22.761719 58.3125 21.667969 59.40625 21.667969 60.753906 C 21.667969 61.46875 21.980469 62.113281 22.472656 62.558594 C 17.25 72.488281 13.75 83.324219 12.144531 94.425781 C 11.300781 100.152344 11.019531 105.941406 11.214844 111.710938 C 11.402344 117.226562 12.039062 122.742188 13.128906 128.167969 C 12.246094 128.535156 11.625 129.40625 11.625 130.421875 C 11.625 131.769531 12.71875 132.859375 14.0625 132.859375 C 15.414062 132.859375 16.503906 131.765625 16.503906 130.421875 C 16.503906 129.167969 15.554688 128.132812 14.335938 127.996094 C 13.25 122.617188 12.613281 117.148438 12.429688 111.671875 C 12.238281 105.972656 12.515625 100.253906 13.351562 94.597656 C 14.929688 83.636719 18.386719 72.933594 23.546875 63.125 Z M 23.546875 63.125 " fill-opacity="1" fill-rule="nonzero"/><path fill="#deb56a" d="M 131.136719 204.625 C 131.550781 205.378906 132.351562 205.890625 133.273438 205.890625 C 134.621094 205.890625 135.714844 204.796875 135.714844 203.449219 C 135.714844 202.101562 134.621094 201.011719 133.273438 201.011719 C 131.929688 201.011719 130.835938 202.101562 130.835938 203.445312 C 127.25 204.246094 123.621094 204.84375 119.96875 205.238281 C 115.914062 205.65625 111.839844 205.84375 107.769531 205.742188 C 106.613281 206.519531 105.433594 207.324219 104.21875 208.078125 C 103.007812 208.804688 101.769531 209.53125 100.503906 210.246094 C 99.234375 210.988281 97.945312 211.625 96.628906 212.28125 L 94.628906 213.257812 L 93.613281 213.742188 C 93.273438 213.902344 92.933594 214.039062 92.589844 214.191406 C 90.335938 213.78125 88.046875 213.410156 85.765625 212.84375 C 85.195312 212.710938 84.621094 212.574219 84.046875 212.441406 C 83.472656 212.300781 82.894531 212.179688 82.324219 212.007812 C 81.179688 211.679688 80.03125 211.351562 78.871094 211.023438 C 74.273438 209.601562 69.609375 207.933594 65.011719 205.769531 C 64.433594 205.503906 63.851562 205.242188 63.269531 204.976562 C 62.699219 204.6875 62.128906 204.394531 61.550781 204.105469 C 60.980469 203.816406 60.40625 203.519531 59.828125 203.222656 C 59.25 202.921875 58.664062 202.640625 58.105469 202.304688 C 56.972656 201.65625 55.832031 200.996094 54.683594 200.335938 C 54.105469 200.015625 53.550781 199.644531 52.988281 199.292969 C 52.421875 198.933594 51.859375 198.570312 51.296875 198.207031 C 50.734375 197.839844 50.15625 197.488281 49.601562 197.101562 C 49.046875 196.714844 48.496094 196.320312 47.9375 195.925781 C 46.832031 195.128906 45.691406 194.363281 44.613281 193.492188 C 43.523438 192.636719 42.417969 191.785156 41.332031 190.894531 C 40.558594 190.226562 39.777344 189.550781 38.996094 188.875 C 39.226562 188.503906 39.367188 188.0625 39.367188 187.589844 C 39.367188 186.238281 38.273438 185.148438 36.925781 185.148438 C 35.582031 185.148438 34.488281 186.242188 34.488281 187.589844 C 34.488281 188.9375 35.582031 190.027344 36.925781 190.027344 C 37.355469 190.027344 37.761719 189.914062 38.113281 189.71875 C 38.933594 190.433594 39.757812 191.144531 40.574219 191.847656 C 41.683594 192.753906 42.808594 193.617188 43.914062 194.488281 C 44.191406 194.703125 44.46875 194.921875 44.746094 195.136719 C 45.019531 195.347656 45.3125 195.546875 45.59375 195.75 C 46.160156 196.15625 46.730469 196.558594 47.292969 196.960938 C 47.859375 197.359375 48.425781 197.761719 48.988281 198.160156 C 49.558594 198.542969 50.140625 198.90625 50.714844 199.277344 C 51.289062 199.644531 51.863281 200.015625 52.433594 200.378906 C 53.003906 200.742188 53.570312 201.109375 54.160156 201.441406 C 55.332031 202.113281 56.492188 202.777344 57.640625 203.441406 C 58.800781 204.085938 59.988281 204.664062 61.148438 205.265625 C 61.734375 205.5625 62.308594 205.867188 62.898438 206.148438 C 63.488281 206.417969 64.078125 206.683594 64.667969 206.953125 C 74.050781 211.289062 83.539062 213.941406 92.722656 215.453125 L 93.054688 215.507812 C 94.4375 214.878906 95.792969 214.226562 97.121094 213.570312 C 97.785156 213.242188 98.441406 212.921875 99.089844 212.582031 L 101.027344 211.507812 C 102.304688 210.78125 103.550781 210.078125 104.773438 209.320312 C 105.992188 208.542969 107.1875 207.757812 108.351562 206.96875 C 112.371094 207.035156 116.398438 206.835938 120.402344 206.410156 C 124.007812 206.023438 127.589844 205.417969 131.136719 204.625 Z M 131.136719 204.625 " fill-opacity="1" fill-rule="nonzero"/><path fill="#deb56a" d="M 77.605469 25.6875 L 75.914062 26.351562 L 75.070312 26.6875 L 74.242188 27.0625 C 73.140625 27.566406 72.03125 28.050781 70.9375 28.570312 L 67.699219 30.230469 C 67.425781 30.359375 67.167969 30.511719 66.902344 30.664062 L 66.113281 31.117188 L 65.089844 31.710938 C 64.652344 31.296875 64.0625 31.042969 63.417969 31.042969 C 62.066406 31.042969 60.976562 32.136719 60.976562 33.480469 C 60.976562 34.832031 62.070312 35.921875 63.417969 35.921875 C 64.765625 35.921875 65.855469 34.828125 65.855469 33.480469 C 65.855469 33.222656 65.816406 32.972656 65.738281 32.738281 L 66.710938 32.179688 L 67.488281 31.730469 C 67.746094 31.582031 68.007812 31.433594 68.273438 31.300781 L 71.464844 29.667969 C 72.542969 29.152344 73.640625 28.675781 74.722656 28.179688 L 75.539062 27.8125 L 76.375 27.480469 L 78.039062 26.824219 C 82.496094 25.109375 87.089844 23.726562 91.765625 22.753906 C 96.449219 21.804688 101.207031 21.230469 105.980469 21.015625 L 109.566406 20.925781 L 113.148438 21.007812 L 114.046875 21.03125 L 114.9375 21.097656 L 116.726562 21.230469 C 116.984375 21.25 117.242188 21.265625 117.5 21.285156 C 117.621094 22.519531 118.664062 23.480469 119.925781 23.480469 C 121.273438 23.480469 122.367188 22.386719 122.367188 21.039062 C 122.367188 19.691406 121.273438 18.601562 119.925781 18.601562 C 118.921875 18.601562 118.054688 19.210938 117.683594 20.082031 C 117.394531 20.058594 117.105469 20.039062 116.820312 20.019531 L 115.011719 19.882812 L 114.105469 19.816406 L 113.195312 19.792969 L 109.5625 19.707031 L 105.929688 19.796875 C 101.085938 20.015625 96.265625 20.601562 91.515625 21.5625 C 86.78125 22.546875 82.125 23.949219 77.605469 25.6875 Z M 77.605469 25.6875 " fill-opacity="1" fill-rule="nonzero"/><path fill="#deb56a" d="M 42.523438 98.992188 C 43.160156 94.4375 44.234375 89.949219 45.792969 85.625 C 45.828125 85.628906 45.867188 85.632812 45.902344 85.632812 C 47.25 85.632812 48.339844 84.539062 48.339844 83.191406 C 48.339844 81.84375 47.246094 80.753906 45.902344 80.753906 C 44.550781 80.753906 43.460938 81.847656 43.460938 83.191406 C 43.460938 84.074219 43.929688 84.84375 44.632812 85.273438 C 41.535156 93.929688 40.253906 103.222656 40.777344 112.464844 C 39.804688 112.785156 39.101562 113.699219 39.101562 114.78125 C 39.101562 116.128906 40.195312 117.222656 41.539062 117.222656 C 42.886719 117.222656 43.980469 116.128906 43.980469 114.78125 C 43.980469 113.585938 43.121094 112.59375 41.988281 112.382812 C 41.738281 107.914062 41.910156 103.40625 42.523438 98.992188 Z M 42.523438 98.992188 " fill-opacity="1" fill-rule="nonzero"/><path fill="#deb56a" d="M 30.914062 106.914062 L 30.878906 108.226562 C 30.863281 108.664062 30.894531 109.105469 30.898438 109.542969 L 30.964844 112.167969 C 30.964844 112.609375 31.019531 113.042969 31.046875 113.480469 L 31.148438 114.792969 C 31.238281 116.542969 31.511719 118.269531 31.722656 120.007812 C 31.765625 120.445312 31.851562 120.875 31.929688 121.304688 L 32.160156 122.597656 C 32.320312 123.453125 32.441406 124.324219 32.660156 125.171875 L 33.25 127.726562 C 33.335938 128.15625 33.464844 128.574219 33.585938 128.992188 L 33.941406 130.253906 C 34.378906 131.949219 34.996094 133.585938 35.539062 135.25 C 35.828125 136.074219 36.175781 136.878906 36.484375 137.695312 L 36.964844 138.914062 C 37.121094 139.324219 37.320312 139.710938 37.496094 140.113281 L 38.574219 142.507812 C 38.960938 143.289062 39.367188 144.0625 39.765625 144.847656 L 39.867188 145.050781 C 41.023438 145.566406 42.238281 146.007812 43.425781 146.433594 C 44.613281 146.859375 45.757812 147.273438 46.976562 147.609375 C 48.171875 147.953125 49.335938 148.292969 50.511719 148.582031 C 51.714844 148.855469 52.890625 149.101562 54.050781 149.328125 C 58.535156 155.382812 63.996094 160.730469 70.164062 165.058594 C 70.074219 165.316406 70.019531 165.589844 70.019531 165.878906 C 70.019531 167.226562 71.113281 168.320312 72.460938 168.320312 C 73.808594 168.320312 74.898438 167.222656 74.898438 165.878906 C 74.898438 164.53125 73.804688 163.441406 72.460938 163.441406 C 71.839844 163.441406 71.273438 163.671875 70.84375 164.054688 C 58.445312 155.359375 48.976562 142.445312 44.707031 127.960938 C 45.441406 127.542969 45.9375 126.753906 45.9375 125.84375 C 45.9375 124.496094 44.839844 123.40625 43.496094 123.40625 C 42.148438 123.40625 41.058594 124.5 41.058594 125.84375 C 41.058594 127.191406 42.152344 128.285156 43.496094 128.285156 C 43.507812 128.285156 43.519531 128.28125 43.535156 128.28125 C 45.597656 135.289062 48.882812 141.933594 53.0625 147.941406 C 52.550781 147.835938 52.027344 147.730469 51.511719 147.613281 L 49.992188 147.21875 C 48.976562 146.945312 47.933594 146.664062 46.894531 146.34375 C 45.886719 146.011719 44.859375 145.664062 43.820312 145.292969 C 43.308594 145.105469 42.765625 144.925781 42.265625 144.714844 L 40.738281 144.078125 C 39.117188 141.050781 37.816406 137.863281 36.617188 134.648438 L 35.792969 132.210938 L 35.585938 131.597656 C 35.523438 131.394531 35.472656 131.1875 35.410156 130.980469 L 35.0625 129.742188 L 34.710938 128.503906 L 34.535156 127.882812 L 34.390625 127.253906 L 33.8125 124.746094 L 33.664062 124.121094 L 33.554688 123.484375 L 33.332031 122.21875 L 33.105469 120.953125 L 32.988281 120.316406 L 32.90625 119.679688 L 32.582031 117.125 L 32.5 116.484375 C 32.476562 116.273438 32.464844 116.058594 32.449219 115.839844 L 32.355469 114.554688 C 32.042969 111.128906 32.089844 107.675781 32.214844 104.234375 C 32.964844 90.742188 37.238281 77.496094 44.648438 66.191406 C 44.875 66.261719 45.109375 66.300781 45.355469 66.300781 C 46.707031 66.300781 47.796875 65.207031 47.796875 63.859375 C 47.796875 62.511719 46.703125 61.421875 45.355469 61.421875 C 44.007812 61.421875 42.917969 62.515625 42.917969 63.859375 C 42.917969 64.519531 43.183594 65.121094 43.609375 65.5625 C 36.074219 77.066406 31.746094 90.554688 30.992188 104.285156 C 30.949219 105.164062 30.9375 106.039062 30.914062 106.914062 Z M 30.914062 106.914062 " fill-opacity="1" fill-rule="nonzero"/><g clip-path="url(#daa9b6cc90)"><path fill="#deb56a" d="M 154.503906 203.859375 C 153.15625 203.859375 152.066406 204.953125 152.066406 206.296875 C 152.066406 206.480469 152.085938 206.65625 152.125 206.824219 C 148.308594 208.453125 144.777344 209.707031 141.40625 210.746094 C 140.480469 211.019531 139.582031 211.3125 138.675781 211.554688 C 137.773438 211.796875 136.878906 212.03125 135.992188 212.265625 C 135.101562 212.496094 134.214844 212.6875 133.332031 212.894531 C 132.886719 212.996094 132.445312 213.097656 132.003906 213.199219 L 130.671875 213.457031 C 125.78125 214.421875 120.785156 215.101562 115.058594 215.414062 C 114.753906 214.40625 113.824219 213.671875 112.71875 213.671875 C 111.371094 213.671875 110.277344 214.765625 110.277344 216.113281 C 110.277344 217.457031 111.367188 218.550781 112.714844 218.550781 C 113.886719 218.550781 114.867188 217.722656 115.101562 216.625 C 122.003906 216.242188 127.859375 215.386719 133.734375 214.046875 C 134.507812 213.867188 135.289062 213.691406 136.070312 213.5 C 136.847656 213.292969 137.632812 213.085938 138.421875 212.875 C 138.820312 212.765625 139.214844 212.660156 139.613281 212.550781 C 140.011719 212.429688 140.40625 212.3125 140.808594 212.191406 C 141.609375 211.945312 142.421875 211.707031 143.242188 211.445312 C 146.226562 210.46875 149.339844 209.324219 152.679688 207.902344 C 153.125 208.410156 153.777344 208.734375 154.507812 208.734375 C 155.855469 208.734375 156.949219 207.640625 156.949219 206.292969 C 156.945312 204.949219 155.851562 203.859375 154.503906 203.859375 Z M 154.503906 203.859375 " fill-opacity="1" fill-rule="nonzero"/></g><path fill="#deb56a" d="M 74.082031 186.46875 C 72.734375 186.46875 71.644531 187.5625 71.644531 188.910156 C 71.644531 190.257812 72.738281 191.347656 74.082031 191.347656 C 74.824219 191.347656 75.488281 191.015625 75.9375 190.492188 C 75.96875 190.503906 76 190.519531 76.027344 190.53125 L 78.925781 191.6875 C 79.410156 191.878906 79.90625 192.03125 80.398438 192.207031 L 83.347656 193.214844 L 86.347656 194.078125 C 86.851562 194.214844 87.339844 194.382812 87.851562 194.496094 L 89.367188 194.851562 L 90.886719 195.210938 L 91.648438 195.390625 C 91.902344 195.449219 92.160156 195.488281 92.414062 195.539062 L 95.484375 196.097656 C 95.742188 196.140625 96 196.195312 96.253906 196.234375 L 97.027344 196.332031 L 98.574219 196.539062 L 100.453125 195.523438 C 101.070312 195.183594 101.683594 194.796875 102.292969 194.433594 L 104.082031 193.324219 C 104.671875 192.949219 105.253906 192.601562 105.828125 192.191406 C 106.976562 191.390625 108.089844 190.589844 109.175781 189.792969 C 109.714844 189.40625 110.25 188.960938 110.777344 188.542969 L 112.328125 187.277344 C 116.546875 187.136719 120.746094 186.648438 124.878906 185.84375 C 128.585938 185.113281 132.25 184.140625 135.8125 182.878906 C 136.257812 183.402344 136.921875 183.738281 137.664062 183.738281 C 139.015625 183.738281 140.105469 182.644531 140.105469 181.296875 C 140.105469 179.949219 139.011719 178.859375 137.664062 178.859375 C 136.316406 178.859375 135.226562 179.953125 135.226562 181.296875 C 135.226562 181.460938 135.242188 181.621094 135.273438 181.777344 C 135.21875 181.792969 135.167969 181.808594 135.117188 181.828125 L 133.621094 182.34375 L 132.109375 182.804688 C 131.601562 182.953125 131.101562 183.121094 130.589844 183.25 C 129.566406 183.515625 128.554688 183.816406 127.523438 184.03125 L 125.984375 184.390625 L 124.429688 184.695312 C 120.289062 185.496094 116.078125 185.96875 111.847656 186.070312 C 109.832031 187.800781 107.6875 189.359375 105.417969 190.96875 C 104.28125 191.710938 103.117188 192.449219 101.917969 193.191406 L 101.011719 193.742188 C 100.707031 193.925781 100.40625 194.085938 100.097656 194.257812 L 98.238281 195.273438 C 96.238281 195.058594 94.269531 194.632812 92.289062 194.285156 C 91.304688 194.078125 90.332031 193.832031 89.351562 193.609375 L 87.882812 193.261719 C 87.398438 193.132812 86.917969 192.984375 86.433594 192.851562 L 83.539062 192.011719 L 80.6875 191.03125 C 80.214844 190.863281 79.730469 190.722656 79.265625 190.53125 L 77.867188 189.972656 L 76.472656 189.414062 C 76.503906 189.257812 76.523438 189.09375 76.523438 188.925781 C 76.523438 187.5625 75.429688 186.46875 74.082031 186.46875 Z M 74.082031 186.46875 " fill-opacity="1" fill-rule="nonzero"/><path fill="#deb56a" d="M 25.738281 126.097656 C 25.738281 124.75 24.644531 123.660156 23.300781 123.660156 C 21.953125 123.660156 20.859375 124.753906 20.859375 126.097656 C 20.859375 127.414062 21.90625 128.488281 23.214844 128.535156 C 25.394531 137.925781 29.160156 146.9375 34.222656 155.132812 C 34.921875 156.203125 35.589844 157.292969 36.308594 158.347656 L 38.53125 161.46875 L 40.898438 164.480469 C 41.28125 164.992188 41.722656 165.453125 42.136719 165.941406 L 43.390625 167.386719 C 46.796875 171.195312 50.523438 174.710938 54.523438 177.890625 C 57.0625 184.054688 60.460938 190.171875 64.734375 196.015625 L 64.863281 196.1875 L 66.269531 196.910156 L 66.976562 197.269531 L 67.695312 197.597656 L 70.578125 198.90625 L 71.300781 199.226562 L 72.035156 199.519531 L 73.507812 200.105469 L 74.980469 200.6875 L 75.71875 200.976562 C 75.964844 201.066406 76.214844 201.148438 76.464844 201.238281 C 78.464844 201.914062 80.453125 202.628906 82.492188 203.171875 L 84.019531 203.605469 C 84.527344 203.746094 85.03125 203.902344 85.550781 204.011719 L 87.546875 204.476562 C 87.566406 205.8125 88.648438 206.886719 89.984375 206.886719 C 91.332031 206.886719 92.425781 205.792969 92.425781 204.445312 C 92.425781 203.101562 91.332031 202.007812 89.984375 202.007812 C 89.050781 202.007812 88.242188 202.53125 87.832031 203.300781 C 80.214844 201.523438 72.78125 198.894531 65.824219 195.316406 C 61.539062 189.476562 58.136719 183.359375 55.605469 177.191406 L 54.226562 176.109375 C 53.773438 175.746094 53.339844 175.355469 52.894531 174.976562 L 51.570312 173.832031 L 50.910156 173.261719 C 50.691406 173.0625 50.484375 172.859375 50.273438 172.660156 L 47.738281 170.242188 L 45.320312 167.707031 C 42.164062 164.265625 39.269531 160.582031 36.679688 156.699219 C 41.292969 158.363281 45.824219 159.625 50.375 160.355469 C 56.480469 167.324219 63.796875 173.238281 71.921875 177.6875 C 79.789062 181.972656 88.378906 184.890625 97.222656 186.316406 C 97.386719 187.507812 98.402344 188.421875 99.636719 188.421875 C 100.984375 188.421875 102.074219 187.328125 102.074219 185.980469 C 102.074219 184.632812 100.980469 183.542969 99.636719 183.542969 C 98.59375 183.542969 97.707031 184.191406 97.359375 185.109375 C 88.632812 183.695312 80.164062 180.808594 72.410156 176.5625 C 64.378906 172.164062 57.15625 166.289062 51.144531 159.382812 L 50.996094 159.214844 C 45.898438 158.363281 40.660156 156.949219 35.507812 154.878906 C 30.386719 146.699219 26.589844 137.683594 24.40625 128.277344 C 25.195312 127.871094 25.738281 127.050781 25.738281 126.097656 Z M 25.738281 126.097656 " fill-opacity="1" fill-rule="nonzero"/><g clip-path="url(#4b39944986)"><path fill="#deb56a" d="M 1.640625 101.488281 C 0.875 112.894531 1.996094 124.414062 4.804688 135.546875 C 6.304688 141.289062 8.265625 146.910156 10.664062 152.332031 L 11.582031 154.359375 L 12.046875 155.371094 L 12.546875 156.363281 C 13.222656 157.683594 13.882812 159.007812 14.585938 160.316406 L 16.796875 164.167969 L 17.078125 164.648438 L 17.378906 165.117188 L 17.972656 166.054688 L 18.3125 166.582031 C 17.832031 167.027344 17.53125 167.660156 17.53125 168.367188 C 17.53125 169.714844 18.625 170.804688 19.96875 170.804688 C 21.316406 170.804688 22.410156 169.710938 22.410156 168.367188 C 22.410156 167.015625 21.316406 165.925781 19.96875 165.925781 C 19.769531 165.925781 19.570312 165.953125 19.386719 166 L 18.332031 164.355469 C 17.730469 163.378906 17.171875 162.371094 16.59375 161.378906 L 15.738281 159.882812 C 15.445312 159.390625 15.203125 158.871094 14.933594 158.363281 L 13.367188 155.296875 C 11.402344 151.140625 9.582031 146.910156 8.164062 142.53125 C 9.085938 143.035156 10.003906 143.523438 10.917969 143.996094 L 11.601562 144.347656 L 12.308594 144.6875 L 13.710938 145.347656 C 14.644531 145.777344 15.574219 146.195312 16.5 146.597656 L 17.882812 147.1875 C 18.351562 147.375 18.828125 147.558594 19.300781 147.742188 C 24.929688 160.601562 33.277344 172.261719 43.726562 181.617188 C 43.5625 181.945312 43.46875 182.316406 43.46875 182.707031 C 43.46875 184.054688 44.5625 185.144531 45.90625 185.144531 C 47.253906 185.144531 48.347656 184.050781 48.347656 182.707031 C 48.347656 181.359375 47.253906 180.265625 45.90625 180.265625 C 45.386719 180.265625 44.902344 180.433594 44.503906 180.714844 L 44.460938 180.675781 C 44.117188 180.382812 43.804688 180.0625 43.472656 179.753906 L 41.519531 177.894531 C 40.855469 177.285156 40.25 176.621094 39.625 175.96875 L 37.761719 174.015625 C 37.160156 173.34375 36.578125 172.660156 35.988281 171.980469 L 35.101562 170.957031 C 34.808594 170.621094 34.511719 170.28125 34.238281 169.921875 L 32.570312 167.800781 L 31.738281 166.738281 L 30.949219 165.640625 C 26.71875 159.8125 23.125 153.523438 20.257812 146.90625 L 20.101562 146.558594 C 18 145.71875 15.898438 144.792969 13.753906 143.796875 C 11.671875 142.777344 9.589844 141.671875 7.476562 140.492188 C 5.457031 134.023438 4.0625 127.363281 3.308594 120.640625 C 2.597656 114.308594 2.453125 107.941406 2.855469 101.59375 C 4.007812 101.398438 4.886719 100.398438 4.886719 99.191406 C 4.886719 97.84375 3.792969 96.75 2.445312 96.75 C 1.097656 96.75 0.0078125 97.84375 0.0078125 99.191406 C 0.0078125 100.25 0.6875 101.15625 1.640625 101.488281 Z M 1.640625 101.488281 " fill-opacity="1" fill-rule="nonzero"/></g><path fill="#deb56a" d="M 9.570312 70.78125 C 10.921875 70.78125 12.011719 69.6875 12.011719 68.34375 C 12.011719 67.605469 11.679688 66.945312 11.164062 66.496094 C 16.636719 53.582031 24.738281 41.835938 34.726562 32.050781 C 35.085938 32.257812 35.503906 32.382812 35.953125 32.382812 C 37.304688 32.382812 38.394531 31.289062 38.394531 29.941406 C 38.394531 28.59375 37.300781 27.503906 35.953125 27.503906 C 34.605469 27.503906 33.515625 28.597656 33.515625 29.941406 C 33.515625 30.402344 33.644531 30.824219 33.863281 31.195312 C 23.785156 41.074219 15.609375 52.921875 10.074219 65.953125 C 9.914062 65.917969 9.746094 65.902344 9.574219 65.902344 C 8.226562 65.902344 7.136719 67 7.136719 68.34375 C 7.132812 69.6875 8.222656 70.78125 9.570312 70.78125 Z M 9.570312 70.78125 " fill-opacity="1" fill-rule="nonzero"/><path fill="#deb56a" d="M 52.9375 19.394531 C 54.289062 19.394531 55.378906 18.300781 55.378906 16.953125 C 55.378906 16.707031 55.339844 16.476562 55.273438 16.253906 L 57.15625 15.164062 L 58.621094 14.324219 L 60.125 13.542969 L 63.136719 12 C 64.160156 11.523438 65.1875 11.058594 66.21875 10.589844 L 67.761719 9.894531 C 68.277344 9.667969 68.808594 9.46875 69.328125 9.253906 L 72.480469 8.011719 C 73.535156 7.613281 74.613281 7.269531 75.679688 6.898438 C 76.394531 6.660156 77.105469 6.410156 77.824219 6.179688 C 78.257812 6.878906 79.023438 7.347656 79.902344 7.347656 C 81.253906 7.347656 82.34375 6.253906 82.34375 4.90625 C 82.34375 3.558594 81.25 2.46875 79.902344 2.46875 C 78.558594 2.46875 77.464844 3.5625 77.464844 4.90625 C 77.464844 4.945312 77.46875 4.984375 77.472656 5.019531 C 76.742188 5.25 76.015625 5.503906 75.289062 5.746094 C 74.210938 6.121094 73.121094 6.46875 72.050781 6.871094 L 68.863281 8.132812 C 68.335938 8.347656 67.796875 8.546875 67.277344 8.777344 L 65.714844 9.480469 C 64.671875 9.953125 63.632812 10.425781 62.597656 10.90625 L 59.554688 12.46875 L 58.03125 13.257812 L 56.546875 14.109375 L 54.640625 15.214844 C 54.199219 14.785156 53.597656 14.519531 52.933594 14.519531 C 51.585938 14.519531 50.492188 15.613281 50.492188 16.957031 C 50.5 18.300781 51.589844 19.394531 52.9375 19.394531 Z M 52.9375 19.394531 " fill-opacity="1" fill-rule="nonzero"/><path fill="#deb56a" d="M 147.429688 9.949219 C 148.207031 9.949219 148.898438 9.585938 149.34375 9.019531 L 150.117188 9.316406 L 151.839844 10.058594 L 153.558594 10.804688 C 154.128906 11.058594 154.710938 11.296875 155.265625 11.578125 L 158.632812 13.234375 C 159.199219 13.503906 159.742188 13.808594 160.289062 14.109375 L 161.929688 15.015625 L 163.566406 15.921875 C 164.105469 16.242188 164.636719 16.570312 165.167969 16.898438 L 166.765625 17.878906 C 167.292969 18.210938 167.835938 18.523438 168.34375 18.882812 L 171.445312 20.988281 C 171.96875 21.335938 172.464844 21.714844 172.964844 22.085938 L 173.175781 22.246094 C 173.015625 22.566406 172.925781 22.925781 172.925781 23.308594 C 172.925781 24.660156 174.019531 25.75 175.363281 25.75 C 176.710938 25.75 177.804688 24.65625 177.804688 23.308594 C 177.804688 21.964844 176.710938 20.871094 175.363281 20.871094 C 174.84375 20.871094 174.359375 21.039062 173.964844 21.316406 L 173.679688 21.101562 C 173.175781 20.726562 172.671875 20.34375 172.144531 19.992188 L 169.007812 17.863281 C 168.492188 17.496094 167.941406 17.1875 167.410156 16.847656 L 165.792969 15.855469 C 165.253906 15.523438 164.71875 15.191406 164.175781 14.871094 L 162.515625 13.949219 L 160.859375 13.035156 C 160.304688 12.730469 159.75 12.421875 159.183594 12.148438 L 155.777344 10.472656 C 155.214844 10.1875 154.628906 9.945312 154.050781 9.6875 L 152.3125 8.933594 L 150.570312 8.179688 L 149.832031 7.898438 C 149.851562 7.769531 149.863281 7.636719 149.863281 7.5 C 149.863281 6.152344 148.769531 5.0625 147.425781 5.0625 C 146.078125 5.0625 144.988281 6.15625 144.988281 7.5 C 144.988281 8.855469 146.082031 9.949219 147.429688 9.949219 Z M 147.429688 9.949219 " fill-opacity="1" fill-rule="nonzero"/><g clip-path="url(#a53f3ac514)"><path fill="#deb56a" d="M 174.890625 34.6875 C 174.636719 34.453125 174.382812 34.222656 174.125 33.996094 L 172.921875 33 C 172.117188 32.335938 171.324219 31.660156 170.507812 31.011719 L 168.011719 29.125 C 167.589844 28.816406 167.1875 28.488281 166.753906 28.199219 L 165.464844 27.316406 C 162.402344 25.152344 159.160156 23.246094 155.859375 21.464844 C 155.90625 21.273438 155.933594 21.074219 155.933594 20.871094 C 155.933594 19.523438 154.839844 18.429688 153.496094 18.429688 C 152.148438 18.429688 151.054688 19.523438 151.054688 20.871094 C 151.054688 22.21875 152.148438 23.308594 153.496094 23.308594 C 154.199219 23.308594 154.835938 23.007812 155.277344 22.535156 C 158.542969 24.292969 161.746094 26.175781 164.773438 28.316406 L 166.046875 29.1875 C 166.476562 29.472656 166.875 29.800781 167.289062 30.105469 L 169.753906 31.96875 C 170.558594 32.609375 171.34375 33.273438 172.136719 33.929688 L 173.324219 34.914062 C 173.5625 35.125 173.796875 35.335938 174.03125 35.550781 C 173.820312 35.914062 173.699219 36.332031 173.699219 36.78125 C 173.699219 38.128906 174.792969 39.21875 176.136719 39.21875 C 177.484375 39.21875 178.582031 38.128906 178.582031 36.78125 C 178.582031 35.429688 177.488281 34.339844 176.140625 34.339844 C 175.683594 34.339844 175.257812 34.464844 174.890625 34.6875 Z M 174.890625 34.6875 " fill-opacity="1" fill-rule="nonzero"/></g><path fill="#deb56a" d="M 164.035156 42.148438 C 165.382812 42.148438 166.476562 41.054688 166.476562 39.710938 C 166.476562 38.359375 165.382812 37.269531 164.035156 37.269531 C 163.613281 37.269531 163.210938 37.378906 162.867188 37.570312 C 154.125 30.960938 144.148438 25.984375 133.589844 23.015625 C 132.839844 21.128906 132.039062 19.175781 131.140625 17.335938 C 130.691406 16.402344 130.230469 15.460938 129.75 14.519531 C 129.269531 13.582031 128.777344 12.617188 128.253906 11.714844 C 121.054688 10.367188 113.726562 9.796875 106.429688 10.015625 C 106.148438 8.976562 105.203125 8.207031 104.074219 8.207031 C 102.726562 8.207031 101.632812 9.304688 101.632812 10.648438 C 101.632812 11.996094 102.730469 13.085938 104.074219 13.085938 C 105.222656 13.085938 106.179688 12.296875 106.441406 11.234375 C 113.382812 11.019531 120.347656 11.527344 127.199219 12.765625 C 128.242188 14.574219 129.195312 16.476562 130.082031 18.34375 C 130.53125 19.277344 130.957031 20.207031 131.367188 21.136719 C 131.773438 22.082031 132.160156 23.039062 132.535156 23.984375 C 143.152344 26.867188 153.191406 31.808594 161.972656 38.414062 C 161.738281 38.789062 161.601562 39.230469 161.601562 39.707031 C 161.597656 41.054688 162.6875 42.148438 164.035156 42.148438 Z M 164.035156 42.148438 " fill-opacity="1" fill-rule="nonzero"/><path fill="#deb56a" d="M 164.417969 50.273438 C 163.972656 50.273438 163.550781 50.394531 163.195312 50.605469 C 156.707031 44.625 149.226562 39.734375 141.152344 36.21875 C 136.9375 34.382812 132.570312 32.917969 128.101562 31.84375 C 126.980469 31.605469 125.863281 31.328125 124.734375 31.113281 L 121.339844 30.527344 L 117.914062 30.105469 L 117.488281 30.054688 L 117.054688 30.019531 L 116.195312 29.957031 L 115.84375 29.933594 C 115.621094 28.8125 114.632812 27.972656 113.449219 27.972656 C 112.101562 27.972656 111.011719 29.066406 111.011719 30.410156 C 111.011719 31.757812 112.105469 32.851562 113.449219 32.851562 C 114.542969 32.851562 115.464844 32.132812 115.777344 31.148438 L 116.09375 31.167969 L 116.945312 31.226562 L 117.367188 31.261719 L 117.789062 31.3125 L 121.160156 31.726562 L 124.503906 32.300781 C 125.613281 32.515625 126.710938 32.789062 127.816406 33.023438 C 132.214844 34.082031 136.515625 35.523438 140.660156 37.328125 C 148.597656 40.789062 155.949219 45.585938 162.324219 51.460938 C 162.105469 51.824219 161.976562 52.253906 161.976562 52.710938 C 161.976562 54.058594 163.070312 55.148438 164.417969 55.148438 C 165.765625 55.148438 166.855469 54.054688 166.855469 52.710938 C 166.855469 51.367188 165.769531 50.273438 164.417969 50.273438 Z M 164.417969 50.273438 " fill-opacity="1" fill-rule="nonzero"/><path fill="#deb56a" d="M 53.710938 51.683594 C 52.359375 51.683594 51.269531 52.777344 51.269531 54.121094 C 51.269531 55.46875 52.363281 56.5625 53.710938 56.5625 C 55.058594 56.5625 56.148438 55.46875 56.148438 54.121094 C 56.148438 53.613281 55.992188 53.140625 55.726562 52.75 C 61.691406 46.980469 68.585938 42.191406 76.023438 38.554688 C 79.898438 36.707031 83.914062 35.175781 88.03125 33.980469 C 90.082031 33.351562 92.183594 32.894531 94.273438 32.429688 L 97.441406 31.863281 L 97.835938 31.792969 L 98.238281 31.742188 L 99.035156 31.640625 L 100.632812 31.4375 C 105.480469 34.160156 109.828125 37.324219 113.59375 40.785156 L 116.1875 40.976562 C 117.050781 41.0625 117.90625 41.191406 118.761719 41.289062 C 119.625 41.371094 120.472656 41.542969 121.324219 41.6875 C 122.175781 41.835938 123.027344 41.960938 123.867188 42.175781 C 127.246094 42.859375 130.554688 43.882812 133.777344 45.105469 C 139.910156 47.402344 145.65625 50.695312 150.882812 54.667969 C 150.597656 55.066406 150.429688 55.550781 150.429688 56.082031 C 150.429688 57.433594 151.523438 58.523438 152.867188 58.523438 C 154.214844 58.523438 155.304688 57.429688 155.304688 56.082031 C 155.304688 54.734375 154.210938 53.644531 152.867188 53.644531 C 152.503906 53.644531 152.152344 53.726562 151.84375 53.871094 C 149.285156 51.910156 146.601562 50.117188 143.8125 48.507812 L 141.527344 47.242188 L 139.179688 46.085938 C 138.792969 45.878906 138.394531 45.710938 137.992188 45.539062 L 136.792969 45.019531 C 136.394531 44.847656 136.003906 44.660156 135.597656 44.496094 L 134.375 44.035156 C 132.761719 43.375 131.09375 42.875 129.4375 42.328125 L 126.921875 41.636719 C 126.710938 41.578125 126.503906 41.511719 126.289062 41.46875 L 125.652344 41.328125 L 124.375 41.046875 L 123.101562 40.757812 L 121.8125 40.539062 L 120.523438 40.3125 L 119.878906 40.195312 L 119.230469 40.117188 L 116.628906 39.792969 L 114.015625 39.597656 C 110.199219 36.109375 105.796875 32.925781 100.890625 30.179688 L 97.621094 30.59375 L 94.378906 31.175781 C 93.835938 31.257812 93.304688 31.390625 92.769531 31.515625 L 91.167969 31.886719 L 90.367188 32.070312 L 89.964844 32.164062 L 89.566406 32.273438 L 87.984375 32.726562 C 83.765625 33.9375 79.636719 35.476562 75.675781 37.375 C 68.015625 41.089844 60.921875 46.007812 54.804688 51.945312 C 54.480469 51.78125 54.105469 51.683594 53.710938 51.683594 Z M 53.710938 51.683594 " fill-opacity="1" fill-rule="nonzero"/><path fill="#deb56a" d="M 49.363281 71.96875 C 49.363281 73.316406 50.460938 74.40625 51.804688 74.40625 C 53.152344 74.40625 54.242188 73.3125 54.242188 71.96875 C 54.242188 71.332031 54 70.757812 53.601562 70.324219 C 58.070312 63.792969 63.683594 58.03125 70.105469 53.410156 C 73.429688 51.011719 76.964844 48.921875 80.65625 47.164062 C 81.59375 46.75 82.511719 46.3125 83.449219 45.910156 C 84.402344 45.539062 85.351562 45.167969 86.296875 44.78125 L 89.199219 43.800781 C 89.4375 43.710938 89.6875 43.648438 89.929688 43.578125 L 90.671875 43.371094 L 91.378906 43.167969 C 91.765625 44 92.613281 44.582031 93.59375 44.582031 C 94.941406 44.582031 96.03125 43.488281 96.03125 42.144531 C 96.03125 40.792969 94.9375 39.703125 93.59375 39.703125 C 92.304688 39.703125 91.25 40.703125 91.160156 41.96875 L 90.332031 42.207031 L 89.578125 42.417969 C 89.328125 42.484375 89.078125 42.550781 88.835938 42.640625 L 85.878906 43.640625 C 84.914062 44.027344 83.949219 44.414062 82.976562 44.785156 C 82.023438 45.199219 81.082031 45.644531 80.128906 46.0625 C 76.375 47.851562 72.773438 49.980469 69.390625 52.417969 C 62.847656 57.128906 57.128906 63 52.582031 69.65625 C 52.335938 69.574219 52.074219 69.527344 51.800781 69.527344 C 50.460938 69.527344 49.363281 70.621094 49.363281 71.96875 Z M 49.363281 71.96875 " fill-opacity="1" fill-rule="nonzero"/><path fill="#deb56a" d="M 156.375 180.636719 C 155.027344 180.636719 153.9375 181.730469 153.9375 183.078125 C 153.9375 183.339844 153.980469 183.59375 154.054688 183.832031 C 144.601562 189.441406 134.082031 193.238281 123.21875 194.945312 C 122.800781 194.207031 122.007812 193.707031 121.097656 193.707031 C 119.746094 193.707031 118.65625 194.800781 118.65625 196.148438 C 118.65625 197.496094 119.75 198.585938 121.097656 198.585938 C 122.441406 198.585938 123.535156 197.492188 123.535156 196.148438 C 123.535156 196.140625 123.535156 196.136719 123.535156 196.125 C 134.519531 194.382812 145.15625 190.53125 154.710938 184.855469 C 155.148438 185.265625 155.734375 185.515625 156.378906 185.515625 C 157.726562 185.515625 158.816406 184.421875 158.816406 183.078125 C 158.816406 181.730469 157.722656 180.636719 156.375 180.636719 Z M 156.375 180.636719 " fill-opacity="1" fill-rule="nonzero"/><path fill="#deb56a" d="M 142.589844 170.761719 C 143.9375 170.761719 145.027344 169.667969 145.027344 168.320312 C 145.027344 166.972656 143.933594 165.882812 142.589844 165.882812 C 141.238281 165.882812 140.148438 166.976562 140.148438 168.320312 C 140.148438 168.554688 140.183594 168.777344 140.242188 168.988281 C 132.070312 173.148438 123.074219 175.570312 113.890625 176.125 L 112.078125 176.222656 L 110.257812 176.253906 C 109.652344 176.28125 109.042969 176.238281 108.4375 176.226562 L 106.617188 176.183594 L 106.160156 176.175781 L 105.707031 176.136719 L 104.804688 176.0625 L 102.992188 175.933594 C 102.691406 175.917969 102.390625 175.867188 102.09375 175.832031 L 101.195312 175.714844 L 99.398438 175.492188 C 95.242188 174.863281 91.15625 173.832031 87.203125 172.441406 C 87.226562 172.308594 87.242188 172.171875 87.242188 172.035156 C 87.242188 170.683594 86.148438 169.59375 84.800781 169.59375 C 83.453125 169.59375 82.363281 170.6875 82.363281 172.035156 C 82.363281 173.382812 83.457031 174.472656 84.800781 174.472656 C 85.574219 174.472656 86.261719 174.113281 86.710938 173.550781 C 90.765625 174.988281 94.953125 176.046875 99.21875 176.691406 L 101.046875 176.917969 L 101.960938 177.039062 C 102.265625 177.078125 102.566406 177.128906 102.878906 177.140625 L 104.722656 177.277344 L 105.644531 177.351562 L 106.101562 177.386719 L 106.5625 177.398438 L 108.414062 177.441406 C 109.03125 177.453125 109.652344 177.492188 110.265625 177.464844 L 112.117188 177.433594 L 113.964844 177.335938 C 123.332031 176.769531 132.515625 174.289062 140.855469 170.035156 C 141.300781 170.484375 141.910156 170.761719 142.589844 170.761719 Z M 142.589844 170.761719 " fill-opacity="1" fill-rule="nonzero"/><g clip-path="url(#17b9c17f6d)"><path fill="#deb56a" d="M 331.664062 44.605469 L 323.125 44.605469 C 322.824219 44.605469 322.578125 44.851562 322.578125 45.152344 L 322.578125 49.023438 L 244.769531 49.023438 L 231.425781 35.65625 C 231.398438 35.628906 231.347656 35.574219 231.292969 35.574219 C 231.238281 35.546875 231.183594 35.546875 231.128906 35.546875 L 200.980469 35.546875 C 200.871094 35.546875 200.761719 35.601562 200.679688 35.65625 L 173.804688 62.558594 L 85.300781 62.558594 L 85.300781 61.027344 C 85.300781 60.8125 85.109375 60.621094 84.890625 60.621094 L 81.015625 60.621094 C 80.796875 60.621094 80.609375 60.8125 80.609375 61.027344 L 80.609375 64.902344 C 80.609375 65.121094 80.796875 65.3125 81.015625 65.3125 L 84.890625 65.3125 C 85.109375 65.3125 85.300781 65.121094 85.300781 64.902344 L 85.300781 63.375 L 173.96875 63.375 C 174.078125 63.375 174.1875 63.320312 174.269531 63.265625 L 201.144531 36.367188 L 209.574219 36.367188 L 222.207031 48.996094 L 200.980469 48.996094 C 200.871094 48.996094 200.761719 49.050781 200.679688 49.105469 L 188.730469 61.054688 C 188.730469 61.054688 188.703125 61.054688 188.703125 61.054688 L 186.246094 61.054688 C 186.027344 61.054688 185.835938 61.246094 185.835938 61.464844 L 185.835938 63.921875 C 185.835938 64.140625 186.027344 64.332031 186.246094 64.332031 L 188.703125 64.332031 C 188.921875 64.332031 189.113281 64.140625 189.113281 63.921875 L 189.113281 61.847656 L 201.144531 49.816406 L 322.578125 49.816406 L 322.578125 53.691406 C 322.578125 53.988281 322.824219 54.234375 323.125 54.234375 L 331.664062 54.234375 C 331.964844 54.234375 332.210938 53.988281 332.210938 53.691406 L 332.210938 45.152344 C 332.210938 44.851562 331.964844 44.605469 331.664062 44.605469 Z M 84.480469 64.492188 L 81.425781 64.492188 L 81.425781 61.4375 L 84.480469 61.4375 Z M 223.378906 48.996094 L 210.71875 36.367188 L 214.921875 36.367188 L 227.554688 48.996094 Z M 228.726562 48.996094 L 216.066406 36.367188 L 220.269531 36.367188 L 232.902344 48.996094 Z M 234.074219 48.996094 L 221.414062 36.367188 L 225.617188 36.367188 L 238.25 48.996094 Z M 239.421875 48.996094 L 226.761719 36.367188 L 230.964844 36.367188 L 243.597656 48.996094 Z M 239.421875 48.996094 " fill-opacity="1" fill-rule="nonzero"/></g><path fill="#cc0000" d="M 307.675781 170.582031 L 190.910156 170.582031 L 178.429688 158.101562 L 114.082031 158.101562 L 114.082031 156.714844 L 178.984375 156.714844 L 191.464844 169.195312 L 307.675781 169.195312 Z M 307.675781 170.582031 " fill-opacity="1" fill-rule="nonzero"/><g clip-path="url(#80d6c47f4c)"><path fill="#cc0000" d="M 302.40625 165.589844 L 310.449219 173.632812 L 317.105469 173.632812 L 308.785156 165.589844 Z M 302.40625 165.589844 " fill-opacity="1" fill-rule="nonzero"/></g><g clip-path="url(#59c75655ae)"><path fill="#cc0000" d="M 311.003906 165.589844 L 319.324219 173.632812 L 325.980469 173.632812 L 317.660156 165.589844 Z M 311.003906 165.589844 " fill-opacity="1" fill-rule="nonzero"/></g><g clip-path="url(#0e5da281ca)"><path fill="#cc0000" d="M 319.878906 165.589844 L 328.199219 173.632812 L 334.578125 173.632812 L 326.535156 165.589844 Z M 319.878906 165.589844 " fill-opacity="1" fill-rule="nonzero"/></g><g clip-path="url(#e9330f670f)"><path fill="#cc0000" d="M 328.753906 165.589844 L 336.796875 173.632812 L 343.453125 173.632812 L 335.132812 165.589844 Z M 328.753906 165.589844 " fill-opacity="1" fill-rule="nonzero"/></g><g clip-path="url(#0287fda6be)"><path fill="#cc0000" d="M 337.351562 165.589844 L 345.671875 173.632812 L 352.328125 173.632812 L 344.007812 165.589844 Z M 337.351562 165.589844 " fill-opacity="1" fill-rule="nonzero"/></g><g clip-path="url(#4d2507c406)"><path fill="#cc0000" d="M 114.636719 157.546875 C 114.636719 157.914062 114.566406 158.265625 114.425781 158.605469 C 114.285156 158.945312 114.085938 159.246094 113.824219 159.507812 C 113.566406 159.765625 113.265625 159.96875 112.925781 160.109375 C 112.585938 160.25 112.230469 160.320312 111.863281 160.320312 C 111.496094 160.320312 111.144531 160.25 110.804688 160.109375 C 110.464844 159.96875 110.164062 159.765625 109.902344 159.507812 C 109.644531 159.246094 109.441406 158.945312 109.300781 158.605469 C 109.160156 158.265625 109.089844 157.914062 109.089844 157.546875 C 109.089844 157.179688 109.160156 156.824219 109.300781 156.484375 C 109.441406 156.144531 109.644531 155.84375 109.902344 155.585938 C 110.164062 155.324219 110.464844 155.125 110.804688 154.984375 C 111.144531 154.84375 111.496094 154.773438 111.863281 154.773438 C 112.230469 154.773438 112.585938 154.84375 112.925781 154.984375 C 113.265625 155.125 113.566406 155.324219 113.824219 155.585938 C 114.085938 155.84375 114.285156 156.144531 114.425781 156.484375 C 114.566406 156.824219 114.636719 157.179688 114.636719 157.546875 Z M 114.636719 157.546875 " fill-opacity="1" fill-rule="nonzero"/></g><g transform="matrix(1, 0, 0, 1, 111, 59)"><g clip-path="url(#ea9432a7c1)"><g clip-path="url(#9121ab100b)"><g fill="#cc0000" fill-opacity="1"><g transform="translate(63.295837, 10.852781)"><g><path d="M -13.703125 77.1875 C -17.429688 77.1875 -21.382812 76.925781 -25.5625 76.40625 C -29.75 75.894531 -33.800781 74.898438 -37.71875 73.421875 C -41.644531 71.941406 -45.195312 69.785156 -48.375 66.953125 C -51.5625 64.128906 -54.101562 60.414062 -56 55.8125 C -57.90625 51.21875 -58.859375 45.476562 -58.859375 38.59375 C -58.859375 31.96875 -57.925781 26.382812 -56.0625 21.84375 C -54.195312 17.3125 -51.6875 13.613281 -48.53125 10.75 C -45.375 7.894531 -41.816406 5.675781 -37.859375 4.09375 C -33.910156 2.519531 -29.859375 1.441406 -25.703125 0.859375 C -21.554688 0.285156 -17.554688 0 -13.703125 0 L -1.0625 0 C -0.351562 0 0 0.289062 0 0.875 L 0 31.171875 L -14.765625 31.171875 L -14.765625 14.1875 C -16.628906 14.125 -18.816406 14.171875 -21.328125 14.328125 C -23.835938 14.484375 -26.410156 14.960938 -29.046875 15.765625 C -31.679688 16.578125 -34.140625 17.847656 -36.421875 19.578125 C -38.703125 21.316406 -40.535156 23.726562 -41.921875 26.8125 C -43.304688 29.90625 -44 33.832031 -44 38.59375 C -44 44.707031 -42.726562 49.613281 -40.1875 53.3125 C -37.644531 57.007812 -34.171875 59.644531 -29.765625 61.21875 C -25.359375 62.789062 -20.359375 63.414062 -14.765625 63.09375 L -14.765625 46.015625 L 0 46.015625 L 0 76.3125 C 0 76.894531 -0.351562 77.1875 -1.0625 77.1875 Z M -13.703125 77.1875 "/></g></g></g></g></g></g><path stroke-linecap="butt" transform="matrix(0.84554, 0, 0, 0.84554, 234.268148, 69.550615)" fill="none" stroke-linejoin="miter" d="M 0.00163606 10.501068 L 46.648052 10.501068 " stroke="#deb56a" stroke-width="21" stroke-opacity="1" stroke-miterlimit="4"/><path stroke-linecap="butt" transform="matrix(0.845535, 0.00289148, -0.00289148, 0.845535, 234.298525, 100.471318)" fill="none" stroke-linejoin="miter" d="M 0.00160936 10.497891 L 63.478432 10.497952 " stroke="#deb56a" stroke-width="21" stroke-opacity="1" stroke-miterlimit="4"/><g clip-path="url(#1625d7c423)"><path stroke-linecap="butt" transform="matrix(0.845539, -0.0010383, 0.0010383, 0.845539, 234.257261, 131.758984)" fill="none" stroke-linejoin="miter" d="M 0.00161812 10.499496 L 46.648066 10.501338 " stroke="#deb56a" stroke-width="21" stroke-opacity="1" stroke-miterlimit="4"/></g><g clip-path="url(#65e6cae090)"><path stroke-linecap="butt" transform="matrix(0.845507, 0.00740914, -0.00740914, 0.845507, 62.824156, 69.556712)" fill="none" stroke-linejoin="miter" d="M -0.000324634 10.498884 L 54.811435 10.499052 " stroke="#cc0000" stroke-width="21" stroke-opacity="1" stroke-miterlimit="4"/></g><path stroke-linecap="butt" transform="matrix(0.84554, 0, 0, 0.84554, 62.746354, 100.654793)" fill="none" stroke-linejoin="miter" d="M -0.000308135 10.497976 L 66.382018 10.497976 " stroke="#cc0000" stroke-width="21" stroke-opacity="1" stroke-miterlimit="4"/><path stroke-linecap="butt" transform="matrix(0.84554, 0, 0, 0.84554, 62.746354, 132.122422)" fill="none" stroke-linejoin="miter" d="M -0.000308135 10.499301 L 54.809346 10.499301 " stroke="#cc0000" stroke-width="21" stroke-opacity="1" stroke-miterlimit="4"/><g fill="#deb56a" fill-opacity="1"><g transform="translate(180.690187, 196.15109)"><g><path d="M 11.390625 -16.453125 L 15.296875 -12.546875 L 8.265625 -12.546875 L 8.265625 -0.0625 L 5.140625 -0.0625 L 5.140625 -12.546875 L 2.03125 -12.546875 L -1.109375 -15.65625 L -1.109375 -15.6875 L 11.390625 -15.6875 Z M 11.390625 -16.453125 "/></g></g></g><g fill="#deb56a" fill-opacity="1"><g transform="translate(196.237641, 196.15109)"><g><path d="M 12.03125 -16.453125 L 12.03125 -15.6875 L 1.109375 -15.6875 L 1.109375 -15.65625 L 4.21875 -12.546875 L 15.921875 -12.546875 Z M 4.21875 -12.546875 L 1.109375 -12.546875 L 1.109375 -0.0625 L 15.15625 -0.0625 L 15.15625 -3.1875 L 4.21875 -3.1875 L 4.21875 -6.296875 L 15.15625 -6.296875 L 15.15625 -9.4375 L 4.21875 -9.4375 Z M 4.21875 -12.546875 "/></g></g></g><g fill="#deb56a" fill-opacity="1"><g transform="translate(212.84567, 196.15109)"><g><path d="M 13.578125 -16.453125 L 13.578125 -15.6875 L 1.109375 -15.6875 L 1.109375 -15.65625 L 4.21875 -12.546875 L 13.578125 -12.546875 L 13.578125 -0.0625 L 16.71875 -0.0625 L 16.71875 -12.546875 L 17.484375 -12.546875 Z M 4.21875 -12.546875 L 1.109375 -12.546875 L 1.109375 -0.0625 L 4.21875 -0.0625 Z M 4.21875 -12.546875 "/></g></g></g><g fill="#deb56a" fill-opacity="1"><g transform="translate(231.439432, 196.15109)"><g><path d="M 12.03125 -16.453125 L 12.03125 -15.6875 L 1.109375 -15.6875 L 1.109375 -15.65625 L 4.21875 -12.546875 L 15.921875 -12.546875 Z M 4.21875 -12.546875 L 1.109375 -12.546875 L 1.109375 -0.0625 L 15.15625 -0.0625 L 15.15625 -3.1875 L 4.21875 -3.1875 L 4.21875 -6.296875 L 15.15625 -6.296875 L 15.15625 -9.4375 L 4.21875 -9.4375 Z M 4.21875 -12.546875 "/></g></g></g><g fill="#deb56a" fill-opacity="1"><g transform="translate(248.047461, 196.15109)"><g><path d="M 11.390625 -16.453125 L 15.296875 -12.546875 L 8.265625 -12.546875 L 8.265625 -0.0625 L 5.140625 -0.0625 L 5.140625 -12.546875 L 2.03125 -12.546875 L -1.109375 -15.65625 L -1.109375 -15.6875 L 11.390625 -15.6875 Z M 11.390625 -16.453125 "/></g></g></g><g fill="#cc0000" fill-opacity="1"><g transform="translate(263.605945, 196.15109)"><g/></g></g><g fill="#cc0000" fill-opacity="1"><g transform="translate(271.09761, 196.15109)"><g><path d="M 1.109375 -16.453125 L 5.015625 -12.546875 L 4.21875 -12.546875 L 4.21875 -0.0625 L 1.109375 -0.0625 L 1.109375 -12.546875 L 2.953125 -12.546875 L 1.109375 -14.421875 Z M 1.109375 -16.453125 "/></g></g></g><g fill="#cc0000" fill-opacity="1"><g transform="translate(277.19023, 196.15109)"><g><path d="M 13.578125 -16.453125 L 13.578125 -15.6875 L 1.109375 -15.6875 L 1.109375 -15.65625 L 4.21875 -12.546875 L 13.578125 -12.546875 L 13.578125 -0.0625 L 16.71875 -0.0625 L 16.71875 -12.546875 L 17.484375 -12.546875 Z M 4.21875 -12.546875 L 1.109375 -12.546875 L 1.109375 -0.0625 L 4.21875 -0.0625 Z M 4.21875 -12.546875 "/></g></g></g><g fill="#cc0000" fill-opacity="1"><g transform="translate(295.783992, 196.15109)"><g/></g></g><g fill="#cc0000" fill-opacity="1"><g transform="translate(303.275657, 196.15109)"><g><path d="M 12.03125 -16.453125 L 12.03125 -15.6875 L 1.109375 -15.6875 L 1.109375 -15.65625 L 4.21875 -12.546875 L 15.921875 -12.546875 Z M 4.21875 -12.546875 L 1.109375 -12.546875 L 1.109375 -0.0625 L 15.15625 -0.0625 L 15.15625 -3.1875 L 4.21875 -3.1875 L 4.21875 -6.296875 L 15.15625 -6.296875 L 15.15625 -9.4375 L 4.21875 -9.4375 Z M 4.21875 -12.546875 "/></g></g></g><g fill="#cc0000" fill-opacity="1"><g transform="translate(319.883686, 196.15109)"><g><path d="M 12.15625 -16.453125 L 12.15625 -9.703125 L 8.34375 -4.03125 L 3.59375 -10.671875 L 3.5625 -12.546875 L 0.453125 -12.546875 L 0.453125 -9.90625 L 7.421875 -0.0625 L 9.140625 -0.0625 L 15.296875 -9.109375 L 15.28125 -12.546875 L 16.0625 -12.546875 Z M 0.453125 -15.6875 L 0.453125 -15.65625 L 3.5625 -12.546875 L 3.5625 -15.6875 Z M 0.453125 -15.6875 "/></g></g></g><g fill="#cc0000" fill-opacity="1"><g transform="translate(336.356322, 196.15109)"><g><path d="M 13.578125 -16.453125 L 17.484375 -12.546875 L 16.71875 -12.546875 L 16.71875 -0.0625 L 1.109375 -0.0625 L 1.109375 -12.546875 L 4.21875 -12.546875 L 4.21875 -3.1875 L 13.578125 -3.1875 L 13.578125 -12.546875 L 4.21875 -12.546875 L 1.109375 -15.65625 L 1.109375 -15.6875 L 13.578125 -15.6875 Z M 13.578125 -16.453125 "/></g></g></g><g fill="#cc0000" fill-opacity="1"><g transform="translate(354.950085, 196.15109)"><g><path d="M 4.21875 -16.453125 L 4.21875 -15.6875 L 1.109375 -15.6875 L 1.109375 -15.65625 L 4.21875 -12.546875 L 8.125 -12.546875 Z M 4.21875 -12.546875 L 1.109375 -12.546875 L 1.109375 -0.0625 L 13.78125 -0.0625 L 13.78125 -3.1875 L 4.21875 -3.1875 Z M 4.21875 -12.546875 "/></g></g></g><g fill="#cc0000" fill-opacity="1"><g transform="translate(369.166189, 196.15109)"><g><path d="M 13.578125 -16.453125 L 13.578125 -3.1875 L 4.21875 -3.1875 L 4.21875 -12.546875 L 1.109375 -12.546875 L 1.109375 -0.0625 L 16.71875 -0.0625 L 16.71875 -12.546875 L 17.484375 -12.546875 Z M 4.21875 -12.546875 L 4.21875 -15.6875 L 1.109375 -15.6875 L 1.109375 -15.65625 Z M 4.21875 -12.546875 "/></g></g></g><g fill="#cc0000" fill-opacity="1"><g transform="translate(387.759951, 196.15109)"><g><path d="M 11.390625 -16.453125 L 15.296875 -12.546875 L 8.265625 -12.546875 L 8.265625 -0.0625 L 5.140625 -0.0625 L 5.140625 -12.546875 L 2.03125 -12.546875 L -1.109375 -15.65625 L -1.109375 -15.6875 L 11.390625 -15.6875 Z M 11.390625 -16.453125 "/></g></g></g><g fill="#cc0000" fill-opacity="1"><g transform="translate(403.307405, 196.15109)"><g><path d="M 1.109375 -16.453125 L 5.015625 -12.546875 L 4.21875 -12.546875 L 4.21875 -0.0625 L 1.109375 -0.0625 L 1.109375 -12.546875 L 2.953125 -12.546875 L 1.109375 -14.421875 Z M 1.109375 -16.453125 "/></g></g></g><g fill="#cc0000" fill-opacity="1"><g transform="translate(409.400024, 196.15109)"><g><path d="M 13.578125 -16.453125 L 17.484375 -12.546875 L 16.71875 -12.546875 L 16.71875 -0.0625 L 1.109375 -0.0625 L 1.109375 -12.546875 L 4.21875 -12.546875 L 4.21875 -3.1875 L 13.578125 -3.1875 L 13.578125 -12.546875 L 4.21875 -12.546875 L 1.109375 -15.65625 L 1.109375 -15.6875 L 13.578125 -15.6875 Z M 13.578125 -16.453125 "/></g></g></g><g fill="#cc0000" fill-opacity="1"><g transform="translate(427.993787, 196.15109)"><g><path d="M 13.578125 -16.453125 L 13.578125 -15.6875 L 1.109375 -15.6875 L 1.109375 -15.65625 L 4.21875 -12.546875 L 13.578125 -12.546875 L 13.578125 -0.0625 L 16.71875 -0.0625 L 16.71875 -12.546875 L 17.484375 -12.546875 Z M 4.21875 -12.546875 L 1.109375 -12.546875 L 1.109375 -0.0625 L 4.21875 -0.0625 Z M 4.21875 -12.546875 "/></g></g></g><g transform="matrix(1, 0, 0, 1, 178, 40)"><g clip-path="url(#7733c1f12a)"><g clip-path="url(#e81e49bb23)"><g fill="#deb56a" fill-opacity="1"><g transform="translate(0.58955, 105.491878)"><g><path d="M 13.703125 -77.15625 C 17.429688 -77.15625 21.382812 -76.898438 25.5625 -76.390625 C 29.738281 -75.878906 33.785156 -74.882812 37.703125 -73.40625 C 41.628906 -71.925781 45.179688 -69.769531 48.359375 -66.9375 C 51.546875 -64.101562 54.085938 -60.390625 55.984375 -55.796875 C 57.890625 -51.203125 58.84375 -45.460938 58.84375 -38.578125 C 58.84375 -31.953125 57.90625 -26.375 56.03125 -21.84375 C 54.164062 -17.3125 51.660156 -13.613281 48.515625 -10.75 C 45.367188 -7.894531 41.816406 -5.675781 37.859375 -4.09375 C 33.898438 -2.519531 29.847656 -1.441406 25.703125 -0.859375 C 21.554688 -0.285156 17.554688 0 13.703125 0 L 1.0625 0 C 0.351562 0 0 -0.289062 0 -0.875 L 0 -31.15625 L 14.75 -31.15625 L 14.75 -14.171875 C 16.613281 -14.109375 18.800781 -14.15625 21.3125 -14.3125 C 23.820312 -14.476562 26.394531 -14.960938 29.03125 -15.765625 C 31.664062 -16.566406 34.125 -17.835938 36.40625 -19.578125 C 38.6875 -21.316406 40.519531 -23.726562 41.90625 -26.8125 C 43.289062 -29.894531 43.984375 -33.816406 43.984375 -38.578125 C 43.984375 -44.691406 42.710938 -49.597656 40.171875 -53.296875 C 37.628906 -56.992188 34.15625 -59.628906 29.75 -61.203125 C 25.351562 -62.773438 20.351562 -63.398438 14.75 -63.078125 L 14.75 -46.015625 L 0 -46.015625 L 0 -76.296875 C 0 -76.867188 0.351562 -77.15625 1.0625 -77.15625 Z M 13.703125 -77.15625 "/></g></g></g></g></g></g><g transform="matrix(1, 0, 0, 1, 283, 54)"><g clip-path="url(#edf77869e1)"><g fill="#cc0000" fill-opacity="1"><g transform="translate(63.338642, 11.716934)"><g><path d="M -43.09375 67.28125 L -59.015625 67.28125 L -33.171875 0.515625 C -33.035156 0.171875 -32.722656 0 -32.234375 0 C -31.753906 0 -31.410156 0.171875 -31.203125 0.515625 L -0.109375 81.4375 C 0.0351562 81.78125 0.0234375 82.070312 -0.140625 82.3125 C -0.316406 82.550781 -0.613281 82.671875 -1.03125 82.671875 L -15.09375 82.671875 C -15.707031 82.671875 -16.050781 82.46875 -16.125 82.0625 L -32.25 37 Z M -43.09375 67.28125 "/></g></g></g></g></g></g></g></g></svg>