<svg xmlns="http://www.w3.org/2000/svg" xmlns:xlink="http://www.w3.org/1999/xlink" width="926" zoomAndPan="magnify" viewBox="0 0 694.5 395.249997" height="527" preserveAspectRatio="xMidYMid meet" version="1.0"><defs><g/><clipPath id="d4452d3985"><path d="M 0.40625 31 L 693.59375 31 L 693.59375 368 L 0.40625 368 Z M 0.40625 31 " clip-rule="nonzero"/></clipPath><clipPath id="fcf889e1dd"><path d="M 52.253906 0.519531 L 610.238281 0.519531 L 610.238281 66.949219 L 52.253906 66.949219 Z M 52.253906 0.519531 " clip-rule="nonzero"/></clipPath><clipPath id="02059b1374"><path d="M 662 271 L 693.417969 271 L 693.417969 288 L 662 288 Z M 662 271 " clip-rule="nonzero"/></clipPath><clipPath id="4400533a81"><path d="M 198.535156 249 L 210 249 L 210 261 L 198.535156 261 Z M 198.535156 249 " clip-rule="nonzero"/></clipPath><clipPath id="fab96582d3"><rect x="0" width="140" y="0" height="257"/></clipPath><clipPath id="e32871bdc4"><path d="M 167 0.378906 L 693.59375 0.378906 L 693.59375 336.941406 L 167 336.941406 Z M 167 0.378906 " clip-rule="nonzero"/></clipPath><clipPath id="29bd55bd2e"><path d="M 167 7 L 693.59375 7 L 693.59375 336.941406 L 167 336.941406 Z M 167 7 " clip-rule="nonzero"/></clipPath><clipPath id="192e5dabea"><path d="M 0.40625 0.378906 L 341 0.378906 L 341 322 L 0.40625 322 Z M 0.40625 0.378906 " clip-rule="nonzero"/></clipPath><clipPath id="295b308b6b"><path d="M 0.40625 144 L 158 144 L 158 185 L 0.40625 185 Z M 0.40625 144 " clip-rule="nonzero"/></clipPath><clipPath id="95c68f2118"><path d="M 0.40625 214 L 136 214 L 136 255 L 0.40625 255 Z M 0.40625 214 " clip-rule="nonzero"/></clipPath><clipPath id="36590241c5"><path d="M 11 278 L 606 278 L 606 336.941406 L 11 336.941406 Z M 11 278 " clip-rule="nonzero"/></clipPath><clipPath id="c179c9855e"><rect x="0" width="595" y="0" height="59"/></clipPath><clipPath id="1ce90959dd"><path d="M 0.417969 63 L 131 63 L 131 235 L 0.417969 235 Z M 0.417969 63 " clip-rule="nonzero"/></clipPath><clipPath id="3e5162398c"><rect x="0" width="139" y="0" height="257"/></clipPath><clipPath id="260ada8d2b"><rect x="0" width="142" y="0" height="276"/></clipPath><clipPath id="d793e9dd90"><rect x="0" width="694" y="0" height="337"/></clipPath></defs><g clip-path="url(#d4452d3985)"><g transform="matrix(1, 0, 0, 1, 0.000000000000000056, 31)"><g clip-path="url(#d793e9dd90)"><g clip-path="url(#fcf889e1dd)"><path fill="#deb56a" d="M 608.796875 20.601562 L 589.867188 20.601562 C 589.199219 20.601562 588.65625 21.144531 588.65625 21.8125 L 588.65625 30.398438 L 416.164062 30.398438 L 386.589844 0.761719 C 386.53125 0.703125 386.410156 0.582031 386.289062 0.582031 C 386.167969 0.523438 386.046875 0.523438 385.925781 0.523438 L 319.09375 0.523438 C 318.851562 0.523438 318.609375 0.644531 318.429688 0.761719 L 258.855469 60.398438 L 62.65625 60.398438 L 62.65625 57.011719 C 62.65625 56.527344 62.230469 56.105469 61.746094 56.105469 L 53.160156 56.105469 C 52.675781 56.105469 52.253906 56.527344 52.253906 57.011719 L 52.253906 65.597656 C 52.253906 66.082031 52.675781 66.507812 53.160156 66.507812 L 61.746094 66.507812 C 62.230469 66.507812 62.65625 66.082031 62.65625 65.597656 L 62.65625 62.210938 L 259.21875 62.210938 C 259.460938 62.210938 259.703125 62.089844 259.882812 61.96875 L 319.457031 2.335938 L 338.144531 2.335938 L 366.148438 30.339844 L 319.09375 30.339844 C 318.851562 30.339844 318.609375 30.460938 318.429688 30.582031 L 291.9375 57.070312 C 291.9375 57.070312 291.878906 57.070312 291.878906 57.070312 L 286.433594 57.070312 C 285.949219 57.070312 285.527344 57.496094 285.527344 57.976562 L 285.527344 63.421875 C 285.527344 63.90625 285.949219 64.328125 286.433594 64.328125 L 291.878906 64.328125 C 292.359375 64.328125 292.785156 63.90625 292.785156 63.421875 L 292.785156 58.824219 L 319.457031 32.152344 L 588.65625 32.152344 L 588.65625 40.742188 C 588.65625 41.40625 589.199219 41.949219 589.867188 41.949219 L 608.796875 41.949219 C 609.460938 41.949219 610.007812 41.40625 610.007812 40.742188 L 610.007812 21.8125 C 610.007812 21.144531 609.460938 20.601562 608.796875 20.601562 Z M 60.839844 64.691406 L 54.066406 64.691406 L 54.066406 57.917969 L 60.839844 57.917969 Z M 368.75 30.339844 L 340.683594 2.335938 L 350 2.335938 L 378 30.339844 Z M 380.601562 30.339844 L 352.539062 2.335938 L 361.851562 2.335938 L 389.855469 30.339844 Z M 392.457031 30.339844 L 364.394531 2.335938 L 373.707031 2.335938 L 401.710938 30.339844 Z M 404.3125 30.339844 L 376.246094 2.335938 L 385.5625 2.335938 L 413.566406 30.339844 Z M 404.3125 30.339844 " fill-opacity="1" fill-rule="nonzero"/></g><path fill="#cc0000" d="M 602.335938 281.214844 L 364.90625 281.214844 L 339.527344 255.835938 L 208.6875 255.835938 L 208.6875 253.015625 L 340.65625 253.015625 L 366.035156 278.394531 L 602.335938 278.394531 Z M 602.335938 281.214844 " fill-opacity="1" fill-rule="nonzero"/><path fill="#cc0000" d="M 591.621094 271.0625 L 607.972656 287.417969 L 621.507812 287.417969 L 604.589844 271.0625 Z M 591.621094 271.0625 " fill-opacity="1" fill-rule="nonzero"/><path fill="#cc0000" d="M 609.101562 271.0625 L 626.019531 287.417969 L 639.554688 287.417969 L 622.636719 271.0625 Z M 609.101562 271.0625 " fill-opacity="1" fill-rule="nonzero"/><path fill="#cc0000" d="M 627.148438 271.0625 L 644.066406 287.417969 L 657.039062 287.417969 L 640.683594 271.0625 Z M 627.148438 271.0625 " fill-opacity="1" fill-rule="nonzero"/><path fill="#cc0000" d="M 645.195312 271.0625 L 661.550781 287.417969 L 675.085938 287.417969 L 658.167969 271.0625 Z M 645.195312 271.0625 " fill-opacity="1" fill-rule="nonzero"/><g clip-path="url(#02059b1374)"><path fill="#cc0000" d="M 662.679688 271.0625 L 679.597656 287.417969 L 693.132812 287.417969 L 676.214844 271.0625 Z M 662.679688 271.0625 " fill-opacity="1" fill-rule="nonzero"/></g><g clip-path="url(#4400533a81)"><path fill="#cc0000" d="M 209.816406 254.707031 C 209.816406 255.078125 209.78125 255.445312 209.707031 255.808594 C 209.636719 256.171875 209.527344 256.523438 209.386719 256.867188 C 209.246094 257.207031 209.070312 257.53125 208.867188 257.839844 C 208.660156 258.148438 208.425781 258.433594 208.164062 258.695312 C 207.902344 258.957031 207.617188 259.191406 207.308594 259.394531 C 207 259.601562 206.675781 259.777344 206.335938 259.917969 C 205.992188 260.058594 205.640625 260.167969 205.277344 260.238281 C 204.914062 260.3125 204.546875 260.347656 204.175781 260.347656 C 203.804688 260.347656 203.4375 260.3125 203.074219 260.238281 C 202.714844 260.167969 202.359375 260.058594 202.019531 259.917969 C 201.675781 259.777344 201.351562 259.601562 201.042969 259.394531 C 200.734375 259.191406 200.449219 258.957031 200.1875 258.695312 C 199.925781 258.433594 199.691406 258.148438 199.488281 257.839844 C 199.28125 257.53125 199.109375 257.207031 198.964844 256.867188 C 198.824219 256.523438 198.71875 256.171875 198.644531 255.808594 C 198.574219 255.445312 198.535156 255.078125 198.535156 254.707031 C 198.535156 254.335938 198.574219 253.96875 198.644531 253.605469 C 198.71875 253.242188 198.824219 252.890625 198.964844 252.550781 C 199.109375 252.207031 199.28125 251.882812 199.488281 251.574219 C 199.691406 251.265625 199.925781 250.980469 200.1875 250.71875 C 200.449219 250.457031 200.734375 250.222656 201.042969 250.019531 C 201.351562 249.8125 201.675781 249.636719 202.019531 249.496094 C 202.359375 249.355469 202.714844 249.25 203.074219 249.175781 C 203.4375 249.105469 203.804688 249.066406 204.175781 249.066406 C 204.546875 249.066406 204.914062 249.105469 205.277344 249.175781 C 205.640625 249.25 205.992188 249.355469 206.335938 249.496094 C 206.675781 249.636719 207 249.8125 207.308594 250.019531 C 207.617188 250.222656 207.902344 250.457031 208.164062 250.71875 C 208.425781 250.980469 208.660156 251.265625 208.867188 251.574219 C 209.070312 251.882812 209.246094 252.207031 209.386719 252.550781 C 209.527344 252.890625 209.636719 253.242188 209.707031 253.605469 C 209.78125 253.96875 209.816406 254.335938 209.816406 254.707031 Z M 209.816406 254.707031 " fill-opacity="1" fill-rule="nonzero"/></g><g transform="matrix(1, 0, 0, 1, 121, 53)"><g clip-path="url(#fab96582d3)"><g fill="#cc0000" fill-opacity="1"><g transform="translate(138.965898, 23.581886)"><g><path d="M -30.375 171.09375 C -38.644531 171.09375 -47.410156 170.519531 -56.671875 169.375 C -65.941406 168.238281 -74.925781 166.03125 -83.625 162.75 C -92.320312 159.476562 -100.195312 154.703125 -107.25 148.421875 C -114.3125 142.148438 -119.945312 133.914062 -124.15625 123.71875 C -128.363281 113.53125 -130.46875 100.804688 -130.46875 85.546875 C -130.46875 70.859375 -128.398438 58.488281 -124.265625 48.4375 C -120.128906 38.382812 -114.566406 30.1875 -107.578125 23.84375 C -100.585938 17.5 -92.707031 12.578125 -83.9375 9.078125 C -75.175781 5.585938 -66.195312 3.203125 -57 1.921875 C -47.800781 0.640625 -38.925781 0 -30.375 0 L -2.359375 0 C -0.785156 0 0 0.640625 0 1.921875 L 0 69.078125 L -32.71875 69.078125 L -32.71875 31.4375 C -36.851562 31.289062 -41.703125 31.394531 -47.265625 31.75 C -52.828125 32.113281 -58.53125 33.1875 -64.375 34.96875 C -70.21875 36.75 -75.671875 39.5625 -80.734375 43.40625 C -85.796875 47.257812 -89.859375 52.609375 -92.921875 59.453125 C -95.992188 66.296875 -97.53125 74.992188 -97.53125 85.546875 C -97.53125 99.097656 -94.710938 109.972656 -89.078125 118.171875 C -83.441406 126.367188 -75.738281 132.210938 -65.96875 135.703125 C -56.207031 139.191406 -45.125 140.582031 -32.71875 139.875 L -32.71875 102.015625 L 0 102.015625 L 0 169.171875 C 0 170.453125 -0.785156 171.09375 -2.359375 171.09375 Z M -30.375 171.09375 "/></g></g></g></g></g><path stroke-linecap="butt" transform="matrix(1.660677, 0, 0, 1.660677, 392.89423, 75.64807)" fill="none" stroke-linejoin="miter" d="M 0.000181294 12.001163 L 52.647197 12.001163 " stroke="#deb56a" stroke-width="24" stroke-opacity="1" stroke-miterlimit="4"/><g clip-path="url(#e32871bdc4)"><path stroke-linecap="butt" transform="matrix(1.660667, 0.00567898, -0.00567898, 1.660667, 392.962364, 144.189092)" fill="none" stroke-linejoin="miter" d="M 0.000189837 12.000053 L 71.641671 11.999691 " stroke="#deb56a" stroke-width="24" stroke-opacity="1" stroke-miterlimit="4"/></g><g clip-path="url(#29bd55bd2e)"><path stroke-linecap="butt" transform="matrix(1.660676, -0.00203926, 0.00203926, 1.660676, 392.869727, 213.543623)" fill="none" stroke-linejoin="miter" d="M 0.000199862 12.000557 L 52.647258 11.999344 " stroke="#deb56a" stroke-width="24" stroke-opacity="1" stroke-miterlimit="4"/></g><g clip-path="url(#192e5dabea)"><path stroke-linecap="butt" transform="matrix(1.660613, 0.0145519, -0.0145519, 1.660613, 12.861288, 75.661609)" fill="none" stroke-linejoin="miter" d="M 0.000507157 12.000524 L 61.863474 11.99945 " stroke="#cc0000" stroke-width="24" stroke-opacity="1" stroke-miterlimit="4"/></g><g clip-path="url(#295b308b6b)"><path stroke-linecap="butt" transform="matrix(1.660677, 0, 0, 1.660677, 12.686667, 144.595841)" fill="none" stroke-linejoin="miter" d="M 0.00050184 11.999683 L 74.91818 11.999683 " stroke="#cc0000" stroke-width="24" stroke-opacity="1" stroke-miterlimit="4"/></g><g clip-path="url(#95c68f2118)"><path stroke-linecap="butt" transform="matrix(1.660677, 0, 0, 1.660677, 12.686667, 214.349224)" fill="none" stroke-linejoin="miter" d="M 0.00050184 11.999998 L 61.861099 11.999998 " stroke="#cc0000" stroke-width="24" stroke-opacity="1" stroke-miterlimit="4"/></g><g clip-path="url(#36590241c5)"><g transform="matrix(1, 0, 0, 1, 11, 278)"><g clip-path="url(#c179c9855e)"><g fill="#deb56a" fill-opacity="1"><g transform="translate(4.896695, 47.695936)"><g><path d="M 25.265625 -36.46875 L 33.921875 -27.8125 L 18.3125 -27.8125 L 18.3125 -0.15625 L 11.40625 -0.15625 L 11.40625 -27.8125 L 4.5 -27.8125 L -2.453125 -34.71875 L -2.453125 -34.765625 L 25.265625 -34.765625 Z M 25.265625 -36.46875 "/></g></g></g><g fill="#deb56a" fill-opacity="1"><g transform="translate(39.360299, 47.695936)"><g><path d="M 26.671875 -36.46875 L 26.671875 -34.765625 L 2.453125 -34.765625 L 2.453125 -34.71875 L 9.359375 -27.8125 L 35.328125 -27.8125 Z M 9.359375 -27.8125 L 2.453125 -27.8125 L 2.453125 -0.15625 L 33.625 -0.15625 L 33.625 -7.046875 L 9.359375 -7.046875 L 9.359375 -13.953125 L 33.625 -13.953125 L 33.625 -20.90625 L 9.359375 -20.90625 Z M 9.359375 -27.8125 "/></g></g></g><g fill="#deb56a" fill-opacity="1"><g transform="translate(76.174851, 47.695936)"><g><path d="M 30.125 -36.46875 L 30.125 -34.765625 L 2.453125 -34.765625 L 2.453125 -34.71875 L 9.359375 -27.8125 L 30.125 -27.8125 L 30.125 -0.15625 L 37.078125 -0.15625 L 37.078125 -27.8125 L 38.78125 -27.8125 Z M 9.359375 -27.8125 L 2.453125 -27.8125 L 2.453125 -0.15625 L 9.359375 -0.15625 Z M 9.359375 -27.8125 "/></g></g></g><g fill="#deb56a" fill-opacity="1"><g transform="translate(117.391122, 47.695936)"><g><path d="M 26.671875 -36.46875 L 26.671875 -34.765625 L 2.453125 -34.765625 L 2.453125 -34.71875 L 9.359375 -27.8125 L 35.328125 -27.8125 Z M 9.359375 -27.8125 L 2.453125 -27.8125 L 2.453125 -0.15625 L 33.625 -0.15625 L 33.625 -7.046875 L 9.359375 -7.046875 L 9.359375 -13.953125 L 33.625 -13.953125 L 33.625 -20.90625 L 9.359375 -20.90625 Z M 9.359375 -27.8125 "/></g></g></g><g fill="#deb56a" fill-opacity="1"><g transform="translate(154.205674, 47.695936)"><g><path d="M 25.265625 -36.46875 L 33.921875 -27.8125 L 18.3125 -27.8125 L 18.3125 -0.15625 L 11.40625 -0.15625 L 11.40625 -27.8125 L 4.5 -27.8125 L -2.453125 -34.71875 L -2.453125 -34.765625 L 25.265625 -34.765625 Z M 25.265625 -36.46875 "/></g></g></g><g fill="#cc0000" fill-opacity="1"><g transform="translate(188.69373, 47.695936)"><g/></g></g><g fill="#cc0000" fill-opacity="1"><g transform="translate(205.300293, 47.695936)"><g><path d="M 2.453125 -36.46875 L 11.109375 -27.8125 L 9.359375 -27.8125 L 9.359375 -0.15625 L 2.453125 -0.15625 L 2.453125 -27.8125 L 6.546875 -27.8125 L 2.453125 -31.96875 Z M 2.453125 -36.46875 "/></g></g></g><g fill="#cc0000" fill-opacity="1"><g transform="translate(218.805632, 47.695936)"><g><path d="M 30.125 -36.46875 L 30.125 -34.765625 L 2.453125 -34.765625 L 2.453125 -34.71875 L 9.359375 -27.8125 L 30.125 -27.8125 L 30.125 -0.15625 L 37.078125 -0.15625 L 37.078125 -27.8125 L 38.78125 -27.8125 Z M 9.359375 -27.8125 L 2.453125 -27.8125 L 2.453125 -0.15625 L 9.359375 -0.15625 Z M 9.359375 -27.8125 "/></g></g></g><g fill="#cc0000" fill-opacity="1"><g transform="translate(260.021904, 47.695936)"><g/></g></g><g fill="#cc0000" fill-opacity="1"><g transform="translate(276.628467, 47.695936)"><g><path d="M 26.671875 -36.46875 L 26.671875 -34.765625 L 2.453125 -34.765625 L 2.453125 -34.71875 L 9.359375 -27.8125 L 35.328125 -27.8125 Z M 9.359375 -27.8125 L 2.453125 -27.8125 L 2.453125 -0.15625 L 33.625 -0.15625 L 33.625 -7.046875 L 9.359375 -7.046875 L 9.359375 -13.953125 L 33.625 -13.953125 L 33.625 -20.90625 L 9.359375 -20.90625 Z M 9.359375 -27.8125 "/></g></g></g><g fill="#cc0000" fill-opacity="1"><g transform="translate(313.443019, 47.695936)"><g><path d="M 26.96875 -36.46875 L 26.96875 -21.515625 L 18.515625 -8.953125 L 7.953125 -23.671875 L 7.90625 -27.8125 L 1 -27.8125 L 1 -21.96875 L 16.453125 -0.15625 L 20.265625 -0.15625 L 33.921875 -20.21875 L 33.875 -27.8125 L 35.625 -27.8125 Z M 1 -34.765625 L 1 -34.71875 L 7.90625 -27.8125 L 7.90625 -34.765625 Z M 1 -34.765625 "/></g></g></g><g fill="#cc0000" fill-opacity="1"><g transform="translate(349.957449, 47.695936)"><g><path d="M 30.125 -36.46875 L 38.78125 -27.8125 L 37.078125 -27.8125 L 37.078125 -0.15625 L 2.453125 -0.15625 L 2.453125 -27.8125 L 9.359375 -27.8125 L 9.359375 -7.046875 L 30.125 -7.046875 L 30.125 -27.8125 L 9.359375 -27.8125 L 2.453125 -34.71875 L 2.453125 -34.765625 L 30.125 -34.765625 Z M 30.125 -36.46875 "/></g></g></g><g fill="#cc0000" fill-opacity="1"><g transform="translate(391.173721, 47.695936)"><g><path d="M 9.359375 -36.46875 L 9.359375 -34.765625 L 2.453125 -34.765625 L 2.453125 -34.71875 L 9.359375 -27.8125 L 18.015625 -27.8125 Z M 9.359375 -27.8125 L 2.453125 -27.8125 L 2.453125 -0.15625 L 30.5625 -0.15625 L 30.5625 -7.046875 L 9.359375 -7.046875 Z M 9.359375 -27.8125 "/></g></g></g><g fill="#cc0000" fill-opacity="1"><g transform="translate(422.68616, 47.695936)"><g><path d="M 30.125 -36.46875 L 30.125 -7.046875 L 9.359375 -7.046875 L 9.359375 -27.8125 L 2.453125 -27.8125 L 2.453125 -0.15625 L 37.078125 -0.15625 L 37.078125 -27.8125 L 38.78125 -27.8125 Z M 9.359375 -27.8125 L 9.359375 -34.765625 L 2.453125 -34.765625 L 2.453125 -34.71875 Z M 9.359375 -27.8125 "/></g></g></g><g fill="#cc0000" fill-opacity="1"><g transform="translate(463.902432, 47.695936)"><g><path d="M 25.265625 -36.46875 L 33.921875 -27.8125 L 18.3125 -27.8125 L 18.3125 -0.15625 L 11.40625 -0.15625 L 11.40625 -27.8125 L 4.5 -27.8125 L -2.453125 -34.71875 L -2.453125 -34.765625 L 25.265625 -34.765625 Z M 25.265625 -36.46875 "/></g></g></g><g fill="#cc0000" fill-opacity="1"><g transform="translate(498.366035, 47.695936)"><g><path d="M 2.453125 -36.46875 L 11.109375 -27.8125 L 9.359375 -27.8125 L 9.359375 -0.15625 L 2.453125 -0.15625 L 2.453125 -27.8125 L 6.546875 -27.8125 L 2.453125 -31.96875 Z M 2.453125 -36.46875 "/></g></g></g><g fill="#cc0000" fill-opacity="1"><g transform="translate(511.871374, 47.695936)"><g><path d="M 30.125 -36.46875 L 38.78125 -27.8125 L 37.078125 -27.8125 L 37.078125 -0.15625 L 2.453125 -0.15625 L 2.453125 -27.8125 L 9.359375 -27.8125 L 9.359375 -7.046875 L 30.125 -7.046875 L 30.125 -27.8125 L 9.359375 -27.8125 L 2.453125 -34.71875 L 2.453125 -34.765625 L 30.125 -34.765625 Z M 30.125 -36.46875 "/></g></g></g><g fill="#cc0000" fill-opacity="1"><g transform="translate(553.087646, 47.695936)"><g><path d="M 30.125 -36.46875 L 30.125 -34.765625 L 2.453125 -34.765625 L 2.453125 -34.71875 L 9.359375 -27.8125 L 30.125 -27.8125 L 30.125 -0.15625 L 37.078125 -0.15625 L 37.078125 -27.8125 L 38.78125 -27.8125 Z M 9.359375 -27.8125 L 2.453125 -27.8125 L 2.453125 -0.15625 L 9.359375 -0.15625 Z M 9.359375 -27.8125 "/></g></g></g></g></g></g><g transform="matrix(1, 0, 0, 1, 269, 10)"><g clip-path="url(#3e5162398c)"><g clip-path="url(#1ce90959dd)"><g fill="#deb56a" fill-opacity="1"><g transform="translate(0.473033, 234.233091)"><g><path d="M 30.359375 -171.046875 C 38.628906 -171.046875 47.394531 -170.472656 56.65625 -169.328125 C 65.925781 -168.191406 74.90625 -165.984375 83.59375 -162.703125 C 92.289062 -159.429688 100.164062 -154.660156 107.21875 -148.390625 C 114.28125 -142.117188 119.910156 -133.882812 124.109375 -123.6875 C 128.316406 -113.5 130.421875 -100.78125 130.421875 -85.53125 C 130.421875 -70.84375 128.351562 -58.472656 124.21875 -48.421875 C 120.09375 -38.378906 114.535156 -30.1875 107.546875 -23.84375 C 100.566406 -17.5 92.691406 -12.578125 83.921875 -9.078125 C 75.148438 -5.585938 66.164062 -3.203125 56.96875 -1.921875 C 47.78125 -0.640625 38.910156 0 30.359375 0 L 2.359375 0 C 0.785156 0 0 -0.640625 0 -1.921875 L 0 -69.0625 L 32.71875 -69.0625 L 32.71875 -31.4375 C 36.84375 -31.289062 41.6875 -31.394531 47.25 -31.75 C 52.8125 -32.101562 58.515625 -33.171875 64.359375 -34.953125 C 70.203125 -36.734375 75.648438 -39.546875 80.703125 -43.390625 C 85.765625 -47.242188 89.828125 -52.59375 92.890625 -59.4375 C 95.960938 -66.28125 97.5 -74.976562 97.5 -85.53125 C 97.5 -99.070312 94.679688 -109.9375 89.046875 -118.125 C 83.421875 -126.320312 75.722656 -132.164062 65.953125 -135.65625 C 56.191406 -139.15625 45.113281 -140.546875 32.71875 -139.828125 L 32.71875 -101.984375 L 0 -101.984375 L 0 -169.125 C 0 -170.40625 0.785156 -171.046875 2.359375 -171.046875 Z M 30.359375 -171.046875 "/></g></g></g></g></g></g><g transform="matrix(1, 0, 0, 1, 502, 43)"><g clip-path="url(#260ada8d2b)"><g fill="#cc0000" fill-opacity="1"><g transform="translate(139.314786, 24.389213)"><g><path d="M -95.515625 149.125 L -130.796875 149.125 L -73.53125 1.140625 C -73.226562 0.378906 -72.539062 0 -71.46875 0 C -70.394531 0 -69.628906 0.378906 -69.171875 1.140625 L -0.234375 180.5 C 0.078125 181.257812 0.0390625 181.90625 -0.34375 182.4375 C -0.726562 182.976562 -1.378906 183.25 -2.296875 183.25 L -33.4375 183.25 C -34.8125 183.25 -35.578125 182.789062 -35.734375 181.875 L -71.46875 82 Z M -95.515625 149.125 "/></g></g></g></g></g></g></g></g></svg>