<svg xmlns="http://www.w3.org/2000/svg" xmlns:xlink="http://www.w3.org/1999/xlink" width="615" zoomAndPan="magnify" viewBox="0 0 461.25 262.499992" height="350" preserveAspectRatio="xMidYMid meet" version="1.0"><defs><g/><clipPath id="f2c696ed2e"><path d="M 0.0625 20 L 460.4375 20 L 460.4375 245 L 0.0625 245 Z M 0.0625 20 " clip-rule="nonzero"/></clipPath><clipPath id="2c69ff1a72"><path d="M 34.511719 0.941406 L 405.253906 0.941406 L 405.253906 45 L 34.511719 45 Z M 34.511719 0.941406 " clip-rule="nonzero"/></clipPath><clipPath id="c298c145d9"><path d="M 440 180 L 460.4375 180 L 460.4375 192 L 440 192 Z M 440 180 " clip-rule="nonzero"/></clipPath><clipPath id="8cb63bc62e"><path d="M 131.707031 166 L 140 166 L 140 174 L 131.707031 174 Z M 131.707031 166 " clip-rule="nonzero"/></clipPath><clipPath id="f09c0a24af"><path d="M 5 15 L 92.535156 15 L 92.535156 130 L 5 130 Z M 5 15 " clip-rule="nonzero"/></clipPath><clipPath id="64b779858f"><rect x="0" width="93" y="0" height="171"/></clipPath><clipPath id="02f61a45f8"><path d="M 111 0.839844 L 460.4375 0.839844 L 460.4375 224.574219 L 111 224.574219 Z M 111 0.839844 " clip-rule="nonzero"/></clipPath><clipPath id="bb9af733a6"><path d="M 111 5 L 460.4375 5 L 460.4375 224.574219 L 111 224.574219 Z M 111 5 " clip-rule="nonzero"/></clipPath><clipPath id="bbabb88320"><path d="M 0.0625 0.839844 L 227 0.839844 L 227 215 L 0.0625 215 Z M 0.0625 0.839844 " clip-rule="nonzero"/></clipPath><clipPath id="b61a8dafbc"><path d="M 0.0625 96 L 105 96 L 105 124 L 0.0625 124 Z M 0.0625 96 " clip-rule="nonzero"/></clipPath><clipPath id="269bd5b6b0"><path d="M 0.0625 143 L 90 143 L 90 170 L 0.0625 170 Z M 0.0625 143 " clip-rule="nonzero"/></clipPath><clipPath id="ba7638a749"><path d="M 7 185 L 403 185 L 403 224.574219 L 7 224.574219 Z M 7 185 " clip-rule="nonzero"/></clipPath><clipPath id="fc5ffdc3d2"><rect x="0" width="396" y="0" height="40"/></clipPath><clipPath id="662b8f32f6"><path d="M 0.765625 42 L 88 42 L 88 156 L 0.765625 156 Z M 0.765625 42 " clip-rule="nonzero"/></clipPath><clipPath id="2bb722233b"><rect x="0" width="93" y="0" height="172"/></clipPath><clipPath id="9fdf6e6ebe"><rect x="0" width="95" y="0" height="184"/></clipPath><clipPath id="641596db81"><rect x="0" width="461" y="0" height="225"/></clipPath></defs><g clip-path="url(#f2c696ed2e)"><g transform="matrix(1, 0, 0, 1, 0, 20)"><g clip-path="url(#641596db81)"><g clip-path="url(#2c69ff1a72)"><path fill="#deb56a" d="M 404.292969 14.285156 L 391.714844 14.285156 C 391.273438 14.285156 390.910156 14.648438 390.910156 15.089844 L 390.910156 20.796875 L 276.304688 20.796875 L 256.652344 1.105469 C 256.613281 1.0625 256.53125 0.984375 256.453125 0.984375 C 256.371094 0.945312 256.292969 0.945312 256.210938 0.945312 L 211.808594 0.945312 C 211.644531 0.945312 211.484375 1.023438 211.363281 1.105469 L 171.78125 40.726562 L 41.421875 40.726562 L 41.421875 38.476562 C 41.421875 38.15625 41.140625 37.875 40.820312 37.875 L 35.113281 37.875 C 34.792969 37.875 34.511719 38.15625 34.511719 38.476562 L 34.511719 44.183594 C 34.511719 44.503906 34.792969 44.785156 35.113281 44.785156 L 40.820312 44.785156 C 41.140625 44.785156 41.421875 44.503906 41.421875 44.183594 L 41.421875 41.933594 L 172.023438 41.933594 C 172.183594 41.933594 172.34375 41.851562 172.464844 41.773438 L 212.046875 2.148438 L 224.464844 2.148438 L 243.070312 20.753906 L 211.808594 20.753906 C 211.644531 20.753906 211.484375 20.835938 211.363281 20.914062 L 193.765625 38.515625 C 193.765625 38.515625 193.722656 38.515625 193.722656 38.515625 L 190.105469 38.515625 C 189.785156 38.515625 189.503906 38.796875 189.503906 39.121094 L 189.503906 42.734375 C 189.503906 43.058594 189.785156 43.339844 190.105469 43.339844 L 193.722656 43.339844 C 194.046875 43.339844 194.328125 43.058594 194.328125 42.734375 L 194.328125 39.683594 L 212.046875 21.960938 L 390.910156 21.960938 L 390.910156 27.667969 C 390.910156 28.109375 391.273438 28.46875 391.714844 28.46875 L 404.292969 28.46875 C 404.734375 28.46875 405.097656 28.109375 405.097656 27.667969 L 405.097656 15.089844 C 405.097656 14.648438 404.734375 14.285156 404.292969 14.285156 Z M 40.21875 43.582031 L 35.714844 43.582031 L 35.714844 39.078125 L 40.21875 39.078125 Z M 244.800781 20.753906 L 226.152344 2.148438 L 232.339844 2.148438 L 250.945312 20.753906 Z M 252.675781 20.753906 L 234.03125 2.148438 L 240.21875 2.148438 L 258.824219 20.753906 Z M 260.550781 20.753906 L 241.90625 2.148438 L 248.09375 2.148438 L 266.699219 20.753906 Z M 268.425781 20.753906 L 249.78125 2.148438 L 255.96875 2.148438 L 274.574219 20.753906 Z M 268.425781 20.753906 " fill-opacity="1" fill-rule="nonzero"/></g><path fill="#cc0000" d="M 400 187.441406 L 242.246094 187.441406 L 225.382812 170.582031 L 138.449219 170.582031 L 138.449219 168.707031 L 226.132812 168.707031 L 242.996094 185.570312 L 400 185.570312 Z M 400 187.441406 " fill-opacity="1" fill-rule="nonzero"/><path fill="#cc0000" d="M 392.878906 180.699219 L 403.746094 191.566406 L 412.738281 191.566406 L 401.5 180.699219 Z M 392.878906 180.699219 " fill-opacity="1" fill-rule="nonzero"/><path fill="#cc0000" d="M 404.496094 180.699219 L 415.738281 191.566406 L 424.730469 191.566406 L 413.488281 180.699219 Z M 404.496094 180.699219 " fill-opacity="1" fill-rule="nonzero"/><path fill="#cc0000" d="M 416.488281 180.699219 L 427.726562 191.566406 L 436.347656 191.566406 L 425.480469 180.699219 Z M 416.488281 180.699219 " fill-opacity="1" fill-rule="nonzero"/><path fill="#cc0000" d="M 428.476562 180.699219 L 439.34375 191.566406 L 448.335938 191.566406 L 437.097656 180.699219 Z M 428.476562 180.699219 " fill-opacity="1" fill-rule="nonzero"/><g clip-path="url(#c298c145d9)"><path fill="#cc0000" d="M 440.09375 180.699219 L 451.335938 191.566406 L 460.328125 191.566406 L 449.085938 180.699219 Z M 440.09375 180.699219 " fill-opacity="1" fill-rule="nonzero"/></g><g clip-path="url(#8cb63bc62e)"><path fill="#cc0000" d="M 139.199219 169.832031 C 139.199219 170.328125 139.105469 170.804688 138.914062 171.265625 C 138.726562 171.722656 138.453125 172.128906 138.101562 172.480469 C 137.75 172.832031 137.347656 173.101562 136.886719 173.292969 C 136.429688 173.484375 135.949219 173.578125 135.453125 173.578125 C 134.957031 173.578125 134.476562 173.484375 134.019531 173.292969 C 133.558594 173.101562 133.15625 172.832031 132.804688 172.480469 C 132.453125 172.128906 132.179688 171.722656 131.992188 171.265625 C 131.800781 170.804688 131.707031 170.328125 131.707031 169.832031 C 131.707031 169.335938 131.800781 168.855469 131.992188 168.398438 C 132.179688 167.9375 132.453125 167.53125 132.804688 167.183594 C 133.15625 166.832031 133.558594 166.558594 134.019531 166.371094 C 134.476562 166.179688 134.957031 166.085938 135.453125 166.085938 C 135.949219 166.085938 136.429688 166.179688 136.886719 166.371094 C 137.347656 166.558594 137.75 166.832031 138.101562 167.183594 C 138.453125 167.53125 138.726562 167.9375 138.914062 168.398438 C 139.105469 168.855469 139.199219 169.335938 139.199219 169.832031 Z M 139.199219 169.832031 " fill-opacity="1" fill-rule="nonzero"/></g><g transform="matrix(1, 0, 0, 1, 80, 36)"><g clip-path="url(#64b779858f)"><g clip-path="url(#f09c0a24af)"><g fill="#cc0000" fill-opacity="1"><g transform="translate(92.52105, 15.480198)"><g><path d="M -20.171875 113.6875 C -25.671875 113.6875 -31.5 113.304688 -37.65625 112.546875 C -43.8125 111.785156 -49.78125 110.316406 -55.5625 108.140625 C -61.34375 105.960938 -66.578125 102.789062 -71.265625 98.625 C -75.953125 94.457031 -79.691406 88.984375 -82.484375 82.203125 C -85.285156 75.429688 -86.6875 66.976562 -86.6875 56.84375 C -86.6875 47.082031 -85.3125 38.863281 -82.5625 32.1875 C -79.8125 25.507812 -76.113281 20.0625 -71.46875 15.84375 C -66.832031 11.625 -61.597656 8.351562 -55.765625 6.03125 C -49.941406 3.71875 -43.972656 2.132812 -37.859375 1.28125 C -31.753906 0.425781 -25.859375 0 -20.171875 0 L -1.5625 0 C -0.519531 0 0 0.425781 0 1.28125 L 0 45.90625 L -21.75 45.90625 L -21.75 20.890625 C -24.488281 20.796875 -27.707031 20.863281 -31.40625 21.09375 C -35.101562 21.332031 -38.890625 22.046875 -42.765625 23.234375 C -46.648438 24.421875 -50.273438 26.289062 -53.640625 28.84375 C -57.003906 31.40625 -59.703125 34.957031 -61.734375 39.5 C -63.773438 44.050781 -64.796875 49.832031 -64.796875 56.84375 C -64.796875 65.84375 -62.925781 73.066406 -59.1875 78.515625 C -55.445312 83.960938 -50.332031 87.847656 -43.84375 90.171875 C -37.351562 92.492188 -29.988281 93.414062 -21.75 92.9375 L -21.75 67.78125 L 0 67.78125 L 0 112.40625 C 0 113.257812 -0.519531 113.6875 -1.5625 113.6875 Z M -20.171875 113.6875 "/></g></g></g></g></g></g><path stroke-linecap="butt" transform="matrix(1.103397, 0, 0, 1.103397, 260.842062, 50.859731)" fill="none" stroke-linejoin="miter" d="M 0.00153025 12.000971 L 52.647913 12.000971 " stroke="#deb56a" stroke-width="24" stroke-opacity="1" stroke-miterlimit="4"/><g clip-path="url(#02f61a45f8)"><path stroke-linecap="butt" transform="matrix(1.10339, 0.00377326, -0.00377326, 1.10339, 260.887326, 96.40015)" fill="none" stroke-linejoin="miter" d="M 0.00154317 11.999806 L 71.641536 11.999094 " stroke="#deb56a" stroke-width="24" stroke-opacity="1" stroke-miterlimit="4"/></g><g clip-path="url(#bb9af733a6)"><path stroke-linecap="butt" transform="matrix(1.103396, -0.00135494, 0.00135494, 1.103396, 260.825773, 142.481092)" fill="none" stroke-linejoin="miter" d="M 0.00155628 12.000739 L 52.647976 12.001664 " stroke="#deb56a" stroke-width="24" stroke-opacity="1" stroke-miterlimit="4"/></g><g clip-path="url(#bbabb88320)"><path stroke-linecap="butt" transform="matrix(1.103354, 0.00966863, -0.00966863, 1.103354, 8.33836, 50.868724)" fill="none" stroke-linejoin="miter" d="M 0.000292959 12.00036 L 61.8642 11.999922 " stroke="#cc0000" stroke-width="24" stroke-opacity="1" stroke-miterlimit="4"/></g><g clip-path="url(#b61a8dafbc)"><path stroke-linecap="butt" transform="matrix(1.103397, 0, 0, 1.103397, 8.222337, 96.670403)" fill="none" stroke-linejoin="miter" d="M 0.000289668 11.999087 L 74.9181 11.999087 " stroke="#cc0000" stroke-width="24" stroke-opacity="1" stroke-miterlimit="4"/></g><g clip-path="url(#269bd5b6b0)"><path stroke-linecap="butt" transform="matrix(1.103397, 0, 0, 1.103397, 8.222337, 143.016367)" fill="none" stroke-linejoin="miter" d="M 0.000289668 12.000621 L 61.861825 12.000621 " stroke="#cc0000" stroke-width="24" stroke-opacity="1" stroke-miterlimit="4"/></g><g clip-path="url(#ba7638a749)"><g transform="matrix(1, 0, 0, 1, 7, 185)"><g clip-path="url(#fc5ffdc3d2)"><g fill="#deb56a" fill-opacity="1"><g transform="translate(3.355163, 31.998013)"><g><path d="M 16.78125 -24.234375 L 22.53125 -18.484375 L 12.15625 -18.484375 L 12.15625 -0.09375 L 7.578125 -0.09375 L 7.578125 -18.484375 L 2.984375 -18.484375 L -1.625 -23.0625 L -1.625 -23.09375 L 16.78125 -23.09375 Z M 16.78125 -24.234375 "/></g></g></g><g fill="#deb56a" fill-opacity="1"><g transform="translate(26.25367, 31.998013)"><g><path d="M 17.71875 -24.234375 L 17.71875 -23.09375 L 1.625 -23.09375 L 1.625 -23.0625 L 6.21875 -18.484375 L 23.46875 -18.484375 Z M 6.21875 -18.484375 L 1.625 -18.484375 L 1.625 -0.09375 L 22.328125 -0.09375 L 22.328125 -4.6875 L 6.21875 -4.6875 L 6.21875 -9.265625 L 22.328125 -9.265625 L 22.328125 -13.890625 L 6.21875 -13.890625 Z M 6.21875 -18.484375 "/></g></g></g><g fill="#deb56a" fill-opacity="1"><g transform="translate(50.714209, 31.998013)"><g><path d="M 20 -24.234375 L 20 -23.09375 L 1.625 -23.09375 L 1.625 -23.0625 L 6.21875 -18.484375 L 20 -18.484375 L 20 -0.09375 L 24.625 -0.09375 L 24.625 -18.484375 L 25.75 -18.484375 Z M 6.21875 -18.484375 L 1.625 -18.484375 L 1.625 -0.09375 L 6.21875 -0.09375 Z M 6.21875 -18.484375 "/></g></g></g><g fill="#deb56a" fill-opacity="1"><g transform="translate(78.099363, 31.998013)"><g><path d="M 17.71875 -24.234375 L 17.71875 -23.09375 L 1.625 -23.09375 L 1.625 -23.0625 L 6.21875 -18.484375 L 23.46875 -18.484375 Z M 6.21875 -18.484375 L 1.625 -18.484375 L 1.625 -0.09375 L 22.328125 -0.09375 L 22.328125 -4.6875 L 6.21875 -4.6875 L 6.21875 -9.265625 L 22.328125 -9.265625 L 22.328125 -13.890625 L 6.21875 -13.890625 Z M 6.21875 -18.484375 "/></g></g></g><g fill="#deb56a" fill-opacity="1"><g transform="translate(102.559902, 31.998013)"><g><path d="M 16.78125 -24.234375 L 22.53125 -18.484375 L 12.15625 -18.484375 L 12.15625 -0.09375 L 7.578125 -0.09375 L 7.578125 -18.484375 L 2.984375 -18.484375 L -1.625 -23.0625 L -1.625 -23.09375 L 16.78125 -23.09375 Z M 16.78125 -24.234375 "/></g></g></g><g fill="#cc0000" fill-opacity="1"><g transform="translate(125.474656, 31.998013)"><g/></g></g><g fill="#cc0000" fill-opacity="1"><g transform="translate(136.508485, 31.998013)"><g><path d="M 1.625 -24.234375 L 7.375 -18.484375 L 6.21875 -18.484375 L 6.21875 -0.09375 L 1.625 -0.09375 L 1.625 -18.484375 L 4.359375 -18.484375 L 1.625 -21.234375 Z M 1.625 -24.234375 "/></g></g></g><g fill="#cc0000" fill-opacity="1"><g transform="translate(145.481781, 31.998013)"><g><path d="M 20 -24.234375 L 20 -23.09375 L 1.625 -23.09375 L 1.625 -23.0625 L 6.21875 -18.484375 L 20 -18.484375 L 20 -0.09375 L 24.625 -0.09375 L 24.625 -18.484375 L 25.75 -18.484375 Z M 6.21875 -18.484375 L 1.625 -18.484375 L 1.625 -0.09375 L 6.21875 -0.09375 Z M 6.21875 -18.484375 "/></g></g></g><g fill="#cc0000" fill-opacity="1"><g transform="translate(172.866936, 31.998013)"><g/></g></g><g fill="#cc0000" fill-opacity="1"><g transform="translate(183.900765, 31.998013)"><g><path d="M 17.71875 -24.234375 L 17.71875 -23.09375 L 1.625 -23.09375 L 1.625 -23.0625 L 6.21875 -18.484375 L 23.46875 -18.484375 Z M 6.21875 -18.484375 L 1.625 -18.484375 L 1.625 -0.09375 L 22.328125 -0.09375 L 22.328125 -4.6875 L 6.21875 -4.6875 L 6.21875 -9.265625 L 22.328125 -9.265625 L 22.328125 -13.890625 L 6.21875 -13.890625 Z M 6.21875 -18.484375 "/></g></g></g><g fill="#cc0000" fill-opacity="1"><g transform="translate(208.361304, 31.998013)"><g><path d="M 17.90625 -24.234375 L 17.90625 -14.296875 L 12.296875 -5.953125 L 5.28125 -15.71875 L 5.25 -18.484375 L 0.671875 -18.484375 L 0.671875 -14.59375 L 10.9375 -0.09375 L 13.453125 -0.09375 L 22.53125 -13.421875 L 22.5 -18.484375 L 23.65625 -18.484375 Z M 0.671875 -23.09375 L 0.671875 -23.0625 L 5.25 -18.484375 L 5.25 -23.09375 Z M 0.671875 -23.09375 "/></g></g></g><g fill="#cc0000" fill-opacity="1"><g transform="translate(232.622434, 31.998013)"><g><path d="M 20 -24.234375 L 25.75 -18.484375 L 24.625 -18.484375 L 24.625 -0.09375 L 1.625 -0.09375 L 1.625 -18.484375 L 6.21875 -18.484375 L 6.21875 -4.6875 L 20 -4.6875 L 20 -18.484375 L 6.21875 -18.484375 L 1.625 -23.0625 L 1.625 -23.09375 L 20 -23.09375 Z M 20 -24.234375 "/></g></g></g><g fill="#cc0000" fill-opacity="1"><g transform="translate(260.007588, 31.998013)"><g><path d="M 6.21875 -24.234375 L 6.21875 -23.09375 L 1.625 -23.09375 L 1.625 -23.0625 L 6.21875 -18.484375 L 11.96875 -18.484375 Z M 6.21875 -18.484375 L 1.625 -18.484375 L 1.625 -0.09375 L 20.3125 -0.09375 L 20.3125 -4.6875 L 6.21875 -4.6875 Z M 6.21875 -18.484375 "/></g></g></g><g fill="#cc0000" fill-opacity="1"><g transform="translate(280.945266, 31.998013)"><g><path d="M 20 -24.234375 L 20 -4.6875 L 6.21875 -4.6875 L 6.21875 -18.484375 L 1.625 -18.484375 L 1.625 -0.09375 L 24.625 -0.09375 L 24.625 -18.484375 L 25.75 -18.484375 Z M 6.21875 -18.484375 L 6.21875 -23.09375 L 1.625 -23.09375 L 1.625 -23.0625 Z M 6.21875 -18.484375 "/></g></g></g><g fill="#cc0000" fill-opacity="1"><g transform="translate(308.330421, 31.998013)"><g><path d="M 16.78125 -24.234375 L 22.53125 -18.484375 L 12.15625 -18.484375 L 12.15625 -0.09375 L 7.578125 -0.09375 L 7.578125 -18.484375 L 2.984375 -18.484375 L -1.625 -23.0625 L -1.625 -23.09375 L 16.78125 -23.09375 Z M 16.78125 -24.234375 "/></g></g></g><g fill="#cc0000" fill-opacity="1"><g transform="translate(331.228929, 31.998013)"><g><path d="M 1.625 -24.234375 L 7.375 -18.484375 L 6.21875 -18.484375 L 6.21875 -0.09375 L 1.625 -0.09375 L 1.625 -18.484375 L 4.359375 -18.484375 L 1.625 -21.234375 Z M 1.625 -24.234375 "/></g></g></g><g fill="#cc0000" fill-opacity="1"><g transform="translate(340.202225, 31.998013)"><g><path d="M 20 -24.234375 L 25.75 -18.484375 L 24.625 -18.484375 L 24.625 -0.09375 L 1.625 -0.09375 L 1.625 -18.484375 L 6.21875 -18.484375 L 6.21875 -4.6875 L 20 -4.6875 L 20 -18.484375 L 6.21875 -18.484375 L 1.625 -23.0625 L 1.625 -23.09375 L 20 -23.09375 Z M 20 -24.234375 "/></g></g></g><g fill="#cc0000" fill-opacity="1"><g transform="translate(367.587379, 31.998013)"><g><path d="M 20 -24.234375 L 20 -23.09375 L 1.625 -23.09375 L 1.625 -23.0625 L 6.21875 -18.484375 L 20 -18.484375 L 20 -0.09375 L 24.625 -0.09375 L 24.625 -18.484375 L 25.75 -18.484375 Z M 6.21875 -18.484375 L 1.625 -18.484375 L 1.625 -0.09375 L 6.21875 -0.09375 Z M 6.21875 -18.484375 "/></g></g></g></g></g></g><g transform="matrix(1, 0, 0, 1, 178, 7)"><g clip-path="url(#2bb722233b)"><g clip-path="url(#662b8f32f6)"><g fill="#deb56a" fill-opacity="1"><g transform="translate(0.837816, 155.871964)"><g><path d="M 20.171875 -113.65625 C 25.660156 -113.65625 31.484375 -113.273438 37.640625 -112.515625 C 43.796875 -111.753906 49.765625 -110.285156 55.546875 -108.109375 C 61.328125 -105.929688 66.5625 -102.757812 71.25 -98.59375 C 75.9375 -94.425781 79.675781 -88.957031 82.46875 -82.1875 C 85.257812 -75.414062 86.65625 -66.960938 86.65625 -56.828125 C 86.65625 -47.066406 85.28125 -38.847656 82.53125 -32.171875 C 79.789062 -25.492188 76.097656 -20.046875 71.453125 -15.828125 C 66.816406 -11.617188 61.582031 -8.351562 55.75 -6.03125 C 49.925781 -3.71875 43.960938 -2.132812 37.859375 -1.28125 C 31.753906 -0.425781 25.859375 0 20.171875 0 L 1.5625 0 C 0.519531 0 0 -0.425781 0 -1.28125 L 0 -45.890625 L 21.734375 -45.890625 L 21.734375 -20.890625 C 24.484375 -20.785156 27.703125 -20.851562 31.390625 -21.09375 C 35.085938 -21.332031 38.875 -22.039062 42.75 -23.21875 C 46.632812 -24.40625 50.257812 -26.273438 53.625 -28.828125 C 56.988281 -31.390625 59.6875 -34.941406 61.71875 -39.484375 C 63.757812 -44.035156 64.78125 -49.816406 64.78125 -56.828125 C 64.78125 -65.828125 62.910156 -73.046875 59.171875 -78.484375 C 55.429688 -83.929688 50.316406 -87.816406 43.828125 -90.140625 C 37.335938 -92.460938 29.972656 -93.382812 21.734375 -92.90625 L 21.734375 -67.765625 L 0 -67.765625 L 0 -112.375 C 0 -113.226562 0.519531 -113.65625 1.5625 -113.65625 Z M 20.171875 -113.65625 "/></g></g></g></g></g></g><g transform="matrix(1, 0, 0, 1, 333, 29)"><g clip-path="url(#9fdf6e6ebe)"><g fill="#cc0000" fill-opacity="1"><g transform="translate(92.89908, 16.372354)"><g><path d="M -63.46875 99.078125 L -86.90625 99.078125 L -48.859375 0.765625 C -48.648438 0.253906 -48.191406 0 -47.484375 0 C -46.773438 0 -46.269531 0.253906 -45.96875 0.765625 L -0.15625 119.9375 C 0.0507812 120.445312 0.03125 120.878906 -0.21875 121.234375 C -0.476562 121.585938 -0.910156 121.765625 -1.515625 121.765625 L -22.21875 121.765625 C -23.132812 121.765625 -23.644531 121.457031 -23.75 120.84375 L -47.484375 54.484375 Z M -63.46875 99.078125 "/></g></g></g></g></g></g></g></g></svg>